solid OpenSCAD_Model
  facet normal -0.992723 0 -0.120423
    outer loop
      vertex -16.05 0 4.5
      vertex -16.0979 7 4.89487
      vertex -16.05 7 4.5
    endloop
  endfacet
  facet normal -0.992723 -0 -0.120423
    outer loop
      vertex -16.0979 7 4.89487
      vertex -16.05 0 4.5
      vertex -16.0979 0 4.89487
    endloop
  endfacet
  facet normal -0.934975 0 -0.354713
    outer loop
      vertex -16.0979 0 4.89487
      vertex -16.239 7 5.26679
      vertex -16.0979 7 4.89487
    endloop
  endfacet
  facet normal -0.934975 -0 -0.354713
    outer loop
      vertex -16.239 7 5.26679
      vertex -16.0979 0 4.89487
      vertex -16.239 0 5.26679
    endloop
  endfacet
  facet normal 0 0 -1
    outer loop
      vertex -17.8989 0 6.13797
      vertex -17.5011 7 6.13797
      vertex -17.5011 0 6.13797
    endloop
  endfacet
  facet normal -0 0 -1
    outer loop
      vertex -17.5011 7 6.13797
      vertex -17.8989 0 6.13797
      vertex -17.8989 7 6.13797
    endloop
  endfacet
  facet normal -0.663166 0 -0.748472
    outer loop
      vertex -16.7627 0 5.85792
      vertex -16.465 7 5.59415
      vertex -16.465 0 5.59415
    endloop
  endfacet
  facet normal -0.663166 0 -0.748472
    outer loop
      vertex -16.465 7 5.59415
      vertex -16.7627 0 5.85792
      vertex -16.7627 7 5.85792
    endloop
  endfacet
  facet normal 0.822937 0 -0.568132
    outer loop
      vertex -18.935 0 5.59415
      vertex -19.161 7 5.26679
      vertex -18.935 7 5.59415
    endloop
  endfacet
  facet normal 0.822937 0 -0.568132
    outer loop
      vertex -19.161 7 5.26679
      vertex -18.935 0 5.59415
      vertex -19.161 0 5.26679
    endloop
  endfacet
  facet normal 0.464745 0 -0.885444
    outer loop
      vertex -18.6373 0 5.85792
      vertex -18.2851 7 6.04278
      vertex -18.2851 0 6.04278
    endloop
  endfacet
  facet normal 0.464745 0 -0.885444
    outer loop
      vertex -18.2851 7 6.04278
      vertex -18.6373 0 5.85792
      vertex -18.6373 7 5.85792
    endloop
  endfacet
  facet normal -0.934975 0 0.354713
    outer loop
      vertex -16.239 0 3.73321
      vertex -16.0979 7 4.10513
      vertex -16.239 7 3.73321
    endloop
  endfacet
  facet normal -0.934975 0 0.354713
    outer loop
      vertex -16.0979 7 4.10513
      vertex -16.239 0 3.73321
      vertex -16.0979 0 4.10513
    endloop
  endfacet
  facet normal -0.822937 0 -0.568132
    outer loop
      vertex -16.239 0 5.26679
      vertex -16.465 7 5.59415
      vertex -16.239 7 5.26679
    endloop
  endfacet
  facet normal -0.822937 -0 -0.568132
    outer loop
      vertex -16.465 7 5.59415
      vertex -16.239 0 5.26679
      vertex -16.465 0 5.59415
    endloop
  endfacet
  facet normal -0.239316 0 -0.970942
    outer loop
      vertex -17.5011 0 6.13797
      vertex -17.1149 7 6.04278
      vertex -17.1149 0 6.04278
    endloop
  endfacet
  facet normal -0.239316 0 -0.970942
    outer loop
      vertex -17.1149 7 6.04278
      vertex -17.5011 0 6.13797
      vertex -17.5011 7 6.13797
    endloop
  endfacet
  facet normal -0.464745 0 -0.885444
    outer loop
      vertex -17.1149 0 6.04278
      vertex -16.7627 7 5.85792
      vertex -16.7627 0 5.85792
    endloop
  endfacet
  facet normal -0.464745 0 -0.885444
    outer loop
      vertex -16.7627 7 5.85792
      vertex -17.1149 0 6.04278
      vertex -17.1149 7 6.04278
    endloop
  endfacet
  facet normal 0.934975 0 -0.354713
    outer loop
      vertex -19.161 0 5.26679
      vertex -19.3021 7 4.89487
      vertex -19.161 7 5.26679
    endloop
  endfacet
  facet normal 0.934975 0 -0.354713
    outer loop
      vertex -19.3021 7 4.89487
      vertex -19.161 0 5.26679
      vertex -19.3021 0 4.89487
    endloop
  endfacet
  facet normal 0.992723 0 -0.120423
    outer loop
      vertex -19.3021 0 4.89487
      vertex -19.35 7 4.5
      vertex -19.3021 7 4.89487
    endloop
  endfacet
  facet normal 0.992723 0 -0.120423
    outer loop
      vertex -19.35 7 4.5
      vertex -19.3021 0 4.89487
      vertex -19.35 0 4.5
    endloop
  endfacet
  facet normal 0.992723 -0 0.120423
    outer loop
      vertex -19.35 0 4.5
      vertex -19.3021 7 4.10513
      vertex -19.35 7 4.5
    endloop
  endfacet
  facet normal 0.992723 0 0.120423
    outer loop
      vertex -19.3021 7 4.10513
      vertex -19.35 0 4.5
      vertex -19.3021 0 4.10513
    endloop
  endfacet
  facet normal 0.239316 0 -0.970942
    outer loop
      vertex -18.2851 0 6.04278
      vertex -17.8989 7 6.13797
      vertex -17.8989 0 6.13797
    endloop
  endfacet
  facet normal 0.239316 0 -0.970942
    outer loop
      vertex -17.8989 7 6.13797
      vertex -18.2851 0 6.04278
      vertex -18.2851 7 6.04278
    endloop
  endfacet
  facet normal -0.992723 0 0.120423
    outer loop
      vertex -16.0979 0 4.10513
      vertex -16.05 7 4.5
      vertex -16.0979 7 4.10513
    endloop
  endfacet
  facet normal -0.992723 0 0.120423
    outer loop
      vertex -16.05 7 4.5
      vertex -16.0979 0 4.10513
      vertex -16.05 0 4.5
    endloop
  endfacet
  facet normal -0.239316 0 0.970942
    outer loop
      vertex -17.5011 7 2.86203
      vertex -17.1149 0 2.95722
      vertex -17.1149 7 2.95722
    endloop
  endfacet
  facet normal -0.239316 0 0.970942
    outer loop
      vertex -17.1149 0 2.95722
      vertex -17.5011 7 2.86203
      vertex -17.5011 0 2.86203
    endloop
  endfacet
  facet normal 0.464745 0 0.885444
    outer loop
      vertex -18.6373 7 3.14208
      vertex -18.2851 0 2.95722
      vertex -18.2851 7 2.95722
    endloop
  endfacet
  facet normal 0.464745 0 0.885444
    outer loop
      vertex -18.2851 0 2.95722
      vertex -18.6373 7 3.14208
      vertex -18.6373 0 3.14208
    endloop
  endfacet
  facet normal -0 0 1
    outer loop
      vertex -17.8989 7 2.86203
      vertex -17.5011 0 2.86203
      vertex -17.5011 7 2.86203
    endloop
  endfacet
  facet normal 0 0 1
    outer loop
      vertex -17.5011 0 2.86203
      vertex -17.8989 7 2.86203
      vertex -17.8989 0 2.86203
    endloop
  endfacet
  facet normal 0.663166 0 0.748472
    outer loop
      vertex -18.935 7 3.40585
      vertex -18.6373 0 3.14208
      vertex -18.6373 7 3.14208
    endloop
  endfacet
  facet normal 0.663166 0 0.748472
    outer loop
      vertex -18.6373 0 3.14208
      vertex -18.935 7 3.40585
      vertex -18.935 0 3.40585
    endloop
  endfacet
  facet normal 0.934975 -0 0.354713
    outer loop
      vertex -19.3021 0 4.10513
      vertex -19.161 7 3.73321
      vertex -19.3021 7 4.10513
    endloop
  endfacet
  facet normal 0.934975 0 0.354713
    outer loop
      vertex -19.161 7 3.73321
      vertex -19.3021 0 4.10513
      vertex -19.161 0 3.73321
    endloop
  endfacet
  facet normal 0.663166 0 -0.748472
    outer loop
      vertex -18.935 0 5.59415
      vertex -18.6373 7 5.85792
      vertex -18.6373 0 5.85792
    endloop
  endfacet
  facet normal 0.663166 0 -0.748472
    outer loop
      vertex -18.6373 7 5.85792
      vertex -18.935 0 5.59415
      vertex -18.935 7 5.59415
    endloop
  endfacet
  facet normal 0.239316 0 0.970942
    outer loop
      vertex -18.2851 7 2.95722
      vertex -17.8989 0 2.86203
      vertex -17.8989 7 2.86203
    endloop
  endfacet
  facet normal 0.239316 0 0.970942
    outer loop
      vertex -17.8989 0 2.86203
      vertex -18.2851 7 2.95722
      vertex -18.2851 0 2.95722
    endloop
  endfacet
  facet normal 0.822937 -0 0.568132
    outer loop
      vertex -19.161 0 3.73321
      vertex -18.935 7 3.40585
      vertex -19.161 7 3.73321
    endloop
  endfacet
  facet normal 0.822937 0 0.568132
    outer loop
      vertex -18.935 7 3.40585
      vertex -19.161 0 3.73321
      vertex -18.935 0 3.40585
    endloop
  endfacet
  facet normal -0.663166 0 0.748472
    outer loop
      vertex -16.7627 7 3.14208
      vertex -16.465 0 3.40585
      vertex -16.465 7 3.40585
    endloop
  endfacet
  facet normal -0.663166 0 0.748472
    outer loop
      vertex -16.465 0 3.40585
      vertex -16.7627 7 3.14208
      vertex -16.7627 0 3.14208
    endloop
  endfacet
  facet normal -0.464745 0 0.885444
    outer loop
      vertex -17.1149 7 2.95722
      vertex -16.7627 0 3.14208
      vertex -16.7627 7 3.14208
    endloop
  endfacet
  facet normal -0.464745 0 0.885444
    outer loop
      vertex -16.7627 0 3.14208
      vertex -17.1149 7 2.95722
      vertex -17.1149 0 2.95722
    endloop
  endfacet
  facet normal -0.822937 0 0.568132
    outer loop
      vertex -16.465 0 3.40585
      vertex -16.239 7 3.73321
      vertex -16.465 7 3.40585
    endloop
  endfacet
  facet normal -0.822937 0 0.568132
    outer loop
      vertex -16.239 7 3.73321
      vertex -16.465 0 3.40585
      vertex -16.239 0 3.73321
    endloop
  endfacet
  facet normal -0.992723 0 -0.120423
    outer loop
      vertex 19.35 0 4.5
      vertex 19.3021 7 4.89487
      vertex 19.35 7 4.5
    endloop
  endfacet
  facet normal -0.992723 -0 -0.120423
    outer loop
      vertex 19.3021 7 4.89487
      vertex 19.35 0 4.5
      vertex 19.3021 0 4.89487
    endloop
  endfacet
  facet normal -0.992723 0 0.120423
    outer loop
      vertex 19.3021 0 4.10513
      vertex 19.35 7 4.5
      vertex 19.3021 7 4.10513
    endloop
  endfacet
  facet normal -0.992723 0 0.120423
    outer loop
      vertex 19.35 7 4.5
      vertex 19.3021 0 4.10513
      vertex 19.35 0 4.5
    endloop
  endfacet
  facet normal -0 0 1
    outer loop
      vertex 17.5011 7 2.86203
      vertex 17.8989 0 2.86203
      vertex 17.8989 7 2.86203
    endloop
  endfacet
  facet normal 0 0 1
    outer loop
      vertex 17.8989 0 2.86203
      vertex 17.5011 7 2.86203
      vertex 17.5011 0 2.86203
    endloop
  endfacet
  facet normal -0.663166 0 -0.748472
    outer loop
      vertex 18.6373 0 5.85792
      vertex 18.935 7 5.59415
      vertex 18.935 0 5.59415
    endloop
  endfacet
  facet normal -0.663166 0 -0.748472
    outer loop
      vertex 18.935 7 5.59415
      vertex 18.6373 0 5.85792
      vertex 18.6373 7 5.85792
    endloop
  endfacet
  facet normal 0 0 -1
    outer loop
      vertex 17.5011 0 6.13797
      vertex 17.8989 7 6.13797
      vertex 17.8989 0 6.13797
    endloop
  endfacet
  facet normal -0 0 -1
    outer loop
      vertex 17.8989 7 6.13797
      vertex 17.5011 0 6.13797
      vertex 17.5011 7 6.13797
    endloop
  endfacet
  facet normal -0.464745 0 -0.885444
    outer loop
      vertex 18.2851 0 6.04278
      vertex 18.6373 7 5.85792
      vertex 18.6373 0 5.85792
    endloop
  endfacet
  facet normal -0.464745 0 -0.885444
    outer loop
      vertex 18.6373 7 5.85792
      vertex 18.2851 0 6.04278
      vertex 18.2851 7 6.04278
    endloop
  endfacet
  facet normal 0.464745 0 -0.885444
    outer loop
      vertex 16.7627 0 5.85792
      vertex 17.1149 7 6.04278
      vertex 17.1149 0 6.04278
    endloop
  endfacet
  facet normal 0.464745 0 -0.885444
    outer loop
      vertex 17.1149 7 6.04278
      vertex 16.7627 0 5.85792
      vertex 16.7627 7 5.85792
    endloop
  endfacet
  facet normal -0.934975 0 0.354713
    outer loop
      vertex 19.161 0 3.73321
      vertex 19.3021 7 4.10513
      vertex 19.161 7 3.73321
    endloop
  endfacet
  facet normal -0.934975 0 0.354713
    outer loop
      vertex 19.3021 7 4.10513
      vertex 19.161 0 3.73321
      vertex 19.3021 0 4.10513
    endloop
  endfacet
  facet normal -0.822937 0 -0.568132
    outer loop
      vertex 19.161 0 5.26679
      vertex 18.935 7 5.59415
      vertex 19.161 7 5.26679
    endloop
  endfacet
  facet normal -0.822937 -0 -0.568132
    outer loop
      vertex 18.935 7 5.59415
      vertex 19.161 0 5.26679
      vertex 18.935 0 5.59415
    endloop
  endfacet
  facet normal -0.239316 0 -0.970942
    outer loop
      vertex 17.8989 0 6.13797
      vertex 18.2851 7 6.04278
      vertex 18.2851 0 6.04278
    endloop
  endfacet
  facet normal -0.239316 0 -0.970942
    outer loop
      vertex 18.2851 7 6.04278
      vertex 17.8989 0 6.13797
      vertex 17.8989 7 6.13797
    endloop
  endfacet
  facet normal 0.992723 -0 0.120423
    outer loop
      vertex 16.05 0 4.5
      vertex 16.0979 7 4.10513
      vertex 16.05 7 4.5
    endloop
  endfacet
  facet normal 0.992723 0 0.120423
    outer loop
      vertex 16.0979 7 4.10513
      vertex 16.05 0 4.5
      vertex 16.0979 0 4.10513
    endloop
  endfacet
  facet normal 0.934975 0 -0.354713
    outer loop
      vertex 16.239 0 5.26679
      vertex 16.0979 7 4.89487
      vertex 16.239 7 5.26679
    endloop
  endfacet
  facet normal 0.934975 0 -0.354713
    outer loop
      vertex 16.0979 7 4.89487
      vertex 16.239 0 5.26679
      vertex 16.0979 0 4.89487
    endloop
  endfacet
  facet normal 0.822937 0 -0.568132
    outer loop
      vertex 16.465 0 5.59415
      vertex 16.239 7 5.26679
      vertex 16.465 7 5.59415
    endloop
  endfacet
  facet normal 0.822937 0 -0.568132
    outer loop
      vertex 16.239 7 5.26679
      vertex 16.465 0 5.59415
      vertex 16.239 0 5.26679
    endloop
  endfacet
  facet normal -0.464745 0 0.885444
    outer loop
      vertex 18.2851 7 2.95722
      vertex 18.6373 0 3.14208
      vertex 18.6373 7 3.14208
    endloop
  endfacet
  facet normal -0.464745 0 0.885444
    outer loop
      vertex 18.6373 0 3.14208
      vertex 18.2851 7 2.95722
      vertex 18.2851 0 2.95722
    endloop
  endfacet
  facet normal 0.464745 0 0.885444
    outer loop
      vertex 16.7627 7 3.14208
      vertex 17.1149 0 2.95722
      vertex 17.1149 7 2.95722
    endloop
  endfacet
  facet normal 0.464745 0 0.885444
    outer loop
      vertex 17.1149 0 2.95722
      vertex 16.7627 7 3.14208
      vertex 16.7627 0 3.14208
    endloop
  endfacet
  facet normal 0.663166 0 0.748472
    outer loop
      vertex 16.465 7 3.40585
      vertex 16.7627 0 3.14208
      vertex 16.7627 7 3.14208
    endloop
  endfacet
  facet normal 0.663166 0 0.748472
    outer loop
      vertex 16.7627 0 3.14208
      vertex 16.465 7 3.40585
      vertex 16.465 0 3.40585
    endloop
  endfacet
  facet normal -0.934975 0 -0.354713
    outer loop
      vertex 19.3021 0 4.89487
      vertex 19.161 7 5.26679
      vertex 19.3021 7 4.89487
    endloop
  endfacet
  facet normal -0.934975 -0 -0.354713
    outer loop
      vertex 19.161 7 5.26679
      vertex 19.3021 0 4.89487
      vertex 19.161 0 5.26679
    endloop
  endfacet
  facet normal 0.992723 0 -0.120423
    outer loop
      vertex 16.0979 0 4.89487
      vertex 16.05 7 4.5
      vertex 16.0979 7 4.89487
    endloop
  endfacet
  facet normal 0.992723 0 -0.120423
    outer loop
      vertex 16.05 7 4.5
      vertex 16.0979 0 4.89487
      vertex 16.05 0 4.5
    endloop
  endfacet
  facet normal 0.239316 0 -0.970942
    outer loop
      vertex 17.1149 0 6.04278
      vertex 17.5011 7 6.13797
      vertex 17.5011 0 6.13797
    endloop
  endfacet
  facet normal 0.239316 0 -0.970942
    outer loop
      vertex 17.5011 7 6.13797
      vertex 17.1149 0 6.04278
      vertex 17.1149 7 6.04278
    endloop
  endfacet
  facet normal 0.663166 0 -0.748472
    outer loop
      vertex 16.465 0 5.59415
      vertex 16.7627 7 5.85792
      vertex 16.7627 0 5.85792
    endloop
  endfacet
  facet normal 0.663166 0 -0.748472
    outer loop
      vertex 16.7627 7 5.85792
      vertex 16.465 0 5.59415
      vertex 16.465 7 5.59415
    endloop
  endfacet
  facet normal -0.239316 0 0.970942
    outer loop
      vertex 17.8989 7 2.86203
      vertex 18.2851 0 2.95722
      vertex 18.2851 7 2.95722
    endloop
  endfacet
  facet normal -0.239316 0 0.970942
    outer loop
      vertex 18.2851 0 2.95722
      vertex 17.8989 7 2.86203
      vertex 17.8989 0 2.86203
    endloop
  endfacet
  facet normal -0.663166 0 0.748472
    outer loop
      vertex 18.6373 7 3.14208
      vertex 18.935 0 3.40585
      vertex 18.935 7 3.40585
    endloop
  endfacet
  facet normal -0.663166 0 0.748472
    outer loop
      vertex 18.935 0 3.40585
      vertex 18.6373 7 3.14208
      vertex 18.6373 0 3.14208
    endloop
  endfacet
  facet normal -0.822937 0 0.568132
    outer loop
      vertex 18.935 0 3.40585
      vertex 19.161 7 3.73321
      vertex 18.935 7 3.40585
    endloop
  endfacet
  facet normal -0.822937 0 0.568132
    outer loop
      vertex 19.161 7 3.73321
      vertex 18.935 0 3.40585
      vertex 19.161 0 3.73321
    endloop
  endfacet
  facet normal 0.239316 0 0.970942
    outer loop
      vertex 17.1149 7 2.95722
      vertex 17.5011 0 2.86203
      vertex 17.5011 7 2.86203
    endloop
  endfacet
  facet normal 0.239316 0 0.970942
    outer loop
      vertex 17.5011 0 2.86203
      vertex 17.1149 7 2.95722
      vertex 17.1149 0 2.95722
    endloop
  endfacet
  facet normal 0.934975 -0 0.354713
    outer loop
      vertex 16.0979 0 4.10513
      vertex 16.239 7 3.73321
      vertex 16.0979 7 4.10513
    endloop
  endfacet
  facet normal 0.934975 0 0.354713
    outer loop
      vertex 16.239 7 3.73321
      vertex 16.0979 0 4.10513
      vertex 16.239 0 3.73321
    endloop
  endfacet
  facet normal 0.822937 -0 0.568132
    outer loop
      vertex 16.239 0 3.73321
      vertex 16.465 7 3.40585
      vertex 16.239 7 3.73321
    endloop
  endfacet
  facet normal 0.822937 0 0.568132
    outer loop
      vertex 16.465 7 3.40585
      vertex 16.239 0 3.73321
      vertex 16.465 0 3.40585
    endloop
  endfacet
  facet normal 0 0 -1
    outer loop
      vertex 21 0 0
      vertex 12.5761 7 0
      vertex 21 7 0
    endloop
  endfacet
  facet normal 0 0 -1
    outer loop
      vertex 8.81969 5.51115 0
      vertex 12.2119 7.63083 0
      vertex 12.5761 7 0
    endloop
  endfacet
  facet normal -0 0 -1
    outer loop
      vertex 12.2119 7.63083 0
      vertex 8.81969 5.51115 0
      vertex 11.6498 8.4641 0
    endloop
  endfacet
  facet normal 0 0 -1
    outer loop
      vertex 10.3747 0.725464 0
      vertex 21 0 0
      vertex 10.4 0 0
    endloop
  endfacet
  facet normal 0 0 -1
    outer loop
      vertex 10.2988 1.44739 0
      vertex 21 0 0
      vertex 10.3747 0.725464 0
    endloop
  endfacet
  facet normal 0 0 -1
    outer loop
      vertex 21 0 0
      vertex 10.2988 1.44739 0
      vertex 12.5761 7 0
    endloop
  endfacet
  facet normal 0 0 -1
    outer loop
      vertex 10.1727 2.16228 0
      vertex 12.5761 7 0
      vertex 10.2988 1.44739 0
    endloop
  endfacet
  facet normal 0 0 -1
    outer loop
      vertex 9.99712 2.86662 0
      vertex 12.5761 7 0
      vertex 10.1727 2.16228 0
    endloop
  endfacet
  facet normal 0 0 -1
    outer loop
      vertex 9.7728 3.55701 0
      vertex 12.5761 7 0
      vertex 9.99712 2.86662 0
    endloop
  endfacet
  facet normal 0 0 -1
    outer loop
      vertex 9.50087 4.23006 0
      vertex 12.5761 7 0
      vertex 9.7728 3.55701 0
    endloop
  endfacet
  facet normal 0 0 -1
    outer loop
      vertex 9.18265 4.88249 0
      vertex 12.5761 7 0
      vertex 9.50087 4.23006 0
    endloop
  endfacet
  facet normal 0 0 -1
    outer loop
      vertex 8.81969 5.51115 0
      vertex 12.5761 7 0
      vertex 9.18265 4.88249 0
    endloop
  endfacet
  facet normal 0 0 -1
    outer loop
      vertex 11.6498 8.4641 0
      vertex 8.81969 5.51115 0
      vertex 8.41377 6.11296 0
    endloop
  endfacet
  facet normal -0 0 -1
    outer loop
      vertex 11.6498 8.4641 0
      vertex 8.41377 6.11296 0
      vertex 11.031 9.25613 0
    endloop
  endfacet
  facet normal 0 0 -1
    outer loop
      vertex 7.96686 6.68498 0
      vertex 11.031 9.25613 0
      vertex 8.41377 6.11296 0
    endloop
  endfacet
  facet normal -0 0 -1
    outer loop
      vertex 11.031 9.25613 0
      vertex 7.96686 6.68498 0
      vertex 10.3585 10.0031 0
    endloop
  endfacet
  facet normal 0 0 -1
    outer loop
      vertex 7.48112 7.22444 0
      vertex 10.3585 10.0031 0
      vertex 7.96686 6.68498 0
    endloop
  endfacet
  facet normal -0 0 -1
    outer loop
      vertex 10.3585 10.0031 0
      vertex 7.48112 7.22444 0
      vertex 9.63547 10.7013 0
    endloop
  endfacet
  facet normal 0 0 -1
    outer loop
      vertex 6.95895 7.7287 0
      vertex 9.63547 10.7013 0
      vertex 7.48112 7.22444 0
    endloop
  endfacet
  facet normal -0 0 -1
    outer loop
      vertex 9.63547 10.7013 0
      vertex 6.95895 7.7287 0
      vertex 8.86552 11.3474 0
    endloop
  endfacet
  facet normal 0 0 -1
    outer loop
      vertex 6.40288 8.1953 0
      vertex 8.86552 11.3474 0
      vertex 6.95895 7.7287 0
    endloop
  endfacet
  facet normal -0 0 -1
    outer loop
      vertex 8.86552 11.3474 0
      vertex 6.40288 8.1953 0
      vertex 8.05237 11.9381 0
    endloop
  endfacet
  facet normal 0 0 -1
    outer loop
      vertex 5.8156 8.62198 0
      vertex 8.05237 11.9381 0
      vertex 6.40288 8.1953 0
    endloop
  endfacet
  facet normal -0 0 -1
    outer loop
      vertex 8.05237 11.9381 0
      vertex 5.8156 8.62198 0
      vertex 7.2 12.4708 0
    endloop
  endfacet
  facet normal 0 0 -1
    outer loop
      vertex 5.2 9.00665 0
      vertex 7.2 12.4708 0
      vertex 5.8156 8.62198 0
    endloop
  endfacet
  facet normal -0 0 -1
    outer loop
      vertex 7.2 12.4708 0
      vertex 5.2 9.00665 0
      vertex 6.31253 12.9426 0
    endloop
  endfacet
  facet normal 0 0 -1
    outer loop
      vertex 4.55905 9.34746 0
      vertex 6.31253 12.9426 0
      vertex 5.2 9.00665 0
    endloop
  endfacet
  facet normal -0 0 -1
    outer loop
      vertex 6.31253 12.9426 0
      vertex 4.55905 9.34746 0
      vertex 5.39433 13.3514 0
    endloop
  endfacet
  facet normal 0 0 -1
    outer loop
      vertex 3.8959 9.6427 0
      vertex 5.39433 13.3514 0
      vertex 4.55905 9.34746 0
    endloop
  endfacet
  facet normal -0 0 -1
    outer loop
      vertex 5.39433 13.3514 0
      vertex 3.8959 9.6427 0
      vertex 4.44984 13.6952 0
    endloop
  endfacet
  facet normal 0 0 -1
    outer loop
      vertex 3.21378 9.89098 0
      vertex 4.44984 13.6952 0
      vertex 3.8959 9.6427 0
    endloop
  endfacet
  facet normal -0 0 -1
    outer loop
      vertex 4.44984 13.6952 0
      vertex 3.21378 9.89098 0
      vertex 3.48367 13.9722 0
    endloop
  endfacet
  facet normal 0 0 -1
    outer loop
      vertex 2.51598 10.0911 0
      vertex 3.48367 13.9722 0
      vertex 3.21378 9.89098 0
    endloop
  endfacet
  facet normal 0 0 -1
    outer loop
      vertex 2.51598 10.0911 0
      vertex 2.50052 14.1812 0
      vertex 3.48367 13.9722 0
    endloop
  endfacet
  facet normal 0 0 -1
    outer loop
      vertex 1.80594 10.242 0
      vertex 2.50052 14.1812 0
      vertex 2.51598 10.0911 0
    endloop
  endfacet
  facet normal 0 0 -1
    outer loop
      vertex 1.80594 10.242 0
      vertex 1.5052 14.3211 0
      vertex 2.50052 14.1812 0
    endloop
  endfacet
  facet normal 0 0 -1
    outer loop
      vertex 1.08708 10.343 0
      vertex 1.5052 14.3211 0
      vertex 1.80594 10.242 0
    endloop
  endfacet
  facet normal 0 0 -1
    outer loop
      vertex 1.08708 10.343 0
      vertex 0.502548 14.3912 0
      vertex 1.5052 14.3211 0
    endloop
  endfacet
  facet normal 0 0 -1
    outer loop
      vertex 0.362946 10.3937 0
      vertex 0.502548 14.3912 0
      vertex 1.08708 10.343 0
    endloop
  endfacet
  facet normal 0 0 -1
    outer loop
      vertex -0.362946 10.3937 0
      vertex 0.502548 14.3912 0
      vertex 0.362946 10.3937 0
    endloop
  endfacet
  facet normal 0 0 -1
    outer loop
      vertex -0.362946 10.3937 0
      vertex -0.502548 14.3912 0
      vertex 0.502548 14.3912 0
    endloop
  endfacet
  facet normal 0 0 -1
    outer loop
      vertex -1.08708 10.343 0
      vertex -0.502548 14.3912 0
      vertex -0.362946 10.3937 0
    endloop
  endfacet
  facet normal 0 0 -1
    outer loop
      vertex -1.08708 10.343 0
      vertex -1.5052 14.3211 0
      vertex -0.502548 14.3912 0
    endloop
  endfacet
  facet normal 0 0 -1
    outer loop
      vertex -1.80594 10.242 0
      vertex -1.5052 14.3211 0
      vertex -1.08708 10.343 0
    endloop
  endfacet
  facet normal 0 0 -1
    outer loop
      vertex -1.80594 10.242 0
      vertex -2.50052 14.1812 0
      vertex -1.5052 14.3211 0
    endloop
  endfacet
  facet normal 0 0 -1
    outer loop
      vertex -2.51598 10.0911 0
      vertex -2.50052 14.1812 0
      vertex -1.80594 10.242 0
    endloop
  endfacet
  facet normal 0 0 -1
    outer loop
      vertex -3.48367 13.9722 0
      vertex -2.51598 10.0911 0
      vertex -3.21378 9.89098 0
    endloop
  endfacet
  facet normal 0 0 -1
    outer loop
      vertex -2.51598 10.0911 0
      vertex -3.48367 13.9722 0
      vertex -2.50052 14.1812 0
    endloop
  endfacet
  facet normal 0 0 -1
    outer loop
      vertex -4.44984 13.6952 0
      vertex -3.21378 9.89098 0
      vertex -3.8959 9.6427 0
    endloop
  endfacet
  facet normal 0 0 -1
    outer loop
      vertex -3.21378 9.89098 0
      vertex -4.44984 13.6952 0
      vertex -3.48367 13.9722 0
    endloop
  endfacet
  facet normal 0 0 -1
    outer loop
      vertex -5.39433 13.3514 0
      vertex -3.8959 9.6427 0
      vertex -4.55905 9.34746 0
    endloop
  endfacet
  facet normal 0 0 -1
    outer loop
      vertex -6.31253 12.9426 0
      vertex -4.55905 9.34746 0
      vertex -5.2 9.00665 0
    endloop
  endfacet
  facet normal 0 0 -1
    outer loop
      vertex -3.8959 9.6427 0
      vertex -5.39433 13.3514 0
      vertex -4.44984 13.6952 0
    endloop
  endfacet
  facet normal 0 0 -1
    outer loop
      vertex -7.2 12.4708 0
      vertex -5.2 9.00665 0
      vertex -5.8156 8.62198 0
    endloop
  endfacet
  facet normal 0 0 -1
    outer loop
      vertex -4.55905 9.34746 0
      vertex -6.31253 12.9426 0
      vertex -5.39433 13.3514 0
    endloop
  endfacet
  facet normal 0 0 -1
    outer loop
      vertex -8.05237 11.9381 0
      vertex -5.8156 8.62198 0
      vertex -6.40288 8.1953 0
    endloop
  endfacet
  facet normal 0 0 -1
    outer loop
      vertex -8.86552 11.3474 0
      vertex -6.40288 8.1953 0
      vertex -6.95895 7.7287 0
    endloop
  endfacet
  facet normal 0 0 -1
    outer loop
      vertex -5.2 9.00665 0
      vertex -7.2 12.4708 0
      vertex -6.31253 12.9426 0
    endloop
  endfacet
  facet normal 0 0 -1
    outer loop
      vertex -9.63547 10.7013 0
      vertex -6.95895 7.7287 0
      vertex -7.48112 7.22444 0
    endloop
  endfacet
  facet normal 0 0 -1
    outer loop
      vertex -10.3585 10.0031 0
      vertex -7.48112 7.22444 0
      vertex -7.96686 6.68498 0
    endloop
  endfacet
  facet normal 0 0 -1
    outer loop
      vertex -5.8156 8.62198 0
      vertex -8.05237 11.9381 0
      vertex -7.2 12.4708 0
    endloop
  endfacet
  facet normal 0 0 -1
    outer loop
      vertex -11.031 9.25613 0
      vertex -7.96686 6.68498 0
      vertex -8.41377 6.11296 0
    endloop
  endfacet
  facet normal 0 0 -1
    outer loop
      vertex -11.6498 8.4641 0
      vertex -8.41377 6.11296 0
      vertex -8.81969 5.51115 0
    endloop
  endfacet
  facet normal 0 0 -1
    outer loop
      vertex -6.40288 8.1953 0
      vertex -8.86552 11.3474 0
      vertex -8.05237 11.9381 0
    endloop
  endfacet
  facet normal 0 0 -1
    outer loop
      vertex -12.5761 7 0
      vertex -8.81969 5.51115 0
      vertex -9.18265 4.88249 0
    endloop
  endfacet
  facet normal 0 0 -1
    outer loop
      vertex -12.5761 7 0
      vertex -9.18265 4.88249 0
      vertex -9.50087 4.23006 0
    endloop
  endfacet
  facet normal 0 0 -1
    outer loop
      vertex -6.95895 7.7287 0
      vertex -9.63547 10.7013 0
      vertex -8.86552 11.3474 0
    endloop
  endfacet
  facet normal 0 0 -1
    outer loop
      vertex -12.5761 7 0
      vertex -9.50087 4.23006 0
      vertex -9.7728 3.55701 0
    endloop
  endfacet
  facet normal 0 0 -1
    outer loop
      vertex -12.5761 7 0
      vertex -9.7728 3.55701 0
      vertex -9.99712 2.86662 0
    endloop
  endfacet
  facet normal 0 0 -1
    outer loop
      vertex -12.5761 7 0
      vertex -9.99712 2.86662 0
      vertex -10.1727 2.16228 0
    endloop
  endfacet
  facet normal 0 0 -1
    outer loop
      vertex -12.5761 7 0
      vertex -10.1727 2.16228 0
      vertex -10.2988 1.44739 0
    endloop
  endfacet
  facet normal 0 0 -1
    outer loop
      vertex -7.48112 7.22444 0
      vertex -10.3585 10.0031 0
      vertex -9.63547 10.7013 0
    endloop
  endfacet
  facet normal 0 0 -1
    outer loop
      vertex -21 0 0
      vertex -10.2988 1.44739 0
      vertex -10.3747 0.725464 0
    endloop
  endfacet
  facet normal 0 0 -1
    outer loop
      vertex -21 0 0
      vertex -10.3747 0.725464 0
      vertex -10.4 0 0
    endloop
  endfacet
  facet normal 0 0 -1
    outer loop
      vertex -7.96686 6.68498 0
      vertex -11.031 9.25613 0
      vertex -10.3585 10.0031 0
    endloop
  endfacet
  facet normal 0 0 -1
    outer loop
      vertex -8.41377 6.11296 0
      vertex -11.6498 8.4641 0
      vertex -11.031 9.25613 0
    endloop
  endfacet
  facet normal 0 0 -1
    outer loop
      vertex -8.81969 5.51115 0
      vertex -12.2119 7.63083 0
      vertex -11.6498 8.4641 0
    endloop
  endfacet
  facet normal 0 0 -1
    outer loop
      vertex -8.81969 5.51115 0
      vertex -12.5761 7 0
      vertex -12.2119 7.63083 0
    endloop
  endfacet
  facet normal -0 0 -1
    outer loop
      vertex -10.2988 1.44739 0
      vertex -21 0 0
      vertex -12.5761 7 0
    endloop
  endfacet
  facet normal -0 0 -1
    outer loop
      vertex -12.5761 7 0
      vertex -21 0 0
      vertex -21 7 0
    endloop
  endfacet
  facet normal -0 0 1
    outer loop
      vertex 12.5761 7 9
      vertex 21 0 9
      vertex 21 7 9
    endloop
  endfacet
  facet normal 0 0 1
    outer loop
      vertex 8.81969 5.51115 9
      vertex 12.2119 7.63083 9
      vertex 11.6498 8.4641 9
    endloop
  endfacet
  facet normal 0 0 1
    outer loop
      vertex 8.41377 6.11296 9
      vertex 11.6498 8.4641 9
      vertex 11.031 9.25613 9
    endloop
  endfacet
  facet normal -0 0 1
    outer loop
      vertex 10.2988 1.44739 9
      vertex 21 0 9
      vertex 12.5761 7 9
    endloop
  endfacet
  facet normal 0 -0 1
    outer loop
      vertex 8.81969 5.51115 9
      vertex 11.6498 8.4641 9
      vertex 8.41377 6.11296 9
    endloop
  endfacet
  facet normal 0 0 1
    outer loop
      vertex 21 0 9
      vertex 10.3747 0.725464 9
      vertex 10.4 0 9
    endloop
  endfacet
  facet normal 0 0 1
    outer loop
      vertex 7.96686 6.68498 9
      vertex 11.031 9.25613 9
      vertex 10.3585 10.0031 9
    endloop
  endfacet
  facet normal 0 0 1
    outer loop
      vertex 21 0 9
      vertex 10.2988 1.44739 9
      vertex 10.3747 0.725464 9
    endloop
  endfacet
  facet normal 0 0 1
    outer loop
      vertex 12.5761 7 9
      vertex 10.1727 2.16228 9
      vertex 10.2988 1.44739 9
    endloop
  endfacet
  facet normal 0 0 1
    outer loop
      vertex 12.5761 7 9
      vertex 9.99712 2.86662 9
      vertex 10.1727 2.16228 9
    endloop
  endfacet
  facet normal 0 0 1
    outer loop
      vertex 12.5761 7 9
      vertex 9.7728 3.55701 9
      vertex 9.99712 2.86662 9
    endloop
  endfacet
  facet normal 0 0 1
    outer loop
      vertex 7.48112 7.22444 9
      vertex 10.3585 10.0031 9
      vertex 9.63547 10.7013 9
    endloop
  endfacet
  facet normal 0 0 1
    outer loop
      vertex 12.5761 7 9
      vertex 9.50087 4.23006 9
      vertex 9.7728 3.55701 9
    endloop
  endfacet
  facet normal 0 0 1
    outer loop
      vertex 12.5761 7 9
      vertex 9.18265 4.88249 9
      vertex 9.50087 4.23006 9
    endloop
  endfacet
  facet normal 0 0 1
    outer loop
      vertex 6.95895 7.7287 9
      vertex 9.63547 10.7013 9
      vertex 8.86552 11.3474 9
    endloop
  endfacet
  facet normal 0 0 1
    outer loop
      vertex 12.5761 7 9
      vertex 8.81969 5.51115 9
      vertex 9.18265 4.88249 9
    endloop
  endfacet
  facet normal 0 0 1
    outer loop
      vertex 12.2119 7.63083 9
      vertex 8.81969 5.51115 9
      vertex 12.5761 7 9
    endloop
  endfacet
  facet normal 0 0 1
    outer loop
      vertex 6.40288 8.1953 9
      vertex 8.86552 11.3474 9
      vertex 8.05237 11.9381 9
    endloop
  endfacet
  facet normal 0 0 1
    outer loop
      vertex 11.031 9.25613 9
      vertex 7.96686 6.68498 9
      vertex 8.41377 6.11296 9
    endloop
  endfacet
  facet normal 0 0 1
    outer loop
      vertex 10.3585 10.0031 9
      vertex 7.48112 7.22444 9
      vertex 7.96686 6.68498 9
    endloop
  endfacet
  facet normal 0 0 1
    outer loop
      vertex 5.8156 8.62198 9
      vertex 8.05237 11.9381 9
      vertex 7.2 12.4708 9
    endloop
  endfacet
  facet normal 0 0 1
    outer loop
      vertex 9.63547 10.7013 9
      vertex 6.95895 7.7287 9
      vertex 7.48112 7.22444 9
    endloop
  endfacet
  facet normal 0 0 1
    outer loop
      vertex 8.86552 11.3474 9
      vertex 6.40288 8.1953 9
      vertex 6.95895 7.7287 9
    endloop
  endfacet
  facet normal 0 0 1
    outer loop
      vertex 5.2 9.00665 9
      vertex 7.2 12.4708 9
      vertex 6.31253 12.9426 9
    endloop
  endfacet
  facet normal 0 0 1
    outer loop
      vertex 8.05237 11.9381 9
      vertex 5.8156 8.62198 9
      vertex 6.40288 8.1953 9
    endloop
  endfacet
  facet normal 0 0 1
    outer loop
      vertex 4.55905 9.34746 9
      vertex 6.31253 12.9426 9
      vertex 5.39433 13.3514 9
    endloop
  endfacet
  facet normal 0 0 1
    outer loop
      vertex 7.2 12.4708 9
      vertex 5.2 9.00665 9
      vertex 5.8156 8.62198 9
    endloop
  endfacet
  facet normal 0 0 1
    outer loop
      vertex 6.31253 12.9426 9
      vertex 4.55905 9.34746 9
      vertex 5.2 9.00665 9
    endloop
  endfacet
  facet normal 0 0 1
    outer loop
      vertex 3.8959 9.6427 9
      vertex 5.39433 13.3514 9
      vertex 4.44984 13.6952 9
    endloop
  endfacet
  facet normal 0 0 1
    outer loop
      vertex 5.39433 13.3514 9
      vertex 3.8959 9.6427 9
      vertex 4.55905 9.34746 9
    endloop
  endfacet
  facet normal 0 0 1
    outer loop
      vertex 3.21378 9.89098 9
      vertex 4.44984 13.6952 9
      vertex 3.48367 13.9722 9
    endloop
  endfacet
  facet normal 0 0 1
    outer loop
      vertex 4.44984 13.6952 9
      vertex 3.21378 9.89098 9
      vertex 3.8959 9.6427 9
    endloop
  endfacet
  facet normal 0 0 1
    outer loop
      vertex 3.48367 13.9722 9
      vertex 2.51598 10.0911 9
      vertex 3.21378 9.89098 9
    endloop
  endfacet
  facet normal 0 0 1
    outer loop
      vertex 2.50052 14.1812 9
      vertex 2.51598 10.0911 9
      vertex 3.48367 13.9722 9
    endloop
  endfacet
  facet normal 0 0 1
    outer loop
      vertex 2.50052 14.1812 9
      vertex 1.80594 10.242 9
      vertex 2.51598 10.0911 9
    endloop
  endfacet
  facet normal 0 0 1
    outer loop
      vertex 1.5052 14.3211 9
      vertex 1.80594 10.242 9
      vertex 2.50052 14.1812 9
    endloop
  endfacet
  facet normal 0 0 1
    outer loop
      vertex 1.5052 14.3211 9
      vertex 1.08708 10.343 9
      vertex 1.80594 10.242 9
    endloop
  endfacet
  facet normal 0 0 1
    outer loop
      vertex 0.502548 14.3912 9
      vertex 1.08708 10.343 9
      vertex 1.5052 14.3211 9
    endloop
  endfacet
  facet normal 0 0 1
    outer loop
      vertex 0.502548 14.3912 9
      vertex 0.362946 10.3937 9
      vertex 1.08708 10.343 9
    endloop
  endfacet
  facet normal 0 0 1
    outer loop
      vertex 0.502548 14.3912 9
      vertex -0.362946 10.3937 9
      vertex 0.362946 10.3937 9
    endloop
  endfacet
  facet normal -0 0 1
    outer loop
      vertex -0.502548 14.3912 9
      vertex -0.362946 10.3937 9
      vertex 0.502548 14.3912 9
    endloop
  endfacet
  facet normal 0 0 1
    outer loop
      vertex -0.502548 14.3912 9
      vertex -1.08708 10.343 9
      vertex -0.362946 10.3937 9
    endloop
  endfacet
  facet normal -0 0 1
    outer loop
      vertex -1.5052 14.3211 9
      vertex -1.08708 10.343 9
      vertex -0.502548 14.3912 9
    endloop
  endfacet
  facet normal 0 0 1
    outer loop
      vertex -1.5052 14.3211 9
      vertex -1.80594 10.242 9
      vertex -1.08708 10.343 9
    endloop
  endfacet
  facet normal -0 0 1
    outer loop
      vertex -2.50052 14.1812 9
      vertex -1.80594 10.242 9
      vertex -1.5052 14.3211 9
    endloop
  endfacet
  facet normal 0 0 1
    outer loop
      vertex -2.50052 14.1812 9
      vertex -2.51598 10.0911 9
      vertex -1.80594 10.242 9
    endloop
  endfacet
  facet normal -0 0 1
    outer loop
      vertex -3.48367 13.9722 9
      vertex -2.51598 10.0911 9
      vertex -2.50052 14.1812 9
    endloop
  endfacet
  facet normal 0 0 1
    outer loop
      vertex -2.51598 10.0911 9
      vertex -3.48367 13.9722 9
      vertex -3.21378 9.89098 9
    endloop
  endfacet
  facet normal -0 0 1
    outer loop
      vertex -4.44984 13.6952 9
      vertex -3.21378 9.89098 9
      vertex -3.48367 13.9722 9
    endloop
  endfacet
  facet normal 0 0 1
    outer loop
      vertex -3.21378 9.89098 9
      vertex -4.44984 13.6952 9
      vertex -3.8959 9.6427 9
    endloop
  endfacet
  facet normal -0 0 1
    outer loop
      vertex -5.39433 13.3514 9
      vertex -3.8959 9.6427 9
      vertex -4.44984 13.6952 9
    endloop
  endfacet
  facet normal 0 0 1
    outer loop
      vertex -3.8959 9.6427 9
      vertex -5.39433 13.3514 9
      vertex -4.55905 9.34746 9
    endloop
  endfacet
  facet normal -0 0 1
    outer loop
      vertex -6.31253 12.9426 9
      vertex -4.55905 9.34746 9
      vertex -5.39433 13.3514 9
    endloop
  endfacet
  facet normal 0 0 1
    outer loop
      vertex -4.55905 9.34746 9
      vertex -6.31253 12.9426 9
      vertex -5.2 9.00665 9
    endloop
  endfacet
  facet normal -0 0 1
    outer loop
      vertex -7.2 12.4708 9
      vertex -5.2 9.00665 9
      vertex -6.31253 12.9426 9
    endloop
  endfacet
  facet normal 0 0 1
    outer loop
      vertex -5.2 9.00665 9
      vertex -7.2 12.4708 9
      vertex -5.8156 8.62198 9
    endloop
  endfacet
  facet normal -0 0 1
    outer loop
      vertex -8.05237 11.9381 9
      vertex -5.8156 8.62198 9
      vertex -7.2 12.4708 9
    endloop
  endfacet
  facet normal 0 0 1
    outer loop
      vertex -5.8156 8.62198 9
      vertex -8.05237 11.9381 9
      vertex -6.40288 8.1953 9
    endloop
  endfacet
  facet normal -0 0 1
    outer loop
      vertex -8.86552 11.3474 9
      vertex -6.40288 8.1953 9
      vertex -8.05237 11.9381 9
    endloop
  endfacet
  facet normal 0 0 1
    outer loop
      vertex -6.40288 8.1953 9
      vertex -8.86552 11.3474 9
      vertex -6.95895 7.7287 9
    endloop
  endfacet
  facet normal -0 0 1
    outer loop
      vertex -9.63547 10.7013 9
      vertex -6.95895 7.7287 9
      vertex -8.86552 11.3474 9
    endloop
  endfacet
  facet normal 0 0 1
    outer loop
      vertex -6.95895 7.7287 9
      vertex -9.63547 10.7013 9
      vertex -7.48112 7.22444 9
    endloop
  endfacet
  facet normal -0 0 1
    outer loop
      vertex -10.3585 10.0031 9
      vertex -7.48112 7.22444 9
      vertex -9.63547 10.7013 9
    endloop
  endfacet
  facet normal 0 0 1
    outer loop
      vertex -7.48112 7.22444 9
      vertex -10.3585 10.0031 9
      vertex -7.96686 6.68498 9
    endloop
  endfacet
  facet normal -0 0 1
    outer loop
      vertex -11.031 9.25613 9
      vertex -7.96686 6.68498 9
      vertex -10.3585 10.0031 9
    endloop
  endfacet
  facet normal 0 0 1
    outer loop
      vertex -7.96686 6.68498 9
      vertex -11.031 9.25613 9
      vertex -8.41377 6.11296 9
    endloop
  endfacet
  facet normal -0 0 1
    outer loop
      vertex -11.6498 8.4641 9
      vertex -8.41377 6.11296 9
      vertex -11.031 9.25613 9
    endloop
  endfacet
  facet normal 0 0 1
    outer loop
      vertex -8.41377 6.11296 9
      vertex -11.6498 8.4641 9
      vertex -8.81969 5.51115 9
    endloop
  endfacet
  facet normal -0 0 1
    outer loop
      vertex -12.2119 7.63083 9
      vertex -8.81969 5.51115 9
      vertex -11.6498 8.4641 9
    endloop
  endfacet
  facet normal -0 0 1
    outer loop
      vertex -12.5761 7 9
      vertex -8.81969 5.51115 9
      vertex -12.2119 7.63083 9
    endloop
  endfacet
  facet normal 0 0 1
    outer loop
      vertex -8.81969 5.51115 9
      vertex -12.5761 7 9
      vertex -9.18265 4.88249 9
    endloop
  endfacet
  facet normal 0 0 1
    outer loop
      vertex -9.18265 4.88249 9
      vertex -12.5761 7 9
      vertex -9.50087 4.23006 9
    endloop
  endfacet
  facet normal 0 0 1
    outer loop
      vertex -9.50087 4.23006 9
      vertex -12.5761 7 9
      vertex -9.7728 3.55701 9
    endloop
  endfacet
  facet normal 0 0 1
    outer loop
      vertex -9.7728 3.55701 9
      vertex -12.5761 7 9
      vertex -9.99712 2.86662 9
    endloop
  endfacet
  facet normal 0 0 1
    outer loop
      vertex -9.99712 2.86662 9
      vertex -12.5761 7 9
      vertex -10.1727 2.16228 9
    endloop
  endfacet
  facet normal 0 0 1
    outer loop
      vertex -10.1727 2.16228 9
      vertex -12.5761 7 9
      vertex -10.2988 1.44739 9
    endloop
  endfacet
  facet normal 0 0 1
    outer loop
      vertex -21 0 9
      vertex -10.2988 1.44739 9
      vertex -12.5761 7 9
    endloop
  endfacet
  facet normal 0 0 1
    outer loop
      vertex -10.2988 1.44739 9
      vertex -21 0 9
      vertex -10.3747 0.725464 9
    endloop
  endfacet
  facet normal 0 0 1
    outer loop
      vertex -21 0 9
      vertex -12.5761 7 9
      vertex -21 7 9
    endloop
  endfacet
  facet normal 0 0 1
    outer loop
      vertex -10.3747 0.725464 9
      vertex -21 0 9
      vertex -10.4 0 9
    endloop
  endfacet
  facet normal 0.994519 -0.104559 0
    outer loop
      vertex -10.3747 0.725464 9
      vertex -10.2988 1.44739 0
      vertex -10.2988 1.44739 9
    endloop
  endfacet
  facet normal 0.994519 -0.104559 0
    outer loop
      vertex -10.2988 1.44739 0
      vertex -10.3747 0.725464 9
      vertex -10.3747 0.725464 0
    endloop
  endfacet
  facet normal 0.984797 -0.173709 0
    outer loop
      vertex -10.2988 1.44739 9
      vertex -10.1727 2.16228 0
      vertex -10.1727 2.16228 9
    endloop
  endfacet
  facet normal 0.984797 -0.173709 0
    outer loop
      vertex -10.1727 2.16228 0
      vertex -10.2988 1.44739 9
      vertex -10.2988 1.44739 0
    endloop
  endfacet
  facet normal 0.970306 -0.241881 0
    outer loop
      vertex -10.1727 2.16228 9
      vertex -9.99712 2.86662 0
      vertex -9.99712 2.86662 9
    endloop
  endfacet
  facet normal 0.970306 -0.241881 0
    outer loop
      vertex -9.99712 2.86662 0
      vertex -10.1727 2.16228 9
      vertex -10.1727 2.16228 0
    endloop
  endfacet
  facet normal 0.951057 -0.309015 0
    outer loop
      vertex -9.99712 2.86662 9
      vertex -9.7728 3.55701 0
      vertex -9.7728 3.55701 9
    endloop
  endfacet
  facet normal 0.951057 -0.309015 0
    outer loop
      vertex -9.7728 3.55701 0
      vertex -9.99712 2.86662 9
      vertex -9.99712 2.86662 0
    endloop
  endfacet
  facet normal 0.927184 -0.374607 0
    outer loop
      vertex -9.7728 3.55701 9
      vertex -9.50087 4.23006 0
      vertex -9.50087 4.23006 9
    endloop
  endfacet
  facet normal 0.927184 -0.374607 0
    outer loop
      vertex -9.50087 4.23006 0
      vertex -9.7728 3.55701 9
      vertex -9.7728 3.55701 0
    endloop
  endfacet
  facet normal 0.898789 -0.438381 0
    outer loop
      vertex -9.50087 4.23006 9
      vertex -9.18265 4.88249 0
      vertex -9.18265 4.88249 9
    endloop
  endfacet
  facet normal 0.898789 -0.438381 0
    outer loop
      vertex -9.18265 4.88249 0
      vertex -9.50087 4.23006 9
      vertex -9.50087 4.23006 0
    endloop
  endfacet
  facet normal 0.866024 -0.500003 0
    outer loop
      vertex -9.18265 4.88249 9
      vertex -8.81969 5.51115 0
      vertex -8.81969 5.51115 9
    endloop
  endfacet
  facet normal 0.866024 -0.500003 0
    outer loop
      vertex -8.81969 5.51115 0
      vertex -9.18265 4.88249 9
      vertex -9.18265 4.88249 0
    endloop
  endfacet
  facet normal 0.829041 -0.559187 0
    outer loop
      vertex -8.81969 5.51115 9
      vertex -8.41377 6.11296 0
      vertex -8.41377 6.11296 9
    endloop
  endfacet
  facet normal 0.829041 -0.559187 0
    outer loop
      vertex -8.41377 6.11296 0
      vertex -8.81969 5.51115 9
      vertex -8.81969 5.51115 0
    endloop
  endfacet
  facet normal 0.788011 -0.615661 0
    outer loop
      vertex -8.41377 6.11296 9
      vertex -7.96686 6.68498 0
      vertex -7.96686 6.68498 9
    endloop
  endfacet
  facet normal 0.788011 -0.615661 0
    outer loop
      vertex -7.96686 6.68498 0
      vertex -8.41377 6.11296 9
      vertex -8.41377 6.11296 0
    endloop
  endfacet
  facet normal 0.743139 -0.669137 0
    outer loop
      vertex -7.96686 6.68498 9
      vertex -7.48112 7.22444 0
      vertex -7.48112 7.22444 9
    endloop
  endfacet
  facet normal 0.743139 -0.669137 0
    outer loop
      vertex -7.48112 7.22444 0
      vertex -7.96686 6.68498 9
      vertex -7.96686 6.68498 0
    endloop
  endfacet
  facet normal 0.694663 -0.719335 0
    outer loop
      vertex -7.48112 7.22444 0
      vertex -6.95895 7.7287 9
      vertex -7.48112 7.22444 9
    endloop
  endfacet
  facet normal 0.694663 -0.719335 0
    outer loop
      vertex -6.95895 7.7287 9
      vertex -7.48112 7.22444 0
      vertex -6.95895 7.7287 0
    endloop
  endfacet
  facet normal 0.642789 -0.766043 0
    outer loop
      vertex -6.95895 7.7287 0
      vertex -6.40288 8.1953 9
      vertex -6.95895 7.7287 9
    endloop
  endfacet
  facet normal 0.642789 -0.766043 0
    outer loop
      vertex -6.40288 8.1953 9
      vertex -6.95895 7.7287 0
      vertex -6.40288 8.1953 0
    endloop
  endfacet
  facet normal 0.587782 -0.80902 0
    outer loop
      vertex -6.40288 8.1953 0
      vertex -5.8156 8.62198 9
      vertex -6.40288 8.1953 9
    endloop
  endfacet
  facet normal 0.587782 -0.80902 0
    outer loop
      vertex -5.8156 8.62198 9
      vertex -6.40288 8.1953 0
      vertex -5.8156 8.62198 0
    endloop
  endfacet
  facet normal 0.52992 -0.848048 0
    outer loop
      vertex -5.8156 8.62198 0
      vertex -5.2 9.00665 9
      vertex -5.8156 8.62198 9
    endloop
  endfacet
  facet normal 0.52992 -0.848048 0
    outer loop
      vertex -5.2 9.00665 9
      vertex -5.8156 8.62198 0
      vertex -5.2 9.00665 0
    endloop
  endfacet
  facet normal 0.469483 -0.882941 0
    outer loop
      vertex -5.2 9.00665 0
      vertex -4.55905 9.34746 9
      vertex -5.2 9.00665 9
    endloop
  endfacet
  facet normal 0.469483 -0.882941 0
    outer loop
      vertex -4.55905 9.34746 9
      vertex -5.2 9.00665 0
      vertex -4.55905 9.34746 0
    endloop
  endfacet
  facet normal 0.406721 -0.913552 0
    outer loop
      vertex -4.55905 9.34746 0
      vertex -3.8959 9.6427 9
      vertex -4.55905 9.34746 9
    endloop
  endfacet
  facet normal 0.406721 -0.913552 0
    outer loop
      vertex -3.8959 9.6427 9
      vertex -4.55905 9.34746 0
      vertex -3.8959 9.6427 0
    endloop
  endfacet
  facet normal 0.342031 -0.939689 0
    outer loop
      vertex -3.8959 9.6427 0
      vertex -3.21378 9.89098 9
      vertex -3.8959 9.6427 9
    endloop
  endfacet
  facet normal 0.342031 -0.939689 0
    outer loop
      vertex -3.21378 9.89098 9
      vertex -3.8959 9.6427 0
      vertex -3.21378 9.89098 0
    endloop
  endfacet
  facet normal 0.275674 -0.961251 0
    outer loop
      vertex -3.21378 9.89098 0
      vertex -2.51598 10.0911 9
      vertex -3.21378 9.89098 9
    endloop
  endfacet
  facet normal 0.275674 -0.961251 0
    outer loop
      vertex -2.51598 10.0911 9
      vertex -3.21378 9.89098 0
      vertex -2.51598 10.0911 0
    endloop
  endfacet
  facet normal 0.207881 -0.978154 0
    outer loop
      vertex -2.51598 10.0911 0
      vertex -1.80594 10.242 9
      vertex -2.51598 10.0911 9
    endloop
  endfacet
  facet normal 0.207881 -0.978154 0
    outer loop
      vertex -1.80594 10.242 9
      vertex -2.51598 10.0911 0
      vertex -1.80594 10.242 0
    endloop
  endfacet
  facet normal 0.139134 -0.990274 0
    outer loop
      vertex -1.80594 10.242 0
      vertex -1.08708 10.343 9
      vertex -1.80594 10.242 9
    endloop
  endfacet
  facet normal 0.139134 -0.990274 0
    outer loop
      vertex -1.08708 10.343 9
      vertex -1.80594 10.242 0
      vertex -1.08708 10.343 0
    endloop
  endfacet
  facet normal 0.0698437 -0.997558 0
    outer loop
      vertex -1.08708 10.343 0
      vertex -0.362946 10.3937 9
      vertex -1.08708 10.343 9
    endloop
  endfacet
  facet normal 0.0698437 -0.997558 0
    outer loop
      vertex -0.362946 10.3937 9
      vertex -1.08708 10.343 0
      vertex -0.362946 10.3937 0
    endloop
  endfacet
  facet normal 0 -1 0
    outer loop
      vertex -0.362946 10.3937 0
      vertex 0.362946 10.3937 9
      vertex -0.362946 10.3937 9
    endloop
  endfacet
  facet normal 0 -1 -0
    outer loop
      vertex 0.362946 10.3937 9
      vertex -0.362946 10.3937 0
      vertex 0.362946 10.3937 0
    endloop
  endfacet
  facet normal -0.0698437 -0.997558 0
    outer loop
      vertex 0.362946 10.3937 0
      vertex 1.08708 10.343 9
      vertex 0.362946 10.3937 9
    endloop
  endfacet
  facet normal -0.0698437 -0.997558 -0
    outer loop
      vertex 1.08708 10.343 9
      vertex 0.362946 10.3937 0
      vertex 1.08708 10.343 0
    endloop
  endfacet
  facet normal -0.139134 -0.990274 0
    outer loop
      vertex 1.08708 10.343 0
      vertex 1.80594 10.242 9
      vertex 1.08708 10.343 9
    endloop
  endfacet
  facet normal -0.139134 -0.990274 -0
    outer loop
      vertex 1.80594 10.242 9
      vertex 1.08708 10.343 0
      vertex 1.80594 10.242 0
    endloop
  endfacet
  facet normal -0.207881 -0.978154 0
    outer loop
      vertex 1.80594 10.242 0
      vertex 2.51598 10.0911 9
      vertex 1.80594 10.242 9
    endloop
  endfacet
  facet normal -0.207881 -0.978154 -0
    outer loop
      vertex 2.51598 10.0911 9
      vertex 1.80594 10.242 0
      vertex 2.51598 10.0911 0
    endloop
  endfacet
  facet normal -0.275674 -0.961251 0
    outer loop
      vertex 2.51598 10.0911 0
      vertex 3.21378 9.89098 9
      vertex 2.51598 10.0911 9
    endloop
  endfacet
  facet normal -0.275674 -0.961251 -0
    outer loop
      vertex 3.21378 9.89098 9
      vertex 2.51598 10.0911 0
      vertex 3.21378 9.89098 0
    endloop
  endfacet
  facet normal -0.342031 -0.939689 0
    outer loop
      vertex 3.21378 9.89098 0
      vertex 3.8959 9.6427 9
      vertex 3.21378 9.89098 9
    endloop
  endfacet
  facet normal -0.342031 -0.939689 -0
    outer loop
      vertex 3.8959 9.6427 9
      vertex 3.21378 9.89098 0
      vertex 3.8959 9.6427 0
    endloop
  endfacet
  facet normal -0.406721 -0.913552 0
    outer loop
      vertex 3.8959 9.6427 0
      vertex 4.55905 9.34746 9
      vertex 3.8959 9.6427 9
    endloop
  endfacet
  facet normal -0.406721 -0.913552 -0
    outer loop
      vertex 4.55905 9.34746 9
      vertex 3.8959 9.6427 0
      vertex 4.55905 9.34746 0
    endloop
  endfacet
  facet normal -0.469483 -0.882941 0
    outer loop
      vertex 4.55905 9.34746 0
      vertex 5.2 9.00665 9
      vertex 4.55905 9.34746 9
    endloop
  endfacet
  facet normal -0.469483 -0.882941 -0
    outer loop
      vertex 5.2 9.00665 9
      vertex 4.55905 9.34746 0
      vertex 5.2 9.00665 0
    endloop
  endfacet
  facet normal -0.52992 -0.848048 0
    outer loop
      vertex 5.2 9.00665 0
      vertex 5.8156 8.62198 9
      vertex 5.2 9.00665 9
    endloop
  endfacet
  facet normal -0.52992 -0.848048 -0
    outer loop
      vertex 5.8156 8.62198 9
      vertex 5.2 9.00665 0
      vertex 5.8156 8.62198 0
    endloop
  endfacet
  facet normal -0.587782 -0.80902 0
    outer loop
      vertex 5.8156 8.62198 0
      vertex 6.40288 8.1953 9
      vertex 5.8156 8.62198 9
    endloop
  endfacet
  facet normal -0.587782 -0.80902 -0
    outer loop
      vertex 6.40288 8.1953 9
      vertex 5.8156 8.62198 0
      vertex 6.40288 8.1953 0
    endloop
  endfacet
  facet normal -0.642789 -0.766043 0
    outer loop
      vertex 6.40288 8.1953 0
      vertex 6.95895 7.7287 9
      vertex 6.40288 8.1953 9
    endloop
  endfacet
  facet normal -0.642789 -0.766043 -0
    outer loop
      vertex 6.95895 7.7287 9
      vertex 6.40288 8.1953 0
      vertex 6.95895 7.7287 0
    endloop
  endfacet
  facet normal -0.694663 -0.719335 0
    outer loop
      vertex 6.95895 7.7287 0
      vertex 7.48112 7.22444 9
      vertex 6.95895 7.7287 9
    endloop
  endfacet
  facet normal -0.694663 -0.719335 -0
    outer loop
      vertex 7.48112 7.22444 9
      vertex 6.95895 7.7287 0
      vertex 7.48112 7.22444 0
    endloop
  endfacet
  facet normal -0.743139 -0.669137 0
    outer loop
      vertex 7.96686 6.68498 0
      vertex 7.48112 7.22444 9
      vertex 7.48112 7.22444 0
    endloop
  endfacet
  facet normal -0.743139 -0.669137 0
    outer loop
      vertex 7.48112 7.22444 9
      vertex 7.96686 6.68498 0
      vertex 7.96686 6.68498 9
    endloop
  endfacet
  facet normal -0.788011 -0.615661 0
    outer loop
      vertex 8.41377 6.11296 0
      vertex 7.96686 6.68498 9
      vertex 7.96686 6.68498 0
    endloop
  endfacet
  facet normal -0.788011 -0.615661 0
    outer loop
      vertex 7.96686 6.68498 9
      vertex 8.41377 6.11296 0
      vertex 8.41377 6.11296 9
    endloop
  endfacet
  facet normal -0.829041 -0.559187 0
    outer loop
      vertex 8.81969 5.51115 0
      vertex 8.41377 6.11296 9
      vertex 8.41377 6.11296 0
    endloop
  endfacet
  facet normal -0.829041 -0.559187 0
    outer loop
      vertex 8.41377 6.11296 9
      vertex 8.81969 5.51115 0
      vertex 8.81969 5.51115 9
    endloop
  endfacet
  facet normal -0.866024 -0.500003 0
    outer loop
      vertex 9.18265 4.88249 0
      vertex 8.81969 5.51115 9
      vertex 8.81969 5.51115 0
    endloop
  endfacet
  facet normal -0.866024 -0.500003 0
    outer loop
      vertex 8.81969 5.51115 9
      vertex 9.18265 4.88249 0
      vertex 9.18265 4.88249 9
    endloop
  endfacet
  facet normal -0.898789 -0.438381 0
    outer loop
      vertex 9.50087 4.23006 0
      vertex 9.18265 4.88249 9
      vertex 9.18265 4.88249 0
    endloop
  endfacet
  facet normal -0.898789 -0.438381 0
    outer loop
      vertex 9.18265 4.88249 9
      vertex 9.50087 4.23006 0
      vertex 9.50087 4.23006 9
    endloop
  endfacet
  facet normal -0.927184 -0.374607 0
    outer loop
      vertex 9.7728 3.55701 0
      vertex 9.50087 4.23006 9
      vertex 9.50087 4.23006 0
    endloop
  endfacet
  facet normal -0.927184 -0.374607 0
    outer loop
      vertex 9.50087 4.23006 9
      vertex 9.7728 3.55701 0
      vertex 9.7728 3.55701 9
    endloop
  endfacet
  facet normal -0.951057 -0.309015 0
    outer loop
      vertex 9.99712 2.86662 0
      vertex 9.7728 3.55701 9
      vertex 9.7728 3.55701 0
    endloop
  endfacet
  facet normal -0.951057 -0.309015 0
    outer loop
      vertex 9.7728 3.55701 9
      vertex 9.99712 2.86662 0
      vertex 9.99712 2.86662 9
    endloop
  endfacet
  facet normal -0.970306 -0.241881 0
    outer loop
      vertex 10.1727 2.16228 0
      vertex 9.99712 2.86662 9
      vertex 9.99712 2.86662 0
    endloop
  endfacet
  facet normal -0.970306 -0.241881 0
    outer loop
      vertex 9.99712 2.86662 9
      vertex 10.1727 2.16228 0
      vertex 10.1727 2.16228 9
    endloop
  endfacet
  facet normal -0.984797 -0.173709 0
    outer loop
      vertex 10.2988 1.44739 0
      vertex 10.1727 2.16228 9
      vertex 10.1727 2.16228 0
    endloop
  endfacet
  facet normal -0.984797 -0.173709 0
    outer loop
      vertex 10.1727 2.16228 9
      vertex 10.2988 1.44739 0
      vertex 10.2988 1.44739 9
    endloop
  endfacet
  facet normal -0.994519 -0.104559 0
    outer loop
      vertex 10.3747 0.725464 0
      vertex 10.2988 1.44739 9
      vertex 10.2988 1.44739 0
    endloop
  endfacet
  facet normal -0.994519 -0.104559 0
    outer loop
      vertex 10.2988 1.44739 9
      vertex 10.3747 0.725464 0
      vertex 10.3747 0.725464 9
    endloop
  endfacet
  facet normal -0.999392 -0.034853 0
    outer loop
      vertex 10.4 0 0
      vertex 10.3747 0.725464 9
      vertex 10.3747 0.725464 0
    endloop
  endfacet
  facet normal -0.999392 -0.034853 0
    outer loop
      vertex 10.3747 0.725464 9
      vertex 10.4 0 0
      vertex 10.4 0 9
    endloop
  endfacet
  facet normal 0 -1 0
    outer loop
      vertex 17.1149 0 6.04278
      vertex 21 0 9
      vertex 10.4 0 9
    endloop
  endfacet
  facet normal 0 -1 0
    outer loop
      vertex 21 0 9
      vertex 17.1149 0 6.04278
      vertex 17.5011 0 6.13797
    endloop
  endfacet
  facet normal 0 -1 0
    outer loop
      vertex 10.4 0 9
      vertex 16.7627 0 5.85792
      vertex 17.1149 0 6.04278
    endloop
  endfacet
  facet normal 0 -1 0
    outer loop
      vertex 10.4 0 9
      vertex 16.465 0 5.59415
      vertex 16.7627 0 5.85792
    endloop
  endfacet
  facet normal 0 -1 0
    outer loop
      vertex 10.4 0 9
      vertex 16.239 0 5.26679
      vertex 16.465 0 5.59415
    endloop
  endfacet
  facet normal 0 -1 0
    outer loop
      vertex 10.4 0 9
      vertex 16.0979 0 4.89487
      vertex 16.239 0 5.26679
    endloop
  endfacet
  facet normal 0 -1 0
    outer loop
      vertex 10.4 0 9
      vertex 16.05 0 4.5
      vertex 16.0979 0 4.89487
    endloop
  endfacet
  facet normal 0 -1 0
    outer loop
      vertex 10.4 0 0
      vertex 16.05 0 4.5
      vertex 10.4 0 9
    endloop
  endfacet
  facet normal 0 -1 -0
    outer loop
      vertex 16.05 0 4.5
      vertex 10.4 0 0
      vertex 16.0979 0 4.10513
    endloop
  endfacet
  facet normal 0 -1 -0
    outer loop
      vertex 16.0979 0 4.10513
      vertex 10.4 0 0
      vertex 16.239 0 3.73321
    endloop
  endfacet
  facet normal 0 -1 0
    outer loop
      vertex 17.1149 0 2.95722
      vertex 21 0 0
      vertex 17.5011 0 2.86203
    endloop
  endfacet
  facet normal 0 -1 0
    outer loop
      vertex 21 0 0
      vertex 17.1149 0 2.95722
      vertex 10.4 0 0
    endloop
  endfacet
  facet normal 0 -1 -0
    outer loop
      vertex 16.7627 0 3.14208
      vertex 10.4 0 0
      vertex 17.1149 0 2.95722
    endloop
  endfacet
  facet normal 0 -1 -0
    outer loop
      vertex 16.465 0 3.40585
      vertex 10.4 0 0
      vertex 16.7627 0 3.14208
    endloop
  endfacet
  facet normal 0 -1 -0
    outer loop
      vertex 16.239 0 3.73321
      vertex 10.4 0 0
      vertex 16.465 0 3.40585
    endloop
  endfacet
  facet normal 0 -1 0
    outer loop
      vertex 17.8989 0 6.13797
      vertex 21 0 9
      vertex 17.5011 0 6.13797
    endloop
  endfacet
  facet normal 0 -1 0
    outer loop
      vertex 18.2851 0 6.04278
      vertex 21 0 9
      vertex 17.8989 0 6.13797
    endloop
  endfacet
  facet normal 0 -1 0
    outer loop
      vertex 18.6373 0 5.85792
      vertex 21 0 9
      vertex 18.2851 0 6.04278
    endloop
  endfacet
  facet normal 0 -1 0
    outer loop
      vertex 18.935 0 5.59415
      vertex 21 0 9
      vertex 18.6373 0 5.85792
    endloop
  endfacet
  facet normal 0 -1 0
    outer loop
      vertex 19.161 0 5.26679
      vertex 21 0 9
      vertex 18.935 0 5.59415
    endloop
  endfacet
  facet normal 0 -1 0
    outer loop
      vertex 19.3021 0 4.89487
      vertex 21 0 9
      vertex 19.161 0 5.26679
    endloop
  endfacet
  facet normal 0 -1 0
    outer loop
      vertex 19.35 0 4.5
      vertex 21 0 9
      vertex 19.3021 0 4.89487
    endloop
  endfacet
  facet normal 0 -1 0
    outer loop
      vertex 21 0 0
      vertex 19.35 0 4.5
      vertex 19.3021 0 4.10513
    endloop
  endfacet
  facet normal 0 -1 0
    outer loop
      vertex 17.5011 0 2.86203
      vertex 21 0 0
      vertex 17.8989 0 2.86203
    endloop
  endfacet
  facet normal 0 -1 0
    outer loop
      vertex 19.35 0 4.5
      vertex 21 0 0
      vertex 21 0 9
    endloop
  endfacet
  facet normal 0 -1 0
    outer loop
      vertex 19.161 0 3.73321
      vertex 21 0 0
      vertex 19.3021 0 4.10513
    endloop
  endfacet
  facet normal 0 -1 0
    outer loop
      vertex 18.935 0 3.40585
      vertex 21 0 0
      vertex 19.161 0 3.73321
    endloop
  endfacet
  facet normal 0 -1 0
    outer loop
      vertex 18.6373 0 3.14208
      vertex 21 0 0
      vertex 18.935 0 3.40585
    endloop
  endfacet
  facet normal 0 -1 0
    outer loop
      vertex 18.2851 0 2.95722
      vertex 21 0 0
      vertex 18.6373 0 3.14208
    endloop
  endfacet
  facet normal 0 -1 0
    outer loop
      vertex 17.8989 0 2.86203
      vertex 21 0 0
      vertex 18.2851 0 2.95722
    endloop
  endfacet
  facet normal 1 -0 0
    outer loop
      vertex 21 0 9
      vertex 21 7 0
      vertex 21 7 9
    endloop
  endfacet
  facet normal 1 0 0
    outer loop
      vertex 21 7 0
      vertex 21 0 9
      vertex 21 0 0
    endloop
  endfacet
  facet normal 0 1 0
    outer loop
      vertex 17.5011 7 6.13797
      vertex 21 7 9
      vertex 17.8989 7 6.13797
    endloop
  endfacet
  facet normal 0 1 0
    outer loop
      vertex 21 7 9
      vertex 18.2851 7 6.04278
      vertex 17.8989 7 6.13797
    endloop
  endfacet
  facet normal 0 1 0
    outer loop
      vertex 21 7 9
      vertex 18.6373 7 5.85792
      vertex 18.2851 7 6.04278
    endloop
  endfacet
  facet normal 0 1 0
    outer loop
      vertex 21 7 9
      vertex 18.935 7 5.59415
      vertex 18.6373 7 5.85792
    endloop
  endfacet
  facet normal 0 1 0
    outer loop
      vertex 21 7 9
      vertex 19.161 7 5.26679
      vertex 18.935 7 5.59415
    endloop
  endfacet
  facet normal 0 1 0
    outer loop
      vertex 21 7 9
      vertex 19.3021 7 4.89487
      vertex 19.161 7 5.26679
    endloop
  endfacet
  facet normal 0 1 0
    outer loop
      vertex 21 7 9
      vertex 19.35 7 4.5
      vertex 19.3021 7 4.89487
    endloop
  endfacet
  facet normal 0 1 -0
    outer loop
      vertex 21 7 0
      vertex 19.35 7 4.5
      vertex 21 7 9
    endloop
  endfacet
  facet normal 0 1 0
    outer loop
      vertex 17.8989 7 2.86203
      vertex 21 7 0
      vertex 17.5011 7 2.86203
    endloop
  endfacet
  facet normal 0 1 0
    outer loop
      vertex 18.2851 7 2.95722
      vertex 21 7 0
      vertex 17.8989 7 2.86203
    endloop
  endfacet
  facet normal 0 1 0
    outer loop
      vertex 18.6373 7 3.14208
      vertex 21 7 0
      vertex 18.2851 7 2.95722
    endloop
  endfacet
  facet normal 0 1 0
    outer loop
      vertex 18.935 7 3.40585
      vertex 21 7 0
      vertex 18.6373 7 3.14208
    endloop
  endfacet
  facet normal 0 1 0
    outer loop
      vertex 19.161 7 3.73321
      vertex 21 7 0
      vertex 18.935 7 3.40585
    endloop
  endfacet
  facet normal 0 1 0
    outer loop
      vertex 19.3021 7 4.10513
      vertex 21 7 0
      vertex 19.161 7 3.73321
    endloop
  endfacet
  facet normal 0 1 0
    outer loop
      vertex 19.35 7 4.5
      vertex 21 7 0
      vertex 19.3021 7 4.10513
    endloop
  endfacet
  facet normal 0 1 0
    outer loop
      vertex 21 7 9
      vertex 17.5011 7 6.13797
      vertex 12.5761 7 9
    endloop
  endfacet
  facet normal 0 1 -0
    outer loop
      vertex 17.1149 7 6.04278
      vertex 12.5761 7 9
      vertex 17.5011 7 6.13797
    endloop
  endfacet
  facet normal 0 1 -0
    outer loop
      vertex 16.7627 7 5.85792
      vertex 12.5761 7 9
      vertex 17.1149 7 6.04278
    endloop
  endfacet
  facet normal 0 1 -0
    outer loop
      vertex 16.465 7 5.59415
      vertex 12.5761 7 9
      vertex 16.7627 7 5.85792
    endloop
  endfacet
  facet normal 0 1 -0
    outer loop
      vertex 16.239 7 5.26679
      vertex 12.5761 7 9
      vertex 16.465 7 5.59415
    endloop
  endfacet
  facet normal 0 1 -0
    outer loop
      vertex 16.0979 7 4.89487
      vertex 12.5761 7 9
      vertex 16.239 7 5.26679
    endloop
  endfacet
  facet normal 0 1 -0
    outer loop
      vertex 16.05 7 4.5
      vertex 12.5761 7 9
      vertex 16.0979 7 4.89487
    endloop
  endfacet
  facet normal 0 1 0
    outer loop
      vertex 12.5761 7 0
      vertex 16.05 7 4.5
      vertex 16.0979 7 4.10513
    endloop
  endfacet
  facet normal 0 1 0
    outer loop
      vertex 12.5761 7 0
      vertex 16.0979 7 4.10513
      vertex 16.239 7 3.73321
    endloop
  endfacet
  facet normal 0 1 0
    outer loop
      vertex 12.5761 7 0
      vertex 16.239 7 3.73321
      vertex 16.465 7 3.40585
    endloop
  endfacet
  facet normal 0 1 0
    outer loop
      vertex 12.5761 7 0
      vertex 17.5011 7 2.86203
      vertex 21 7 0
    endloop
  endfacet
  facet normal 0 1 0
    outer loop
      vertex 17.5011 7 2.86203
      vertex 12.5761 7 0
      vertex 17.1149 7 2.95722
    endloop
  endfacet
  facet normal 0 1 0
    outer loop
      vertex 16.05 7 4.5
      vertex 12.5761 7 0
      vertex 12.5761 7 9
    endloop
  endfacet
  facet normal 0 1 0
    outer loop
      vertex 16.7627 7 3.14208
      vertex 12.5761 7 0
      vertex 16.465 7 3.40585
    endloop
  endfacet
  facet normal 0 1 0
    outer loop
      vertex 17.1149 7 2.95722
      vertex 12.5761 7 0
      vertex 16.7627 7 3.14208
    endloop
  endfacet
  facet normal 0.866031 0.49999 0
    outer loop
      vertex 12.5761 7 9
      vertex 12.2119 7.63083 0
      vertex 12.2119 7.63083 9
    endloop
  endfacet
  facet normal 0.866031 0.49999 0
    outer loop
      vertex 12.2119 7.63083 0
      vertex 12.5761 7 9
      vertex 12.5761 7 0
    endloop
  endfacet
  facet normal 0.829013 0.559229 0
    outer loop
      vertex 12.2119 7.63083 9
      vertex 11.6498 8.4641 0
      vertex 11.6498 8.4641 9
    endloop
  endfacet
  facet normal 0.829013 0.559229 0
    outer loop
      vertex 11.6498 8.4641 0
      vertex 12.2119 7.63083 9
      vertex 12.2119 7.63083 0
    endloop
  endfacet
  facet normal 0.788012 0.61566 0
    outer loop
      vertex 11.6498 8.4641 9
      vertex 11.031 9.25613 0
      vertex 11.031 9.25613 9
    endloop
  endfacet
  facet normal 0.788012 0.61566 0
    outer loop
      vertex 11.031 9.25613 0
      vertex 11.6498 8.4641 9
      vertex 11.6498 8.4641 0
    endloop
  endfacet
  facet normal 0.743182 0.66909 0
    outer loop
      vertex 11.031 9.25613 9
      vertex 10.3585 10.0031 0
      vertex 10.3585 10.0031 9
    endloop
  endfacet
  facet normal 0.743182 0.66909 0
    outer loop
      vertex 10.3585 10.0031 0
      vertex 11.031 9.25613 9
      vertex 11.031 9.25613 0
    endloop
  endfacet
  facet normal 0.694647 0.719351 -0
    outer loop
      vertex 10.3585 10.0031 0
      vertex 9.63547 10.7013 9
      vertex 10.3585 10.0031 9
    endloop
  endfacet
  facet normal 0.694647 0.719351 0
    outer loop
      vertex 9.63547 10.7013 9
      vertex 10.3585 10.0031 0
      vertex 9.63547 10.7013 0
    endloop
  endfacet
  facet normal 0.642808 0.766027 -0
    outer loop
      vertex 9.63547 10.7013 0
      vertex 8.86552 11.3474 9
      vertex 9.63547 10.7013 9
    endloop
  endfacet
  facet normal 0.642808 0.766027 0
    outer loop
      vertex 8.86552 11.3474 9
      vertex 9.63547 10.7013 0
      vertex 8.86552 11.3474 0
    endloop
  endfacet
  facet normal 0.587728 0.809059 -0
    outer loop
      vertex 8.86552 11.3474 0
      vertex 8.05237 11.9381 9
      vertex 8.86552 11.3474 9
    endloop
  endfacet
  facet normal 0.587728 0.809059 0
    outer loop
      vertex 8.05237 11.9381 9
      vertex 8.86552 11.3474 0
      vertex 8.05237 11.9381 0
    endloop
  endfacet
  facet normal 0.529977 0.848012 -0
    outer loop
      vertex 8.05237 11.9381 0
      vertex 7.2 12.4708 9
      vertex 8.05237 11.9381 9
    endloop
  endfacet
  facet normal 0.529977 0.848012 0
    outer loop
      vertex 7.2 12.4708 9
      vertex 8.05237 11.9381 0
      vertex 7.2 12.4708 0
    endloop
  endfacet
  facet normal 0.469412 0.882979 -0
    outer loop
      vertex 7.2 12.4708 0
      vertex 6.31253 12.9426 9
      vertex 7.2 12.4708 9
    endloop
  endfacet
  facet normal 0.469412 0.882979 0
    outer loop
      vertex 6.31253 12.9426 9
      vertex 7.2 12.4708 0
      vertex 6.31253 12.9426 0
    endloop
  endfacet
  facet normal 0.406729 0.913549 -0
    outer loop
      vertex 6.31253 12.9426 0
      vertex 5.39433 13.3514 9
      vertex 6.31253 12.9426 9
    endloop
  endfacet
  facet normal 0.406729 0.913549 0
    outer loop
      vertex 5.39433 13.3514 9
      vertex 6.31253 12.9426 0
      vertex 5.39433 13.3514 0
    endloop
  endfacet
  facet normal 0.34205 0.939682 -0
    outer loop
      vertex 5.39433 13.3514 0
      vertex 4.44984 13.6952 9
      vertex 5.39433 13.3514 9
    endloop
  endfacet
  facet normal 0.34205 0.939682 0
    outer loop
      vertex 4.44984 13.6952 9
      vertex 5.39433 13.3514 0
      vertex 4.44984 13.6952 0
    endloop
  endfacet
  facet normal 0.275596 0.961274 -0
    outer loop
      vertex 4.44984 13.6952 0
      vertex 3.48367 13.9722 9
      vertex 4.44984 13.6952 9
    endloop
  endfacet
  facet normal 0.275596 0.961274 0
    outer loop
      vertex 3.48367 13.9722 9
      vertex 4.44984 13.6952 0
      vertex 3.48367 13.9722 0
    endloop
  endfacet
  facet normal 0.207936 0.978143 -0
    outer loop
      vertex 3.48367 13.9722 0
      vertex 2.50052 14.1812 9
      vertex 3.48367 13.9722 9
    endloop
  endfacet
  facet normal 0.207936 0.978143 0
    outer loop
      vertex 2.50052 14.1812 9
      vertex 3.48367 13.9722 0
      vertex 2.50052 14.1812 0
    endloop
  endfacet
  facet normal 0.13919 0.990266 -0
    outer loop
      vertex 2.50052 14.1812 0
      vertex 1.5052 14.3211 9
      vertex 2.50052 14.1812 9
    endloop
  endfacet
  facet normal 0.13919 0.990266 0
    outer loop
      vertex 1.5052 14.3211 9
      vertex 2.50052 14.1812 0
      vertex 1.5052 14.3211 0
    endloop
  endfacet
  facet normal 0.0697443 0.997565 -0
    outer loop
      vertex 1.5052 14.3211 0
      vertex 0.502548 14.3912 9
      vertex 1.5052 14.3211 9
    endloop
  endfacet
  facet normal 0.0697443 0.997565 0
    outer loop
      vertex 0.502548 14.3912 9
      vertex 1.5052 14.3211 0
      vertex 0.502548 14.3912 0
    endloop
  endfacet
  facet normal 0 1 -0
    outer loop
      vertex 0.502548 14.3912 0
      vertex -0.502548 14.3912 9
      vertex 0.502548 14.3912 9
    endloop
  endfacet
  facet normal 0 1 0
    outer loop
      vertex -0.502548 14.3912 9
      vertex 0.502548 14.3912 0
      vertex -0.502548 14.3912 0
    endloop
  endfacet
  facet normal -0.0697443 0.997565 0
    outer loop
      vertex -0.502548 14.3912 0
      vertex -1.5052 14.3211 9
      vertex -0.502548 14.3912 9
    endloop
  endfacet
  facet normal -0.0697443 0.997565 0
    outer loop
      vertex -1.5052 14.3211 9
      vertex -0.502548 14.3912 0
      vertex -1.5052 14.3211 0
    endloop
  endfacet
  facet normal -0.13919 0.990266 0
    outer loop
      vertex -1.5052 14.3211 0
      vertex -2.50052 14.1812 9
      vertex -1.5052 14.3211 9
    endloop
  endfacet
  facet normal -0.13919 0.990266 0
    outer loop
      vertex -2.50052 14.1812 9
      vertex -1.5052 14.3211 0
      vertex -2.50052 14.1812 0
    endloop
  endfacet
  facet normal -0.207936 0.978143 0
    outer loop
      vertex -2.50052 14.1812 0
      vertex -3.48367 13.9722 9
      vertex -2.50052 14.1812 9
    endloop
  endfacet
  facet normal -0.207936 0.978143 0
    outer loop
      vertex -3.48367 13.9722 9
      vertex -2.50052 14.1812 0
      vertex -3.48367 13.9722 0
    endloop
  endfacet
  facet normal -0.275596 0.961274 0
    outer loop
      vertex -3.48367 13.9722 0
      vertex -4.44984 13.6952 9
      vertex -3.48367 13.9722 9
    endloop
  endfacet
  facet normal -0.275596 0.961274 0
    outer loop
      vertex -4.44984 13.6952 9
      vertex -3.48367 13.9722 0
      vertex -4.44984 13.6952 0
    endloop
  endfacet
  facet normal -0.34205 0.939682 0
    outer loop
      vertex -4.44984 13.6952 0
      vertex -5.39433 13.3514 9
      vertex -4.44984 13.6952 9
    endloop
  endfacet
  facet normal -0.34205 0.939682 0
    outer loop
      vertex -5.39433 13.3514 9
      vertex -4.44984 13.6952 0
      vertex -5.39433 13.3514 0
    endloop
  endfacet
  facet normal -0.406729 0.913549 0
    outer loop
      vertex -5.39433 13.3514 0
      vertex -6.31253 12.9426 9
      vertex -5.39433 13.3514 9
    endloop
  endfacet
  facet normal -0.406729 0.913549 0
    outer loop
      vertex -6.31253 12.9426 9
      vertex -5.39433 13.3514 0
      vertex -6.31253 12.9426 0
    endloop
  endfacet
  facet normal -0.469412 0.882979 0
    outer loop
      vertex -6.31253 12.9426 0
      vertex -7.2 12.4708 9
      vertex -6.31253 12.9426 9
    endloop
  endfacet
  facet normal -0.469412 0.882979 0
    outer loop
      vertex -7.2 12.4708 9
      vertex -6.31253 12.9426 0
      vertex -7.2 12.4708 0
    endloop
  endfacet
  facet normal -0.529977 0.848012 0
    outer loop
      vertex -7.2 12.4708 0
      vertex -8.05237 11.9381 9
      vertex -7.2 12.4708 9
    endloop
  endfacet
  facet normal -0.529977 0.848012 0
    outer loop
      vertex -8.05237 11.9381 9
      vertex -7.2 12.4708 0
      vertex -8.05237 11.9381 0
    endloop
  endfacet
  facet normal -0.587728 0.809059 0
    outer loop
      vertex -8.05237 11.9381 0
      vertex -8.86552 11.3474 9
      vertex -8.05237 11.9381 9
    endloop
  endfacet
  facet normal -0.587728 0.809059 0
    outer loop
      vertex -8.86552 11.3474 9
      vertex -8.05237 11.9381 0
      vertex -8.86552 11.3474 0
    endloop
  endfacet
  facet normal -0.642808 0.766027 0
    outer loop
      vertex -8.86552 11.3474 0
      vertex -9.63547 10.7013 9
      vertex -8.86552 11.3474 9
    endloop
  endfacet
  facet normal -0.642808 0.766027 0
    outer loop
      vertex -9.63547 10.7013 9
      vertex -8.86552 11.3474 0
      vertex -9.63547 10.7013 0
    endloop
  endfacet
  facet normal -0.694647 0.719351 0
    outer loop
      vertex -9.63547 10.7013 0
      vertex -10.3585 10.0031 9
      vertex -9.63547 10.7013 9
    endloop
  endfacet
  facet normal -0.694647 0.719351 0
    outer loop
      vertex -10.3585 10.0031 9
      vertex -9.63547 10.7013 0
      vertex -10.3585 10.0031 0
    endloop
  endfacet
  facet normal -0.743182 0.66909 0
    outer loop
      vertex -11.031 9.25613 0
      vertex -10.3585 10.0031 9
      vertex -10.3585 10.0031 0
    endloop
  endfacet
  facet normal -0.743182 0.66909 0
    outer loop
      vertex -10.3585 10.0031 9
      vertex -11.031 9.25613 0
      vertex -11.031 9.25613 9
    endloop
  endfacet
  facet normal -0.788012 0.61566 0
    outer loop
      vertex -11.6498 8.4641 0
      vertex -11.031 9.25613 9
      vertex -11.031 9.25613 0
    endloop
  endfacet
  facet normal -0.788012 0.61566 0
    outer loop
      vertex -11.031 9.25613 9
      vertex -11.6498 8.4641 0
      vertex -11.6498 8.4641 9
    endloop
  endfacet
  facet normal -0.829013 0.559229 0
    outer loop
      vertex -12.2119 7.63083 0
      vertex -11.6498 8.4641 9
      vertex -11.6498 8.4641 0
    endloop
  endfacet
  facet normal -0.829013 0.559229 0
    outer loop
      vertex -11.6498 8.4641 9
      vertex -12.2119 7.63083 0
      vertex -12.2119 7.63083 9
    endloop
  endfacet
  facet normal -0.866031 0.49999 0
    outer loop
      vertex -12.5761 7 0
      vertex -12.2119 7.63083 9
      vertex -12.2119 7.63083 0
    endloop
  endfacet
  facet normal -0.866031 0.49999 0
    outer loop
      vertex -12.2119 7.63083 9
      vertex -12.5761 7 0
      vertex -12.5761 7 9
    endloop
  endfacet
  facet normal 0 1 0
    outer loop
      vertex -12.5761 7 9
      vertex -17.5011 7 6.13797
      vertex -21 7 9
    endloop
  endfacet
  facet normal 0 1 0
    outer loop
      vertex -12.5761 7 9
      vertex -17.1149 7 6.04278
      vertex -17.5011 7 6.13797
    endloop
  endfacet
  facet normal 0 1 0
    outer loop
      vertex -12.5761 7 9
      vertex -16.7627 7 5.85792
      vertex -17.1149 7 6.04278
    endloop
  endfacet
  facet normal 0 1 0
    outer loop
      vertex -12.5761 7 9
      vertex -16.465 7 5.59415
      vertex -16.7627 7 5.85792
    endloop
  endfacet
  facet normal 0 1 0
    outer loop
      vertex -12.5761 7 9
      vertex -16.239 7 5.26679
      vertex -16.465 7 5.59415
    endloop
  endfacet
  facet normal 0 1 0
    outer loop
      vertex -12.5761 7 9
      vertex -16.0979 7 4.89487
      vertex -16.239 7 5.26679
    endloop
  endfacet
  facet normal 0 1 0
    outer loop
      vertex -12.5761 7 9
      vertex -16.05 7 4.5
      vertex -16.0979 7 4.89487
    endloop
  endfacet
  facet normal 0 1 -0
    outer loop
      vertex -12.5761 7 0
      vertex -16.05 7 4.5
      vertex -12.5761 7 9
    endloop
  endfacet
  facet normal 0 1 0
    outer loop
      vertex -16.05 7 4.5
      vertex -12.5761 7 0
      vertex -16.0979 7 4.10513
    endloop
  endfacet
  facet normal 0 1 0
    outer loop
      vertex -16.0979 7 4.10513
      vertex -12.5761 7 0
      vertex -16.239 7 3.73321
    endloop
  endfacet
  facet normal 0 1 0
    outer loop
      vertex -21 7 0
      vertex -17.5011 7 2.86203
      vertex -12.5761 7 0
    endloop
  endfacet
  facet normal 0 1 0
    outer loop
      vertex -17.1149 7 2.95722
      vertex -12.5761 7 0
      vertex -17.5011 7 2.86203
    endloop
  endfacet
  facet normal 0 1 0
    outer loop
      vertex -16.7627 7 3.14208
      vertex -12.5761 7 0
      vertex -17.1149 7 2.95722
    endloop
  endfacet
  facet normal 0 1 0
    outer loop
      vertex -16.465 7 3.40585
      vertex -12.5761 7 0
      vertex -16.7627 7 3.14208
    endloop
  endfacet
  facet normal 0 1 0
    outer loop
      vertex -16.239 7 3.73321
      vertex -12.5761 7 0
      vertex -16.465 7 3.40585
    endloop
  endfacet
  facet normal 0 1 -0
    outer loop
      vertex -17.8989 7 6.13797
      vertex -21 7 9
      vertex -17.5011 7 6.13797
    endloop
  endfacet
  facet normal 0 1 -0
    outer loop
      vertex -18.2851 7 6.04278
      vertex -21 7 9
      vertex -17.8989 7 6.13797
    endloop
  endfacet
  facet normal 0 1 -0
    outer loop
      vertex -18.6373 7 5.85792
      vertex -21 7 9
      vertex -18.2851 7 6.04278
    endloop
  endfacet
  facet normal 0 1 -0
    outer loop
      vertex -18.935 7 5.59415
      vertex -21 7 9
      vertex -18.6373 7 5.85792
    endloop
  endfacet
  facet normal 0 1 -0
    outer loop
      vertex -19.161 7 5.26679
      vertex -21 7 9
      vertex -18.935 7 5.59415
    endloop
  endfacet
  facet normal 0 1 -0
    outer loop
      vertex -19.3021 7 4.89487
      vertex -21 7 9
      vertex -19.161 7 5.26679
    endloop
  endfacet
  facet normal 0 1 -0
    outer loop
      vertex -19.35 7 4.5
      vertex -21 7 9
      vertex -19.3021 7 4.89487
    endloop
  endfacet
  facet normal 0 1 0
    outer loop
      vertex -21 7 0
      vertex -19.35 7 4.5
      vertex -19.3021 7 4.10513
    endloop
  endfacet
  facet normal 0 1 0
    outer loop
      vertex -17.5011 7 2.86203
      vertex -21 7 0
      vertex -17.8989 7 2.86203
    endloop
  endfacet
  facet normal 0 1 0
    outer loop
      vertex -19.35 7 4.5
      vertex -21 7 0
      vertex -21 7 9
    endloop
  endfacet
  facet normal 0 1 0
    outer loop
      vertex -19.161 7 3.73321
      vertex -21 7 0
      vertex -19.3021 7 4.10513
    endloop
  endfacet
  facet normal 0 1 0
    outer loop
      vertex -18.935 7 3.40585
      vertex -21 7 0
      vertex -19.161 7 3.73321
    endloop
  endfacet
  facet normal 0 1 0
    outer loop
      vertex -18.6373 7 3.14208
      vertex -21 7 0
      vertex -18.935 7 3.40585
    endloop
  endfacet
  facet normal 0 1 0
    outer loop
      vertex -18.2851 7 2.95722
      vertex -21 7 0
      vertex -18.6373 7 3.14208
    endloop
  endfacet
  facet normal 0 1 0
    outer loop
      vertex -17.8989 7 2.86203
      vertex -21 7 0
      vertex -18.2851 7 2.95722
    endloop
  endfacet
  facet normal -1 0 0
    outer loop
      vertex -21 0 0
      vertex -21 7 9
      vertex -21 7 0
    endloop
  endfacet
  facet normal -1 -0 0
    outer loop
      vertex -21 7 9
      vertex -21 0 0
      vertex -21 0 9
    endloop
  endfacet
  facet normal 0 -1 0
    outer loop
      vertex -17.5011 0 6.13797
      vertex -21 0 9
      vertex -17.8989 0 6.13797
    endloop
  endfacet
  facet normal 0 -1 0
    outer loop
      vertex -21 0 9
      vertex -18.2851 0 6.04278
      vertex -17.8989 0 6.13797
    endloop
  endfacet
  facet normal 0 -1 0
    outer loop
      vertex -21 0 9
      vertex -18.6373 0 5.85792
      vertex -18.2851 0 6.04278
    endloop
  endfacet
  facet normal 0 -1 0
    outer loop
      vertex -21 0 9
      vertex -18.935 0 5.59415
      vertex -18.6373 0 5.85792
    endloop
  endfacet
  facet normal 0 -1 0
    outer loop
      vertex -21 0 9
      vertex -19.161 0 5.26679
      vertex -18.935 0 5.59415
    endloop
  endfacet
  facet normal 0 -1 0
    outer loop
      vertex -21 0 9
      vertex -19.3021 0 4.89487
      vertex -19.161 0 5.26679
    endloop
  endfacet
  facet normal 0 -1 0
    outer loop
      vertex -21 0 9
      vertex -19.35 0 4.5
      vertex -19.3021 0 4.89487
    endloop
  endfacet
  facet normal 0 -1 0
    outer loop
      vertex -21 0 0
      vertex -19.35 0 4.5
      vertex -21 0 9
    endloop
  endfacet
  facet normal 0 -1 -0
    outer loop
      vertex -17.8989 0 2.86203
      vertex -21 0 0
      vertex -17.5011 0 2.86203
    endloop
  endfacet
  facet normal 0 -1 -0
    outer loop
      vertex -18.2851 0 2.95722
      vertex -21 0 0
      vertex -17.8989 0 2.86203
    endloop
  endfacet
  facet normal 0 -1 -0
    outer loop
      vertex -18.6373 0 3.14208
      vertex -21 0 0
      vertex -18.2851 0 2.95722
    endloop
  endfacet
  facet normal 0 -1 -0
    outer loop
      vertex -18.935 0 3.40585
      vertex -21 0 0
      vertex -18.6373 0 3.14208
    endloop
  endfacet
  facet normal 0 -1 -0
    outer loop
      vertex -19.161 0 3.73321
      vertex -21 0 0
      vertex -18.935 0 3.40585
    endloop
  endfacet
  facet normal 0 -1 -0
    outer loop
      vertex -19.3021 0 4.10513
      vertex -21 0 0
      vertex -19.161 0 3.73321
    endloop
  endfacet
  facet normal 0 -1 -0
    outer loop
      vertex -19.35 0 4.5
      vertex -21 0 0
      vertex -19.3021 0 4.10513
    endloop
  endfacet
  facet normal 0 -1 0
    outer loop
      vertex -17.1149 0 6.04278
      vertex -21 0 9
      vertex -17.5011 0 6.13797
    endloop
  endfacet
  facet normal 0 -1 0
    outer loop
      vertex -21 0 9
      vertex -17.1149 0 6.04278
      vertex -10.4 0 9
    endloop
  endfacet
  facet normal 0 -1 0
    outer loop
      vertex -16.7627 0 5.85792
      vertex -10.4 0 9
      vertex -17.1149 0 6.04278
    endloop
  endfacet
  facet normal 0 -1 0
    outer loop
      vertex -16.465 0 5.59415
      vertex -10.4 0 9
      vertex -16.7627 0 5.85792
    endloop
  endfacet
  facet normal 0 -1 0
    outer loop
      vertex -16.239 0 5.26679
      vertex -10.4 0 9
      vertex -16.465 0 5.59415
    endloop
  endfacet
  facet normal 0 -1 0
    outer loop
      vertex -16.0979 0 4.89487
      vertex -10.4 0 9
      vertex -16.239 0 5.26679
    endloop
  endfacet
  facet normal 0 -1 0
    outer loop
      vertex -16.05 0 4.5
      vertex -10.4 0 9
      vertex -16.0979 0 4.89487
    endloop
  endfacet
  facet normal 0 -1 0
    outer loop
      vertex -10.4 0 0
      vertex -16.05 0 4.5
      vertex -16.0979 0 4.10513
    endloop
  endfacet
  facet normal 0 -1 0
    outer loop
      vertex -10.4 0 0
      vertex -16.0979 0 4.10513
      vertex -16.239 0 3.73321
    endloop
  endfacet
  facet normal 0 -1 0
    outer loop
      vertex -10.4 0 0
      vertex -16.239 0 3.73321
      vertex -16.465 0 3.40585
    endloop
  endfacet
  facet normal 0 -1 0
    outer loop
      vertex -21 0 0
      vertex -17.1149 0 2.95722
      vertex -17.5011 0 2.86203
    endloop
  endfacet
  facet normal 0 -1 0
    outer loop
      vertex -10.4 0 0
      vertex -17.1149 0 2.95722
      vertex -21 0 0
    endloop
  endfacet
  facet normal 0 -1 0
    outer loop
      vertex -16.05 0 4.5
      vertex -10.4 0 0
      vertex -10.4 0 9
    endloop
  endfacet
  facet normal 0 -1 0
    outer loop
      vertex -16.7627 0 3.14208
      vertex -10.4 0 0
      vertex -16.465 0 3.40585
    endloop
  endfacet
  facet normal 0 -1 0
    outer loop
      vertex -17.1149 0 2.95722
      vertex -10.4 0 0
      vertex -16.7627 0 3.14208
    endloop
  endfacet
  facet normal 0.999392 -0.034853 0
    outer loop
      vertex -10.4 0 9
      vertex -10.3747 0.725464 0
      vertex -10.3747 0.725464 9
    endloop
  endfacet
  facet normal 0.999392 -0.034853 0
    outer loop
      vertex -10.3747 0.725464 0
      vertex -10.4 0 9
      vertex -10.4 0 0
    endloop
  endfacet
endsolid OpenSCAD_Model
