solid OpenSCAD_Model
  facet normal -0.992723 0 -0.120423
    outer loop
      vertex -16.25 0 4.5
      vertex -16.2979 7 4.89487
      vertex -16.25 7 4.5
    endloop
  endfacet
  facet normal -0.992723 -0 -0.120423
    outer loop
      vertex -16.2979 7 4.89487
      vertex -16.25 0 4.5
      vertex -16.2979 0 4.89487
    endloop
  endfacet
  facet normal -0.934975 0 -0.354713
    outer loop
      vertex -16.2979 0 4.89487
      vertex -16.439 7 5.26679
      vertex -16.2979 7 4.89487
    endloop
  endfacet
  facet normal -0.934975 -0 -0.354713
    outer loop
      vertex -16.439 7 5.26679
      vertex -16.2979 0 4.89487
      vertex -16.439 0 5.26679
    endloop
  endfacet
  facet normal 0.239316 0 -0.970942
    outer loop
      vertex -18.4851 0 6.04278
      vertex -18.0989 7 6.13797
      vertex -18.0989 0 6.13797
    endloop
  endfacet
  facet normal 0.239316 0 -0.970942
    outer loop
      vertex -18.0989 7 6.13797
      vertex -18.4851 0 6.04278
      vertex -18.4851 7 6.04278
    endloop
  endfacet
  facet normal -0.464745 0 0.885444
    outer loop
      vertex -17.3149 7 2.95722
      vertex -16.9627 0 3.14208
      vertex -16.9627 7 3.14208
    endloop
  endfacet
  facet normal -0.464745 0 0.885444
    outer loop
      vertex -16.9627 0 3.14208
      vertex -17.3149 7 2.95722
      vertex -17.3149 0 2.95722
    endloop
  endfacet
  facet normal -0.464745 0 -0.885444
    outer loop
      vertex -17.3149 0 6.04278
      vertex -16.9627 7 5.85792
      vertex -16.9627 0 5.85792
    endloop
  endfacet
  facet normal -0.464745 0 -0.885444
    outer loop
      vertex -16.9627 7 5.85792
      vertex -17.3149 0 6.04278
      vertex -17.3149 7 6.04278
    endloop
  endfacet
  facet normal 0.822937 0 -0.568132
    outer loop
      vertex -19.135 0 5.59415
      vertex -19.361 7 5.26679
      vertex -19.135 7 5.59415
    endloop
  endfacet
  facet normal 0.822937 0 -0.568132
    outer loop
      vertex -19.361 7 5.26679
      vertex -19.135 0 5.59415
      vertex -19.361 0 5.26679
    endloop
  endfacet
  facet normal 0.663166 0 -0.748472
    outer loop
      vertex -19.135 0 5.59415
      vertex -18.8373 7 5.85792
      vertex -18.8373 0 5.85792
    endloop
  endfacet
  facet normal 0.663166 0 -0.748472
    outer loop
      vertex -18.8373 7 5.85792
      vertex -19.135 0 5.59415
      vertex -19.135 7 5.59415
    endloop
  endfacet
  facet normal -0.934975 0 0.354713
    outer loop
      vertex -16.439 0 3.73321
      vertex -16.2979 7 4.10513
      vertex -16.439 7 3.73321
    endloop
  endfacet
  facet normal -0.934975 0 0.354713
    outer loop
      vertex -16.2979 7 4.10513
      vertex -16.439 0 3.73321
      vertex -16.2979 0 4.10513
    endloop
  endfacet
  facet normal -0.822937 0 -0.568132
    outer loop
      vertex -16.439 0 5.26679
      vertex -16.665 7 5.59415
      vertex -16.439 7 5.26679
    endloop
  endfacet
  facet normal -0.822937 -0 -0.568132
    outer loop
      vertex -16.665 7 5.59415
      vertex -16.439 0 5.26679
      vertex -16.665 0 5.59415
    endloop
  endfacet
  facet normal -0.239316 0 -0.970942
    outer loop
      vertex -17.7011 0 6.13797
      vertex -17.3149 7 6.04278
      vertex -17.3149 0 6.04278
    endloop
  endfacet
  facet normal -0.239316 0 -0.970942
    outer loop
      vertex -17.3149 7 6.04278
      vertex -17.7011 0 6.13797
      vertex -17.7011 7 6.13797
    endloop
  endfacet
  facet normal 0.934975 0 -0.354713
    outer loop
      vertex -19.361 0 5.26679
      vertex -19.5021 7 4.89487
      vertex -19.361 7 5.26679
    endloop
  endfacet
  facet normal 0.934975 0 -0.354713
    outer loop
      vertex -19.5021 7 4.89487
      vertex -19.361 0 5.26679
      vertex -19.5021 0 4.89487
    endloop
  endfacet
  facet normal 0.992723 0 -0.120423
    outer loop
      vertex -19.5021 0 4.89487
      vertex -19.55 7 4.5
      vertex -19.5021 7 4.89487
    endloop
  endfacet
  facet normal 0.992723 0 -0.120423
    outer loop
      vertex -19.55 7 4.5
      vertex -19.5021 0 4.89487
      vertex -19.55 0 4.5
    endloop
  endfacet
  facet normal 0.992723 -0 0.120423
    outer loop
      vertex -19.55 0 4.5
      vertex -19.5021 7 4.10513
      vertex -19.55 7 4.5
    endloop
  endfacet
  facet normal 0.992723 0 0.120423
    outer loop
      vertex -19.5021 7 4.10513
      vertex -19.55 0 4.5
      vertex -19.5021 0 4.10513
    endloop
  endfacet
  facet normal 0.464745 0 -0.885444
    outer loop
      vertex -18.8373 0 5.85792
      vertex -18.4851 7 6.04278
      vertex -18.4851 0 6.04278
    endloop
  endfacet
  facet normal 0.464745 0 -0.885444
    outer loop
      vertex -18.4851 7 6.04278
      vertex -18.8373 0 5.85792
      vertex -18.8373 7 5.85792
    endloop
  endfacet
  facet normal -0.992723 0 0.120423
    outer loop
      vertex -16.2979 0 4.10513
      vertex -16.25 7 4.5
      vertex -16.2979 7 4.10513
    endloop
  endfacet
  facet normal -0.992723 0 0.120423
    outer loop
      vertex -16.25 7 4.5
      vertex -16.2979 0 4.10513
      vertex -16.25 0 4.5
    endloop
  endfacet
  facet normal -0.239316 0 0.970942
    outer loop
      vertex -17.7011 7 2.86203
      vertex -17.3149 0 2.95722
      vertex -17.3149 7 2.95722
    endloop
  endfacet
  facet normal -0.239316 0 0.970942
    outer loop
      vertex -17.3149 0 2.95722
      vertex -17.7011 7 2.86203
      vertex -17.7011 0 2.86203
    endloop
  endfacet
  facet normal -0.663166 0 -0.748472
    outer loop
      vertex -16.9627 0 5.85792
      vertex -16.665 7 5.59415
      vertex -16.665 0 5.59415
    endloop
  endfacet
  facet normal -0.663166 0 -0.748472
    outer loop
      vertex -16.665 7 5.59415
      vertex -16.9627 0 5.85792
      vertex -16.9627 7 5.85792
    endloop
  endfacet
  facet normal 0 0 -1
    outer loop
      vertex -18.0989 0 6.13797
      vertex -17.7011 7 6.13797
      vertex -17.7011 0 6.13797
    endloop
  endfacet
  facet normal -0 0 -1
    outer loop
      vertex -17.7011 7 6.13797
      vertex -18.0989 0 6.13797
      vertex -18.0989 7 6.13797
    endloop
  endfacet
  facet normal -0.663166 0 0.748472
    outer loop
      vertex -16.9627 7 3.14208
      vertex -16.665 0 3.40585
      vertex -16.665 7 3.40585
    endloop
  endfacet
  facet normal -0.663166 0 0.748472
    outer loop
      vertex -16.665 0 3.40585
      vertex -16.9627 7 3.14208
      vertex -16.9627 0 3.14208
    endloop
  endfacet
  facet normal 0.663166 0 0.748472
    outer loop
      vertex -19.135 7 3.40585
      vertex -18.8373 0 3.14208
      vertex -18.8373 7 3.14208
    endloop
  endfacet
  facet normal 0.663166 0 0.748472
    outer loop
      vertex -18.8373 0 3.14208
      vertex -19.135 7 3.40585
      vertex -19.135 0 3.40585
    endloop
  endfacet
  facet normal 0.822937 -0 0.568132
    outer loop
      vertex -19.361 0 3.73321
      vertex -19.135 7 3.40585
      vertex -19.361 7 3.73321
    endloop
  endfacet
  facet normal 0.822937 0 0.568132
    outer loop
      vertex -19.135 7 3.40585
      vertex -19.361 0 3.73321
      vertex -19.135 0 3.40585
    endloop
  endfacet
  facet normal 0.934975 -0 0.354713
    outer loop
      vertex -19.5021 0 4.10513
      vertex -19.361 7 3.73321
      vertex -19.5021 7 4.10513
    endloop
  endfacet
  facet normal 0.934975 0 0.354713
    outer loop
      vertex -19.361 7 3.73321
      vertex -19.5021 0 4.10513
      vertex -19.361 0 3.73321
    endloop
  endfacet
  facet normal 0.239316 0 0.970942
    outer loop
      vertex -18.4851 7 2.95722
      vertex -18.0989 0 2.86203
      vertex -18.0989 7 2.86203
    endloop
  endfacet
  facet normal 0.239316 0 0.970942
    outer loop
      vertex -18.0989 0 2.86203
      vertex -18.4851 7 2.95722
      vertex -18.4851 0 2.95722
    endloop
  endfacet
  facet normal -0 0 1
    outer loop
      vertex -18.0989 7 2.86203
      vertex -17.7011 0 2.86203
      vertex -17.7011 7 2.86203
    endloop
  endfacet
  facet normal 0 0 1
    outer loop
      vertex -17.7011 0 2.86203
      vertex -18.0989 7 2.86203
      vertex -18.0989 0 2.86203
    endloop
  endfacet
  facet normal 0.464745 0 0.885444
    outer loop
      vertex -18.8373 7 3.14208
      vertex -18.4851 0 2.95722
      vertex -18.4851 7 2.95722
    endloop
  endfacet
  facet normal 0.464745 0 0.885444
    outer loop
      vertex -18.4851 0 2.95722
      vertex -18.8373 7 3.14208
      vertex -18.8373 0 3.14208
    endloop
  endfacet
  facet normal -0.822937 0 0.568132
    outer loop
      vertex -16.665 0 3.40585
      vertex -16.439 7 3.73321
      vertex -16.665 7 3.40585
    endloop
  endfacet
  facet normal -0.822937 0 0.568132
    outer loop
      vertex -16.439 7 3.73321
      vertex -16.665 0 3.40585
      vertex -16.439 0 3.73321
    endloop
  endfacet
  facet normal -0.992723 0 -0.120423
    outer loop
      vertex 19.55 0 4.5
      vertex 19.5021 7 4.89487
      vertex 19.55 7 4.5
    endloop
  endfacet
  facet normal -0.992723 -0 -0.120423
    outer loop
      vertex 19.5021 7 4.89487
      vertex 19.55 0 4.5
      vertex 19.5021 0 4.89487
    endloop
  endfacet
  facet normal -0.822937 0 -0.568132
    outer loop
      vertex 19.361 0 5.26679
      vertex 19.135 7 5.59415
      vertex 19.361 7 5.26679
    endloop
  endfacet
  facet normal -0.822937 -0 -0.568132
    outer loop
      vertex 19.135 7 5.59415
      vertex 19.361 0 5.26679
      vertex 19.135 0 5.59415
    endloop
  endfacet
  facet normal 0.992723 -0 0.120423
    outer loop
      vertex 16.25 0 4.5
      vertex 16.2979 7 4.10513
      vertex 16.25 7 4.5
    endloop
  endfacet
  facet normal 0.992723 0 0.120423
    outer loop
      vertex 16.2979 7 4.10513
      vertex 16.25 0 4.5
      vertex 16.2979 0 4.10513
    endloop
  endfacet
  facet normal -0.992723 0 0.120423
    outer loop
      vertex 19.5021 0 4.10513
      vertex 19.55 7 4.5
      vertex 19.5021 7 4.10513
    endloop
  endfacet
  facet normal -0.992723 0 0.120423
    outer loop
      vertex 19.55 7 4.5
      vertex 19.5021 0 4.10513
      vertex 19.55 0 4.5
    endloop
  endfacet
  facet normal 0.992723 0 -0.120423
    outer loop
      vertex 16.2979 0 4.89487
      vertex 16.25 7 4.5
      vertex 16.2979 7 4.89487
    endloop
  endfacet
  facet normal 0.992723 0 -0.120423
    outer loop
      vertex 16.25 7 4.5
      vertex 16.2979 0 4.89487
      vertex 16.25 0 4.5
    endloop
  endfacet
  facet normal -0.464745 0 0.885444
    outer loop
      vertex 18.4851 7 2.95722
      vertex 18.8373 0 3.14208
      vertex 18.8373 7 3.14208
    endloop
  endfacet
  facet normal -0.464745 0 0.885444
    outer loop
      vertex 18.8373 0 3.14208
      vertex 18.4851 7 2.95722
      vertex 18.4851 0 2.95722
    endloop
  endfacet
  facet normal -0.464745 0 -0.885444
    outer loop
      vertex 18.4851 0 6.04278
      vertex 18.8373 7 5.85792
      vertex 18.8373 0 5.85792
    endloop
  endfacet
  facet normal -0.464745 0 -0.885444
    outer loop
      vertex 18.8373 7 5.85792
      vertex 18.4851 0 6.04278
      vertex 18.4851 7 6.04278
    endloop
  endfacet
  facet normal -0.663166 0 -0.748472
    outer loop
      vertex 18.8373 0 5.85792
      vertex 19.135 7 5.59415
      vertex 19.135 0 5.59415
    endloop
  endfacet
  facet normal -0.663166 0 -0.748472
    outer loop
      vertex 19.135 7 5.59415
      vertex 18.8373 0 5.85792
      vertex 18.8373 7 5.85792
    endloop
  endfacet
  facet normal 0.239316 0 -0.970942
    outer loop
      vertex 17.3149 0 6.04278
      vertex 17.7011 7 6.13797
      vertex 17.7011 0 6.13797
    endloop
  endfacet
  facet normal 0.239316 0 -0.970942
    outer loop
      vertex 17.7011 7 6.13797
      vertex 17.3149 0 6.04278
      vertex 17.3149 7 6.04278
    endloop
  endfacet
  facet normal -0.239316 0 -0.970942
    outer loop
      vertex 18.0989 0 6.13797
      vertex 18.4851 7 6.04278
      vertex 18.4851 0 6.04278
    endloop
  endfacet
  facet normal -0.239316 0 -0.970942
    outer loop
      vertex 18.4851 7 6.04278
      vertex 18.0989 0 6.13797
      vertex 18.0989 7 6.13797
    endloop
  endfacet
  facet normal 0.934975 0 -0.354713
    outer loop
      vertex 16.439 0 5.26679
      vertex 16.2979 7 4.89487
      vertex 16.439 7 5.26679
    endloop
  endfacet
  facet normal 0.934975 0 -0.354713
    outer loop
      vertex 16.2979 7 4.89487
      vertex 16.439 0 5.26679
      vertex 16.2979 0 4.89487
    endloop
  endfacet
  facet normal 0.464745 0 -0.885444
    outer loop
      vertex 16.9627 0 5.85792
      vertex 17.3149 7 6.04278
      vertex 17.3149 0 6.04278
    endloop
  endfacet
  facet normal 0.464745 0 -0.885444
    outer loop
      vertex 17.3149 7 6.04278
      vertex 16.9627 0 5.85792
      vertex 16.9627 7 5.85792
    endloop
  endfacet
  facet normal 0.822937 0 -0.568132
    outer loop
      vertex 16.665 0 5.59415
      vertex 16.439 7 5.26679
      vertex 16.665 7 5.59415
    endloop
  endfacet
  facet normal 0.822937 0 -0.568132
    outer loop
      vertex 16.439 7 5.26679
      vertex 16.665 0 5.59415
      vertex 16.439 0 5.26679
    endloop
  endfacet
  facet normal 0.464745 0 0.885444
    outer loop
      vertex 16.9627 7 3.14208
      vertex 17.3149 0 2.95722
      vertex 17.3149 7 2.95722
    endloop
  endfacet
  facet normal 0.464745 0 0.885444
    outer loop
      vertex 17.3149 0 2.95722
      vertex 16.9627 7 3.14208
      vertex 16.9627 0 3.14208
    endloop
  endfacet
  facet normal 0.934975 -0 0.354713
    outer loop
      vertex 16.2979 0 4.10513
      vertex 16.439 7 3.73321
      vertex 16.2979 7 4.10513
    endloop
  endfacet
  facet normal 0.934975 0 0.354713
    outer loop
      vertex 16.439 7 3.73321
      vertex 16.2979 0 4.10513
      vertex 16.439 0 3.73321
    endloop
  endfacet
  facet normal -0.822937 0 0.568132
    outer loop
      vertex 19.135 0 3.40585
      vertex 19.361 7 3.73321
      vertex 19.135 7 3.40585
    endloop
  endfacet
  facet normal -0.822937 0 0.568132
    outer loop
      vertex 19.361 7 3.73321
      vertex 19.135 0 3.40585
      vertex 19.361 0 3.73321
    endloop
  endfacet
  facet normal -0.239316 0 0.970942
    outer loop
      vertex 18.0989 7 2.86203
      vertex 18.4851 0 2.95722
      vertex 18.4851 7 2.95722
    endloop
  endfacet
  facet normal -0.239316 0 0.970942
    outer loop
      vertex 18.4851 0 2.95722
      vertex 18.0989 7 2.86203
      vertex 18.0989 0 2.86203
    endloop
  endfacet
  facet normal -0.934975 0 -0.354713
    outer loop
      vertex 19.5021 0 4.89487
      vertex 19.361 7 5.26679
      vertex 19.5021 7 4.89487
    endloop
  endfacet
  facet normal -0.934975 -0 -0.354713
    outer loop
      vertex 19.361 7 5.26679
      vertex 19.5021 0 4.89487
      vertex 19.361 0 5.26679
    endloop
  endfacet
  facet normal 0 0 -1
    outer loop
      vertex 17.7011 0 6.13797
      vertex 18.0989 7 6.13797
      vertex 18.0989 0 6.13797
    endloop
  endfacet
  facet normal -0 0 -1
    outer loop
      vertex 18.0989 7 6.13797
      vertex 17.7011 0 6.13797
      vertex 17.7011 7 6.13797
    endloop
  endfacet
  facet normal 0.663166 0 -0.748472
    outer loop
      vertex 16.665 0 5.59415
      vertex 16.9627 7 5.85792
      vertex 16.9627 0 5.85792
    endloop
  endfacet
  facet normal 0.663166 0 -0.748472
    outer loop
      vertex 16.9627 7 5.85792
      vertex 16.665 0 5.59415
      vertex 16.665 7 5.59415
    endloop
  endfacet
  facet normal 0.239316 0 0.970942
    outer loop
      vertex 17.3149 7 2.95722
      vertex 17.7011 0 2.86203
      vertex 17.7011 7 2.86203
    endloop
  endfacet
  facet normal 0.239316 0 0.970942
    outer loop
      vertex 17.7011 0 2.86203
      vertex 17.3149 7 2.95722
      vertex 17.3149 0 2.95722
    endloop
  endfacet
  facet normal -0.934975 0 0.354713
    outer loop
      vertex 19.361 0 3.73321
      vertex 19.5021 7 4.10513
      vertex 19.361 7 3.73321
    endloop
  endfacet
  facet normal -0.934975 0 0.354713
    outer loop
      vertex 19.5021 7 4.10513
      vertex 19.361 0 3.73321
      vertex 19.5021 0 4.10513
    endloop
  endfacet
  facet normal -0.663166 0 0.748472
    outer loop
      vertex 18.8373 7 3.14208
      vertex 19.135 0 3.40585
      vertex 19.135 7 3.40585
    endloop
  endfacet
  facet normal -0.663166 0 0.748472
    outer loop
      vertex 19.135 0 3.40585
      vertex 18.8373 7 3.14208
      vertex 18.8373 0 3.14208
    endloop
  endfacet
  facet normal 0.663166 0 0.748472
    outer loop
      vertex 16.665 7 3.40585
      vertex 16.9627 0 3.14208
      vertex 16.9627 7 3.14208
    endloop
  endfacet
  facet normal 0.663166 0 0.748472
    outer loop
      vertex 16.9627 0 3.14208
      vertex 16.665 7 3.40585
      vertex 16.665 0 3.40585
    endloop
  endfacet
  facet normal 0.822937 -0 0.568132
    outer loop
      vertex 16.439 0 3.73321
      vertex 16.665 7 3.40585
      vertex 16.439 7 3.73321
    endloop
  endfacet
  facet normal 0.822937 0 0.568132
    outer loop
      vertex 16.665 7 3.40585
      vertex 16.439 0 3.73321
      vertex 16.665 0 3.40585
    endloop
  endfacet
  facet normal -0 0 1
    outer loop
      vertex 17.7011 7 2.86203
      vertex 18.0989 0 2.86203
      vertex 18.0989 7 2.86203
    endloop
  endfacet
  facet normal 0 0 1
    outer loop
      vertex 18.0989 0 2.86203
      vertex 17.7011 7 2.86203
      vertex 17.7011 0 2.86203
    endloop
  endfacet
  facet normal 0 0 -1
    outer loop
      vertex 21.2 0 0
      vertex 12.8069 7 0
      vertex 21.2 7 0
    endloop
  endfacet
  facet normal 0 0 -1
    outer loop
      vertex 8.9893 5.61714 0
      vertex 12.3815 7.73682 0
      vertex 12.8069 7 0
    endloop
  endfacet
  facet normal -0 0 -1
    outer loop
      vertex 12.3815 7.73682 0
      vertex 8.9893 5.61714 0
      vertex 11.8116 8.58165 0
    endloop
  endfacet
  facet normal 0 0 -1
    outer loop
      vertex 10.5742 0.73941 0
      vertex 21.2 0 0
      vertex 10.6 0 0
    endloop
  endfacet
  facet normal 0 0 -1
    outer loop
      vertex 10.4968 1.47522 0
      vertex 21.2 0 0
      vertex 10.5742 0.73941 0
    endloop
  endfacet
  facet normal 0 0 -1
    outer loop
      vertex 21.2 0 0
      vertex 10.4968 1.47522 0
      vertex 12.8069 7 0
    endloop
  endfacet
  facet normal 0 0 -1
    outer loop
      vertex 10.3684 2.20386 0
      vertex 12.8069 7 0
      vertex 10.4968 1.47522 0
    endloop
  endfacet
  facet normal 0 0 -1
    outer loop
      vertex 10.1894 2.92175 0
      vertex 12.8069 7 0
      vertex 10.3684 2.20386 0
    endloop
  endfacet
  facet normal 0 0 -1
    outer loop
      vertex 9.96074 3.62541 0
      vertex 12.8069 7 0
      vertex 10.1894 2.92175 0
    endloop
  endfacet
  facet normal 0 0 -1
    outer loop
      vertex 9.68358 4.3114 0
      vertex 12.8069 7 0
      vertex 9.96074 3.62541 0
    endloop
  endfacet
  facet normal 0 0 -1
    outer loop
      vertex 9.35924 4.97639 0
      vertex 12.8069 7 0
      vertex 9.68358 4.3114 0
    endloop
  endfacet
  facet normal 0 0 -1
    outer loop
      vertex 8.9893 5.61714 0
      vertex 12.8069 7 0
      vertex 9.35924 4.97639 0
    endloop
  endfacet
  facet normal 0 0 -1
    outer loop
      vertex 11.8116 8.58165 0
      vertex 8.9893 5.61714 0
      vertex 8.57558 6.23051 0
    endloop
  endfacet
  facet normal -0 0 -1
    outer loop
      vertex 11.8116 8.58165 0
      vertex 8.57558 6.23051 0
      vertex 11.1842 9.38469 0
    endloop
  endfacet
  facet normal 0 0 -1
    outer loop
      vertex 8.12006 6.81354 0
      vertex 11.1842 9.38469 0
      vertex 8.57558 6.23051 0
    endloop
  endfacet
  facet normal -0 0 -1
    outer loop
      vertex 11.1842 9.38469 0
      vertex 8.12006 6.81354 0
      vertex 10.5023 10.142 0
    endloop
  endfacet
  facet normal 0 0 -1
    outer loop
      vertex 7.625 7.36337 0
      vertex 10.5023 10.142 0
      vertex 8.12006 6.81354 0
    endloop
  endfacet
  facet normal -0 0 -1
    outer loop
      vertex 10.5023 10.142 0
      vertex 7.625 7.36337 0
      vertex 9.7693 10.8499 0
    endloop
  endfacet
  facet normal 0 0 -1
    outer loop
      vertex 7.09277 7.87733 0
      vertex 9.7693 10.8499 0
      vertex 7.625 7.36337 0
    endloop
  endfacet
  facet normal -0 0 -1
    outer loop
      vertex 9.7693 10.8499 0
      vertex 7.09277 7.87733 0
      vertex 8.98865 11.5049 0
    endloop
  endfacet
  facet normal 0 0 -1
    outer loop
      vertex 6.526 8.35291 0
      vertex 8.98865 11.5049 0
      vertex 7.09277 7.87733 0
    endloop
  endfacet
  facet normal -0 0 -1
    outer loop
      vertex 8.98865 11.5049 0
      vertex 6.526 8.35291 0
      vertex 8.16422 12.1039 0
    endloop
  endfacet
  facet normal 0 0 -1
    outer loop
      vertex 5.92744 8.7878 0
      vertex 8.16422 12.1039 0
      vertex 6.526 8.35291 0
    endloop
  endfacet
  facet normal -0 0 -1
    outer loop
      vertex 8.16422 12.1039 0
      vertex 5.92744 8.7878 0
      vertex 7.29999 12.644 0
    endloop
  endfacet
  facet normal 0 0 -1
    outer loop
      vertex 5.29999 9.17986 0
      vertex 7.29999 12.644 0
      vertex 5.92744 8.7878 0
    endloop
  endfacet
  facet normal -0 0 -1
    outer loop
      vertex 7.29999 12.644 0
      vertex 5.29999 9.17986 0
      vertex 6.40021 13.1224 0
    endloop
  endfacet
  facet normal 0 0 -1
    outer loop
      vertex 4.64673 9.52721 0
      vertex 6.40021 13.1224 0
      vertex 5.29999 9.17986 0
    endloop
  endfacet
  facet normal -0 0 -1
    outer loop
      vertex 6.40021 13.1224 0
      vertex 4.64673 9.52721 0
      vertex 5.46925 13.5369 0
    endloop
  endfacet
  facet normal 0 0 -1
    outer loop
      vertex 3.97083 9.82814 0
      vertex 5.46925 13.5369 0
      vertex 4.64673 9.52721 0
    endloop
  endfacet
  facet normal -0 0 -1
    outer loop
      vertex 5.46925 13.5369 0
      vertex 3.97083 9.82814 0
      vertex 4.51164 13.8854 0
    endloop
  endfacet
  facet normal 0 0 -1
    outer loop
      vertex 3.27557 10.0812 0
      vertex 4.51164 13.8854 0
      vertex 3.97083 9.82814 0
    endloop
  endfacet
  facet normal -0 0 -1
    outer loop
      vertex 4.51164 13.8854 0
      vertex 3.27557 10.0812 0
      vertex 3.53206 14.1663 0
    endloop
  endfacet
  facet normal 0 0 -1
    outer loop
      vertex 2.56436 10.2851 0
      vertex 3.53206 14.1663 0
      vertex 3.27557 10.0812 0
    endloop
  endfacet
  facet normal 0 0 -1
    outer loop
      vertex 2.56436 10.2851 0
      vertex 2.53526 14.3782 0
      vertex 3.53206 14.1663 0
    endloop
  endfacet
  facet normal 0 0 -1
    outer loop
      vertex 1.84067 10.4389 0
      vertex 2.53526 14.3782 0
      vertex 2.56436 10.2851 0
    endloop
  endfacet
  facet normal 0 0 -1
    outer loop
      vertex 1.84067 10.4389 0
      vertex 1.52611 14.52 0
      vertex 2.53526 14.3782 0
    endloop
  endfacet
  facet normal 0 0 -1
    outer loop
      vertex 1.108 10.5419 0
      vertex 1.52611 14.52 0
      vertex 1.84067 10.4389 0
    endloop
  endfacet
  facet normal 0 0 -1
    outer loop
      vertex 1.108 10.5419 0
      vertex 0.509521 14.5911 0
      vertex 1.52611 14.52 0
    endloop
  endfacet
  facet normal 0 0 -1
    outer loop
      vertex 0.369934 10.5935 0
      vertex 0.509521 14.5911 0
      vertex 1.108 10.5419 0
    endloop
  endfacet
  facet normal 0 0 -1
    outer loop
      vertex -0.369934 10.5935 0
      vertex 0.509521 14.5911 0
      vertex 0.369934 10.5935 0
    endloop
  endfacet
  facet normal 0 0 -1
    outer loop
      vertex -0.369934 10.5935 0
      vertex -0.509521 14.5911 0
      vertex 0.509521 14.5911 0
    endloop
  endfacet
  facet normal 0 0 -1
    outer loop
      vertex -1.108 10.5419 0
      vertex -0.509521 14.5911 0
      vertex -0.369934 10.5935 0
    endloop
  endfacet
  facet normal 0 0 -1
    outer loop
      vertex -1.108 10.5419 0
      vertex -1.52611 14.52 0
      vertex -0.509521 14.5911 0
    endloop
  endfacet
  facet normal 0 0 -1
    outer loop
      vertex -1.84067 10.4389 0
      vertex -1.52611 14.52 0
      vertex -1.108 10.5419 0
    endloop
  endfacet
  facet normal 0 0 -1
    outer loop
      vertex -1.84067 10.4389 0
      vertex -2.53526 14.3782 0
      vertex -1.52611 14.52 0
    endloop
  endfacet
  facet normal 0 0 -1
    outer loop
      vertex -2.56436 10.2851 0
      vertex -2.53526 14.3782 0
      vertex -1.84067 10.4389 0
    endloop
  endfacet
  facet normal 0 0 -1
    outer loop
      vertex -3.53206 14.1663 0
      vertex -2.56436 10.2851 0
      vertex -3.27557 10.0812 0
    endloop
  endfacet
  facet normal 0 0 -1
    outer loop
      vertex -2.56436 10.2851 0
      vertex -3.53206 14.1663 0
      vertex -2.53526 14.3782 0
    endloop
  endfacet
  facet normal 0 0 -1
    outer loop
      vertex -4.51164 13.8854 0
      vertex -3.27557 10.0812 0
      vertex -3.97083 9.82814 0
    endloop
  endfacet
  facet normal 0 0 -1
    outer loop
      vertex -3.27557 10.0812 0
      vertex -4.51164 13.8854 0
      vertex -3.53206 14.1663 0
    endloop
  endfacet
  facet normal 0 0 -1
    outer loop
      vertex -5.46925 13.5369 0
      vertex -3.97083 9.82814 0
      vertex -4.64673 9.52721 0
    endloop
  endfacet
  facet normal 0 0 -1
    outer loop
      vertex -6.40021 13.1224 0
      vertex -4.64673 9.52721 0
      vertex -5.29999 9.17986 0
    endloop
  endfacet
  facet normal 0 0 -1
    outer loop
      vertex -3.97083 9.82814 0
      vertex -5.46925 13.5369 0
      vertex -4.51164 13.8854 0
    endloop
  endfacet
  facet normal 0 0 -1
    outer loop
      vertex -7.29999 12.644 0
      vertex -5.29999 9.17986 0
      vertex -5.92744 8.7878 0
    endloop
  endfacet
  facet normal 0 0 -1
    outer loop
      vertex -4.64673 9.52721 0
      vertex -6.40021 13.1224 0
      vertex -5.46925 13.5369 0
    endloop
  endfacet
  facet normal 0 0 -1
    outer loop
      vertex -8.16422 12.1039 0
      vertex -5.92744 8.7878 0
      vertex -6.526 8.35291 0
    endloop
  endfacet
  facet normal 0 0 -1
    outer loop
      vertex -8.98865 11.5049 0
      vertex -6.526 8.35291 0
      vertex -7.09277 7.87733 0
    endloop
  endfacet
  facet normal 0 0 -1
    outer loop
      vertex -5.29999 9.17986 0
      vertex -7.29999 12.644 0
      vertex -6.40021 13.1224 0
    endloop
  endfacet
  facet normal 0 0 -1
    outer loop
      vertex -9.7693 10.8499 0
      vertex -7.09277 7.87733 0
      vertex -7.625 7.36337 0
    endloop
  endfacet
  facet normal 0 0 -1
    outer loop
      vertex -10.5023 10.142 0
      vertex -7.625 7.36337 0
      vertex -8.12006 6.81354 0
    endloop
  endfacet
  facet normal 0 0 -1
    outer loop
      vertex -5.92744 8.7878 0
      vertex -8.16422 12.1039 0
      vertex -7.29999 12.644 0
    endloop
  endfacet
  facet normal 0 0 -1
    outer loop
      vertex -11.1842 9.38469 0
      vertex -8.12006 6.81354 0
      vertex -8.57558 6.23051 0
    endloop
  endfacet
  facet normal 0 0 -1
    outer loop
      vertex -6.526 8.35291 0
      vertex -8.98865 11.5049 0
      vertex -8.16422 12.1039 0
    endloop
  endfacet
  facet normal 0 0 -1
    outer loop
      vertex -11.8116 8.58165 0
      vertex -8.57558 6.23051 0
      vertex -8.9893 5.61714 0
    endloop
  endfacet
  facet normal 0 0 -1
    outer loop
      vertex -12.8069 7 0
      vertex -8.9893 5.61714 0
      vertex -9.35924 4.97639 0
    endloop
  endfacet
  facet normal 0 0 -1
    outer loop
      vertex -12.8069 7 0
      vertex -9.35924 4.97639 0
      vertex -9.68358 4.3114 0
    endloop
  endfacet
  facet normal 0 0 -1
    outer loop
      vertex -7.09277 7.87733 0
      vertex -9.7693 10.8499 0
      vertex -8.98865 11.5049 0
    endloop
  endfacet
  facet normal 0 0 -1
    outer loop
      vertex -12.8069 7 0
      vertex -9.68358 4.3114 0
      vertex -9.96074 3.62541 0
    endloop
  endfacet
  facet normal 0 0 -1
    outer loop
      vertex -12.8069 7 0
      vertex -9.96074 3.62541 0
      vertex -10.1894 2.92175 0
    endloop
  endfacet
  facet normal 0 0 -1
    outer loop
      vertex -12.8069 7 0
      vertex -10.1894 2.92175 0
      vertex -10.3684 2.20386 0
    endloop
  endfacet
  facet normal 0 0 -1
    outer loop
      vertex -12.8069 7 0
      vertex -10.3684 2.20386 0
      vertex -10.4968 1.47522 0
    endloop
  endfacet
  facet normal 0 0 -1
    outer loop
      vertex -7.625 7.36337 0
      vertex -10.5023 10.142 0
      vertex -9.7693 10.8499 0
    endloop
  endfacet
  facet normal 0 0 -1
    outer loop
      vertex -21.2 0 0
      vertex -10.4968 1.47522 0
      vertex -10.5742 0.73941 0
    endloop
  endfacet
  facet normal 0 0 -1
    outer loop
      vertex -21.2 0 0
      vertex -10.5742 0.73941 0
      vertex -10.6 0 0
    endloop
  endfacet
  facet normal 0 0 -1
    outer loop
      vertex -8.12006 6.81354 0
      vertex -11.1842 9.38469 0
      vertex -10.5023 10.142 0
    endloop
  endfacet
  facet normal 0 0 -1
    outer loop
      vertex -8.57558 6.23051 0
      vertex -11.8116 8.58165 0
      vertex -11.1842 9.38469 0
    endloop
  endfacet
  facet normal 0 0 -1
    outer loop
      vertex -8.9893 5.61714 0
      vertex -12.3815 7.73682 0
      vertex -11.8116 8.58165 0
    endloop
  endfacet
  facet normal 0 0 -1
    outer loop
      vertex -8.9893 5.61714 0
      vertex -12.8069 7 0
      vertex -12.3815 7.73682 0
    endloop
  endfacet
  facet normal -0 0 -1
    outer loop
      vertex -10.4968 1.47522 0
      vertex -21.2 0 0
      vertex -12.8069 7 0
    endloop
  endfacet
  facet normal -0 0 -1
    outer loop
      vertex -12.8069 7 0
      vertex -21.2 0 0
      vertex -21.2 7 0
    endloop
  endfacet
  facet normal -0 0 1
    outer loop
      vertex 12.8069 7 9
      vertex 21.2 0 9
      vertex 21.2 7 9
    endloop
  endfacet
  facet normal 0 0 1
    outer loop
      vertex 8.9893 5.61714 9
      vertex 12.3815 7.73682 9
      vertex 11.8116 8.58165 9
    endloop
  endfacet
  facet normal 0 0 1
    outer loop
      vertex 8.57558 6.23051 9
      vertex 11.8116 8.58165 9
      vertex 11.1842 9.38469 9
    endloop
  endfacet
  facet normal -0 0 1
    outer loop
      vertex 10.4968 1.47522 9
      vertex 21.2 0 9
      vertex 12.8069 7 9
    endloop
  endfacet
  facet normal 0 -0 1
    outer loop
      vertex 8.9893 5.61714 9
      vertex 11.8116 8.58165 9
      vertex 8.57558 6.23051 9
    endloop
  endfacet
  facet normal 0 0 1
    outer loop
      vertex 21.2 0 9
      vertex 10.5742 0.73941 9
      vertex 10.6 0 9
    endloop
  endfacet
  facet normal 0 0 1
    outer loop
      vertex 8.12006 6.81354 9
      vertex 11.1842 9.38469 9
      vertex 10.5023 10.142 9
    endloop
  endfacet
  facet normal 0 0 1
    outer loop
      vertex 21.2 0 9
      vertex 10.4968 1.47522 9
      vertex 10.5742 0.73941 9
    endloop
  endfacet
  facet normal 0 0 1
    outer loop
      vertex 12.8069 7 9
      vertex 10.3684 2.20386 9
      vertex 10.4968 1.47522 9
    endloop
  endfacet
  facet normal 0 0 1
    outer loop
      vertex 12.8069 7 9
      vertex 10.1894 2.92175 9
      vertex 10.3684 2.20386 9
    endloop
  endfacet
  facet normal 0 0 1
    outer loop
      vertex 12.8069 7 9
      vertex 9.96074 3.62541 9
      vertex 10.1894 2.92175 9
    endloop
  endfacet
  facet normal 0 0 1
    outer loop
      vertex 7.625 7.36337 9
      vertex 10.5023 10.142 9
      vertex 9.7693 10.8499 9
    endloop
  endfacet
  facet normal 0 0 1
    outer loop
      vertex 12.8069 7 9
      vertex 9.68358 4.3114 9
      vertex 9.96074 3.62541 9
    endloop
  endfacet
  facet normal 0 0 1
    outer loop
      vertex 12.8069 7 9
      vertex 9.35924 4.97639 9
      vertex 9.68358 4.3114 9
    endloop
  endfacet
  facet normal 0 0 1
    outer loop
      vertex 12.8069 7 9
      vertex 8.9893 5.61714 9
      vertex 9.35924 4.97639 9
    endloop
  endfacet
  facet normal 0 0 1
    outer loop
      vertex 7.09277 7.87733 9
      vertex 9.7693 10.8499 9
      vertex 8.98865 11.5049 9
    endloop
  endfacet
  facet normal 0 0 1
    outer loop
      vertex 12.3815 7.73682 9
      vertex 8.9893 5.61714 9
      vertex 12.8069 7 9
    endloop
  endfacet
  facet normal 0 0 1
    outer loop
      vertex 6.526 8.35291 9
      vertex 8.98865 11.5049 9
      vertex 8.16422 12.1039 9
    endloop
  endfacet
  facet normal 0 0 1
    outer loop
      vertex 11.1842 9.38469 9
      vertex 8.12006 6.81354 9
      vertex 8.57558 6.23051 9
    endloop
  endfacet
  facet normal 0 0 1
    outer loop
      vertex 10.5023 10.142 9
      vertex 7.625 7.36337 9
      vertex 8.12006 6.81354 9
    endloop
  endfacet
  facet normal 0 0 1
    outer loop
      vertex 5.92744 8.7878 9
      vertex 8.16422 12.1039 9
      vertex 7.29999 12.644 9
    endloop
  endfacet
  facet normal 0 0 1
    outer loop
      vertex 9.7693 10.8499 9
      vertex 7.09277 7.87733 9
      vertex 7.625 7.36337 9
    endloop
  endfacet
  facet normal 0 0 1
    outer loop
      vertex 8.98865 11.5049 9
      vertex 6.526 8.35291 9
      vertex 7.09277 7.87733 9
    endloop
  endfacet
  facet normal 0 0 1
    outer loop
      vertex 5.29999 9.17986 9
      vertex 7.29999 12.644 9
      vertex 6.40021 13.1224 9
    endloop
  endfacet
  facet normal 0 0 1
    outer loop
      vertex 8.16422 12.1039 9
      vertex 5.92744 8.7878 9
      vertex 6.526 8.35291 9
    endloop
  endfacet
  facet normal 0 0 1
    outer loop
      vertex 4.64673 9.52721 9
      vertex 6.40021 13.1224 9
      vertex 5.46925 13.5369 9
    endloop
  endfacet
  facet normal 0 0 1
    outer loop
      vertex 7.29999 12.644 9
      vertex 5.29999 9.17986 9
      vertex 5.92744 8.7878 9
    endloop
  endfacet
  facet normal 0 0 1
    outer loop
      vertex 6.40021 13.1224 9
      vertex 4.64673 9.52721 9
      vertex 5.29999 9.17986 9
    endloop
  endfacet
  facet normal 0 0 1
    outer loop
      vertex 3.97083 9.82814 9
      vertex 5.46925 13.5369 9
      vertex 4.51164 13.8854 9
    endloop
  endfacet
  facet normal 0 0 1
    outer loop
      vertex 5.46925 13.5369 9
      vertex 3.97083 9.82814 9
      vertex 4.64673 9.52721 9
    endloop
  endfacet
  facet normal 0 0 1
    outer loop
      vertex 3.27557 10.0812 9
      vertex 4.51164 13.8854 9
      vertex 3.53206 14.1663 9
    endloop
  endfacet
  facet normal 0 0 1
    outer loop
      vertex 4.51164 13.8854 9
      vertex 3.27557 10.0812 9
      vertex 3.97083 9.82814 9
    endloop
  endfacet
  facet normal 0 0 1
    outer loop
      vertex 3.53206 14.1663 9
      vertex 2.56436 10.2851 9
      vertex 3.27557 10.0812 9
    endloop
  endfacet
  facet normal 0 0 1
    outer loop
      vertex 2.53526 14.3782 9
      vertex 2.56436 10.2851 9
      vertex 3.53206 14.1663 9
    endloop
  endfacet
  facet normal 0 0 1
    outer loop
      vertex 2.53526 14.3782 9
      vertex 1.84067 10.4389 9
      vertex 2.56436 10.2851 9
    endloop
  endfacet
  facet normal 0 0 1
    outer loop
      vertex 1.52611 14.52 9
      vertex 1.84067 10.4389 9
      vertex 2.53526 14.3782 9
    endloop
  endfacet
  facet normal 0 0 1
    outer loop
      vertex 1.52611 14.52 9
      vertex 1.108 10.5419 9
      vertex 1.84067 10.4389 9
    endloop
  endfacet
  facet normal 0 0 1
    outer loop
      vertex 0.509521 14.5911 9
      vertex 1.108 10.5419 9
      vertex 1.52611 14.52 9
    endloop
  endfacet
  facet normal 0 0 1
    outer loop
      vertex 0.509521 14.5911 9
      vertex 0.369934 10.5935 9
      vertex 1.108 10.5419 9
    endloop
  endfacet
  facet normal 0 0 1
    outer loop
      vertex 0.509521 14.5911 9
      vertex -0.369934 10.5935 9
      vertex 0.369934 10.5935 9
    endloop
  endfacet
  facet normal -0 0 1
    outer loop
      vertex -0.509521 14.5911 9
      vertex -0.369934 10.5935 9
      vertex 0.509521 14.5911 9
    endloop
  endfacet
  facet normal 0 0 1
    outer loop
      vertex -0.509521 14.5911 9
      vertex -1.108 10.5419 9
      vertex -0.369934 10.5935 9
    endloop
  endfacet
  facet normal -0 0 1
    outer loop
      vertex -1.52611 14.52 9
      vertex -1.108 10.5419 9
      vertex -0.509521 14.5911 9
    endloop
  endfacet
  facet normal 0 0 1
    outer loop
      vertex -1.52611 14.52 9
      vertex -1.84067 10.4389 9
      vertex -1.108 10.5419 9
    endloop
  endfacet
  facet normal -0 0 1
    outer loop
      vertex -2.53526 14.3782 9
      vertex -1.84067 10.4389 9
      vertex -1.52611 14.52 9
    endloop
  endfacet
  facet normal 0 0 1
    outer loop
      vertex -2.53526 14.3782 9
      vertex -2.56436 10.2851 9
      vertex -1.84067 10.4389 9
    endloop
  endfacet
  facet normal -0 0 1
    outer loop
      vertex -3.53206 14.1663 9
      vertex -2.56436 10.2851 9
      vertex -2.53526 14.3782 9
    endloop
  endfacet
  facet normal 0 0 1
    outer loop
      vertex -2.56436 10.2851 9
      vertex -3.53206 14.1663 9
      vertex -3.27557 10.0812 9
    endloop
  endfacet
  facet normal -0 0 1
    outer loop
      vertex -4.51164 13.8854 9
      vertex -3.27557 10.0812 9
      vertex -3.53206 14.1663 9
    endloop
  endfacet
  facet normal 0 0 1
    outer loop
      vertex -3.27557 10.0812 9
      vertex -4.51164 13.8854 9
      vertex -3.97083 9.82814 9
    endloop
  endfacet
  facet normal -0 0 1
    outer loop
      vertex -5.46925 13.5369 9
      vertex -3.97083 9.82814 9
      vertex -4.51164 13.8854 9
    endloop
  endfacet
  facet normal 0 0 1
    outer loop
      vertex -3.97083 9.82814 9
      vertex -5.46925 13.5369 9
      vertex -4.64673 9.52721 9
    endloop
  endfacet
  facet normal -0 0 1
    outer loop
      vertex -6.40021 13.1224 9
      vertex -4.64673 9.52721 9
      vertex -5.46925 13.5369 9
    endloop
  endfacet
  facet normal 0 0 1
    outer loop
      vertex -4.64673 9.52721 9
      vertex -6.40021 13.1224 9
      vertex -5.29999 9.17986 9
    endloop
  endfacet
  facet normal -0 0 1
    outer loop
      vertex -7.29999 12.644 9
      vertex -5.29999 9.17986 9
      vertex -6.40021 13.1224 9
    endloop
  endfacet
  facet normal 0 0 1
    outer loop
      vertex -5.29999 9.17986 9
      vertex -7.29999 12.644 9
      vertex -5.92744 8.7878 9
    endloop
  endfacet
  facet normal -0 0 1
    outer loop
      vertex -8.16422 12.1039 9
      vertex -5.92744 8.7878 9
      vertex -7.29999 12.644 9
    endloop
  endfacet
  facet normal 0 0 1
    outer loop
      vertex -5.92744 8.7878 9
      vertex -8.16422 12.1039 9
      vertex -6.526 8.35291 9
    endloop
  endfacet
  facet normal -0 0 1
    outer loop
      vertex -8.98865 11.5049 9
      vertex -6.526 8.35291 9
      vertex -8.16422 12.1039 9
    endloop
  endfacet
  facet normal 0 0 1
    outer loop
      vertex -6.526 8.35291 9
      vertex -8.98865 11.5049 9
      vertex -7.09277 7.87733 9
    endloop
  endfacet
  facet normal -0 0 1
    outer loop
      vertex -9.7693 10.8499 9
      vertex -7.09277 7.87733 9
      vertex -8.98865 11.5049 9
    endloop
  endfacet
  facet normal 0 0 1
    outer loop
      vertex -7.09277 7.87733 9
      vertex -9.7693 10.8499 9
      vertex -7.625 7.36337 9
    endloop
  endfacet
  facet normal -0 0 1
    outer loop
      vertex -10.5023 10.142 9
      vertex -7.625 7.36337 9
      vertex -9.7693 10.8499 9
    endloop
  endfacet
  facet normal 0 0 1
    outer loop
      vertex -7.625 7.36337 9
      vertex -10.5023 10.142 9
      vertex -8.12006 6.81354 9
    endloop
  endfacet
  facet normal -0 0 1
    outer loop
      vertex -11.1842 9.38469 9
      vertex -8.12006 6.81354 9
      vertex -10.5023 10.142 9
    endloop
  endfacet
  facet normal 0 0 1
    outer loop
      vertex -8.12006 6.81354 9
      vertex -11.1842 9.38469 9
      vertex -8.57558 6.23051 9
    endloop
  endfacet
  facet normal -0 0 1
    outer loop
      vertex -11.8116 8.58165 9
      vertex -8.57558 6.23051 9
      vertex -11.1842 9.38469 9
    endloop
  endfacet
  facet normal 0 0 1
    outer loop
      vertex -8.57558 6.23051 9
      vertex -11.8116 8.58165 9
      vertex -8.9893 5.61714 9
    endloop
  endfacet
  facet normal -0 0 1
    outer loop
      vertex -12.3815 7.73682 9
      vertex -8.9893 5.61714 9
      vertex -11.8116 8.58165 9
    endloop
  endfacet
  facet normal -0 0 1
    outer loop
      vertex -12.8069 7 9
      vertex -8.9893 5.61714 9
      vertex -12.3815 7.73682 9
    endloop
  endfacet
  facet normal 0 0 1
    outer loop
      vertex -8.9893 5.61714 9
      vertex -12.8069 7 9
      vertex -9.35924 4.97639 9
    endloop
  endfacet
  facet normal 0 0 1
    outer loop
      vertex -9.35924 4.97639 9
      vertex -12.8069 7 9
      vertex -9.68358 4.3114 9
    endloop
  endfacet
  facet normal 0 0 1
    outer loop
      vertex -9.68358 4.3114 9
      vertex -12.8069 7 9
      vertex -9.96074 3.62541 9
    endloop
  endfacet
  facet normal 0 0 1
    outer loop
      vertex -9.96074 3.62541 9
      vertex -12.8069 7 9
      vertex -10.1894 2.92175 9
    endloop
  endfacet
  facet normal 0 0 1
    outer loop
      vertex -10.1894 2.92175 9
      vertex -12.8069 7 9
      vertex -10.3684 2.20386 9
    endloop
  endfacet
  facet normal 0 0 1
    outer loop
      vertex -10.3684 2.20386 9
      vertex -12.8069 7 9
      vertex -10.4968 1.47522 9
    endloop
  endfacet
  facet normal 0 0 1
    outer loop
      vertex -21.2 0 9
      vertex -10.4968 1.47522 9
      vertex -12.8069 7 9
    endloop
  endfacet
  facet normal 0 0 1
    outer loop
      vertex -10.4968 1.47522 9
      vertex -21.2 0 9
      vertex -10.5742 0.73941 9
    endloop
  endfacet
  facet normal 0 0 1
    outer loop
      vertex -21.2 0 9
      vertex -12.8069 7 9
      vertex -21.2 7 9
    endloop
  endfacet
  facet normal 0 0 1
    outer loop
      vertex -10.5742 0.73941 9
      vertex -21.2 0 9
      vertex -10.6 0 9
    endloop
  endfacet
  facet normal 0.994513 -0.104613 0
    outer loop
      vertex -10.5742 0.73941 9
      vertex -10.4968 1.47522 0
      vertex -10.4968 1.47522 9
    endloop
  endfacet
  facet normal 0.994513 -0.104613 0
    outer loop
      vertex -10.4968 1.47522 0
      vertex -10.5742 0.73941 9
      vertex -10.5742 0.73941 0
    endloop
  endfacet
  facet normal 0.984826 -0.173545 0
    outer loop
      vertex -10.4968 1.47522 9
      vertex -10.3684 2.20386 0
      vertex -10.3684 2.20386 9
    endloop
  endfacet
  facet normal 0.984826 -0.173545 0
    outer loop
      vertex -10.3684 2.20386 0
      vertex -10.4968 1.47522 9
      vertex -10.4968 1.47522 0
    endloop
  endfacet
  facet normal 0.970293 -0.241935 0
    outer loop
      vertex -10.3684 2.20386 9
      vertex -10.1894 2.92175 0
      vertex -10.1894 2.92175 9
    endloop
  endfacet
  facet normal 0.970293 -0.241935 0
    outer loop
      vertex -10.1894 2.92175 0
      vertex -10.3684 2.20386 9
      vertex -10.3684 2.20386 0
    endloop
  endfacet
  facet normal 0.951046 -0.30905 0
    outer loop
      vertex -10.1894 2.92175 9
      vertex -9.96074 3.62541 0
      vertex -9.96074 3.62541 9
    endloop
  endfacet
  facet normal 0.951046 -0.30905 0
    outer loop
      vertex -9.96074 3.62541 0
      vertex -10.1894 2.92175 9
      vertex -10.1894 2.92175 0
    endloop
  endfacet
  facet normal 0.927183 -0.374609 0
    outer loop
      vertex -9.96074 3.62541 9
      vertex -9.68358 4.3114 0
      vertex -9.68358 4.3114 9
    endloop
  endfacet
  facet normal 0.927183 -0.374609 0
    outer loop
      vertex -9.68358 4.3114 0
      vertex -9.96074 3.62541 9
      vertex -9.96074 3.62541 0
    endloop
  endfacet
  facet normal 0.898793 -0.438374 0
    outer loop
      vertex -9.68358 4.3114 9
      vertex -9.35924 4.97639 0
      vertex -9.35924 4.97639 9
    endloop
  endfacet
  facet normal 0.898793 -0.438374 0
    outer loop
      vertex -9.35924 4.97639 0
      vertex -9.68358 4.3114 9
      vertex -9.68358 4.3114 0
    endloop
  endfacet
  facet normal 0.866024 -0.500003 0
    outer loop
      vertex -9.35924 4.97639 9
      vertex -8.9893 5.61714 0
      vertex -8.9893 5.61714 9
    endloop
  endfacet
  facet normal 0.866024 -0.500003 0
    outer loop
      vertex -8.9893 5.61714 0
      vertex -9.35924 4.97639 9
      vertex -9.35924 4.97639 0
    endloop
  endfacet
  facet normal 0.82904 -0.55919 0
    outer loop
      vertex -8.9893 5.61714 9
      vertex -8.57558 6.23051 0
      vertex -8.57558 6.23051 9
    endloop
  endfacet
  facet normal 0.82904 -0.55919 0
    outer loop
      vertex -8.57558 6.23051 0
      vertex -8.9893 5.61714 9
      vertex -8.9893 5.61714 0
    endloop
  endfacet
  facet normal 0.788006 -0.615667 0
    outer loop
      vertex -8.57558 6.23051 9
      vertex -8.12006 6.81354 0
      vertex -8.12006 6.81354 9
    endloop
  endfacet
  facet normal 0.788006 -0.615667 0
    outer loop
      vertex -8.12006 6.81354 0
      vertex -8.57558 6.23051 9
      vertex -8.57558 6.23051 0
    endloop
  endfacet
  facet normal 0.743151 -0.669124 0
    outer loop
      vertex -8.12006 6.81354 9
      vertex -7.625 7.36337 0
      vertex -7.625 7.36337 9
    endloop
  endfacet
  facet normal 0.743151 -0.669124 0
    outer loop
      vertex -7.625 7.36337 0
      vertex -8.12006 6.81354 9
      vertex -8.12006 6.81354 0
    endloop
  endfacet
  facet normal 0.694652 -0.719346 0
    outer loop
      vertex -7.625 7.36337 0
      vertex -7.09277 7.87733 9
      vertex -7.625 7.36337 9
    endloop
  endfacet
  facet normal 0.694652 -0.719346 0
    outer loop
      vertex -7.09277 7.87733 9
      vertex -7.625 7.36337 0
      vertex -7.09277 7.87733 0
    endloop
  endfacet
  facet normal 0.64279 -0.766042 0
    outer loop
      vertex -7.09277 7.87733 0
      vertex -6.526 8.35291 9
      vertex -7.09277 7.87733 9
    endloop
  endfacet
  facet normal 0.64279 -0.766042 0
    outer loop
      vertex -6.526 8.35291 9
      vertex -7.09277 7.87733 0
      vertex -6.526 8.35291 0
    endloop
  endfacet
  facet normal 0.587795 -0.80901 0
    outer loop
      vertex -6.526 8.35291 0
      vertex -5.92744 8.7878 9
      vertex -6.526 8.35291 9
    endloop
  endfacet
  facet normal 0.587795 -0.80901 0
    outer loop
      vertex -5.92744 8.7878 9
      vertex -6.526 8.35291 0
      vertex -5.92744 8.7878 0
    endloop
  endfacet
  facet normal 0.529905 -0.848057 0
    outer loop
      vertex -5.92744 8.7878 0
      vertex -5.29999 9.17986 9
      vertex -5.92744 8.7878 9
    endloop
  endfacet
  facet normal 0.529905 -0.848057 0
    outer loop
      vertex -5.29999 9.17986 9
      vertex -5.92744 8.7878 0
      vertex -5.29999 9.17986 0
    endloop
  endfacet
  facet normal 0.469477 -0.882945 0
    outer loop
      vertex -5.29999 9.17986 0
      vertex -4.64673 9.52721 9
      vertex -5.29999 9.17986 9
    endloop
  endfacet
  facet normal 0.469477 -0.882945 0
    outer loop
      vertex -4.64673 9.52721 9
      vertex -5.29999 9.17986 0
      vertex -4.64673 9.52721 0
    endloop
  endfacet
  facet normal 0.406737 -0.913545 0
    outer loop
      vertex -4.64673 9.52721 0
      vertex -3.97083 9.82814 9
      vertex -4.64673 9.52721 9
    endloop
  endfacet
  facet normal 0.406737 -0.913545 0
    outer loop
      vertex -3.97083 9.82814 9
      vertex -4.64673 9.52721 0
      vertex -3.97083 9.82814 0
    endloop
  endfacet
  facet normal 0.342027 -0.93969 0
    outer loop
      vertex -3.97083 9.82814 0
      vertex -3.27557 10.0812 9
      vertex -3.97083 9.82814 9
    endloop
  endfacet
  facet normal 0.342027 -0.93969 0
    outer loop
      vertex -3.27557 10.0812 9
      vertex -3.97083 9.82814 0
      vertex -3.27557 10.0812 0
    endloop
  endfacet
  facet normal 0.275592 -0.961275 0
    outer loop
      vertex -3.27557 10.0812 0
      vertex -2.56436 10.2851 9
      vertex -3.27557 10.0812 9
    endloop
  endfacet
  facet normal 0.275592 -0.961275 0
    outer loop
      vertex -2.56436 10.2851 9
      vertex -3.27557 10.0812 0
      vertex -2.56436 10.2851 0
    endloop
  endfacet
  facet normal 0.207879 -0.978154 0
    outer loop
      vertex -2.56436 10.2851 0
      vertex -1.84067 10.4389 9
      vertex -2.56436 10.2851 9
    endloop
  endfacet
  facet normal 0.207879 -0.978154 0
    outer loop
      vertex -1.84067 10.4389 9
      vertex -2.56436 10.2851 0
      vertex -1.84067 10.4389 0
    endloop
  endfacet
  facet normal 0.139213 -0.990262 0
    outer loop
      vertex -1.84067 10.4389 0
      vertex -1.108 10.5419 9
      vertex -1.84067 10.4389 9
    endloop
  endfacet
  facet normal 0.139213 -0.990262 0
    outer loop
      vertex -1.108 10.5419 9
      vertex -1.84067 10.4389 0
      vertex -1.108 10.5419 0
    endloop
  endfacet
  facet normal 0.0697422 -0.997565 0
    outer loop
      vertex -1.108 10.5419 0
      vertex -0.369934 10.5935 9
      vertex -1.108 10.5419 9
    endloop
  endfacet
  facet normal 0.0697422 -0.997565 0
    outer loop
      vertex -0.369934 10.5935 9
      vertex -1.108 10.5419 0
      vertex -0.369934 10.5935 0
    endloop
  endfacet
  facet normal 0 -1 0
    outer loop
      vertex -0.369934 10.5935 0
      vertex 0.369934 10.5935 9
      vertex -0.369934 10.5935 9
    endloop
  endfacet
  facet normal 0 -1 -0
    outer loop
      vertex 0.369934 10.5935 9
      vertex -0.369934 10.5935 0
      vertex 0.369934 10.5935 0
    endloop
  endfacet
  facet normal -0.0697422 -0.997565 0
    outer loop
      vertex 0.369934 10.5935 0
      vertex 1.108 10.5419 9
      vertex 0.369934 10.5935 9
    endloop
  endfacet
  facet normal -0.0697422 -0.997565 -0
    outer loop
      vertex 1.108 10.5419 9
      vertex 0.369934 10.5935 0
      vertex 1.108 10.5419 0
    endloop
  endfacet
  facet normal -0.139213 -0.990262 0
    outer loop
      vertex 1.108 10.5419 0
      vertex 1.84067 10.4389 9
      vertex 1.108 10.5419 9
    endloop
  endfacet
  facet normal -0.139213 -0.990262 -0
    outer loop
      vertex 1.84067 10.4389 9
      vertex 1.108 10.5419 0
      vertex 1.84067 10.4389 0
    endloop
  endfacet
  facet normal -0.207879 -0.978154 0
    outer loop
      vertex 1.84067 10.4389 0
      vertex 2.56436 10.2851 9
      vertex 1.84067 10.4389 9
    endloop
  endfacet
  facet normal -0.207879 -0.978154 -0
    outer loop
      vertex 2.56436 10.2851 9
      vertex 1.84067 10.4389 0
      vertex 2.56436 10.2851 0
    endloop
  endfacet
  facet normal -0.275592 -0.961275 0
    outer loop
      vertex 2.56436 10.2851 0
      vertex 3.27557 10.0812 9
      vertex 2.56436 10.2851 9
    endloop
  endfacet
  facet normal -0.275592 -0.961275 -0
    outer loop
      vertex 3.27557 10.0812 9
      vertex 2.56436 10.2851 0
      vertex 3.27557 10.0812 0
    endloop
  endfacet
  facet normal -0.342027 -0.93969 0
    outer loop
      vertex 3.27557 10.0812 0
      vertex 3.97083 9.82814 9
      vertex 3.27557 10.0812 9
    endloop
  endfacet
  facet normal -0.342027 -0.93969 -0
    outer loop
      vertex 3.97083 9.82814 9
      vertex 3.27557 10.0812 0
      vertex 3.97083 9.82814 0
    endloop
  endfacet
  facet normal -0.406737 -0.913545 0
    outer loop
      vertex 3.97083 9.82814 0
      vertex 4.64673 9.52721 9
      vertex 3.97083 9.82814 9
    endloop
  endfacet
  facet normal -0.406737 -0.913545 -0
    outer loop
      vertex 4.64673 9.52721 9
      vertex 3.97083 9.82814 0
      vertex 4.64673 9.52721 0
    endloop
  endfacet
  facet normal -0.469477 -0.882945 0
    outer loop
      vertex 4.64673 9.52721 0
      vertex 5.29999 9.17986 9
      vertex 4.64673 9.52721 9
    endloop
  endfacet
  facet normal -0.469477 -0.882945 -0
    outer loop
      vertex 5.29999 9.17986 9
      vertex 4.64673 9.52721 0
      vertex 5.29999 9.17986 0
    endloop
  endfacet
  facet normal -0.529905 -0.848057 0
    outer loop
      vertex 5.29999 9.17986 0
      vertex 5.92744 8.7878 9
      vertex 5.29999 9.17986 9
    endloop
  endfacet
  facet normal -0.529905 -0.848057 -0
    outer loop
      vertex 5.92744 8.7878 9
      vertex 5.29999 9.17986 0
      vertex 5.92744 8.7878 0
    endloop
  endfacet
  facet normal -0.587795 -0.80901 0
    outer loop
      vertex 5.92744 8.7878 0
      vertex 6.526 8.35291 9
      vertex 5.92744 8.7878 9
    endloop
  endfacet
  facet normal -0.587795 -0.80901 -0
    outer loop
      vertex 6.526 8.35291 9
      vertex 5.92744 8.7878 0
      vertex 6.526 8.35291 0
    endloop
  endfacet
  facet normal -0.64279 -0.766042 0
    outer loop
      vertex 6.526 8.35291 0
      vertex 7.09277 7.87733 9
      vertex 6.526 8.35291 9
    endloop
  endfacet
  facet normal -0.64279 -0.766042 -0
    outer loop
      vertex 7.09277 7.87733 9
      vertex 6.526 8.35291 0
      vertex 7.09277 7.87733 0
    endloop
  endfacet
  facet normal -0.694652 -0.719346 0
    outer loop
      vertex 7.09277 7.87733 0
      vertex 7.625 7.36337 9
      vertex 7.09277 7.87733 9
    endloop
  endfacet
  facet normal -0.694652 -0.719346 -0
    outer loop
      vertex 7.625 7.36337 9
      vertex 7.09277 7.87733 0
      vertex 7.625 7.36337 0
    endloop
  endfacet
  facet normal -0.743151 -0.669124 0
    outer loop
      vertex 8.12006 6.81354 0
      vertex 7.625 7.36337 9
      vertex 7.625 7.36337 0
    endloop
  endfacet
  facet normal -0.743151 -0.669124 0
    outer loop
      vertex 7.625 7.36337 9
      vertex 8.12006 6.81354 0
      vertex 8.12006 6.81354 9
    endloop
  endfacet
  facet normal -0.788006 -0.615667 0
    outer loop
      vertex 8.57558 6.23051 0
      vertex 8.12006 6.81354 9
      vertex 8.12006 6.81354 0
    endloop
  endfacet
  facet normal -0.788006 -0.615667 0
    outer loop
      vertex 8.12006 6.81354 9
      vertex 8.57558 6.23051 0
      vertex 8.57558 6.23051 9
    endloop
  endfacet
  facet normal -0.82904 -0.55919 0
    outer loop
      vertex 8.9893 5.61714 0
      vertex 8.57558 6.23051 9
      vertex 8.57558 6.23051 0
    endloop
  endfacet
  facet normal -0.82904 -0.55919 0
    outer loop
      vertex 8.57558 6.23051 9
      vertex 8.9893 5.61714 0
      vertex 8.9893 5.61714 9
    endloop
  endfacet
  facet normal -0.866024 -0.500003 0
    outer loop
      vertex 9.35924 4.97639 0
      vertex 8.9893 5.61714 9
      vertex 8.9893 5.61714 0
    endloop
  endfacet
  facet normal -0.866024 -0.500003 0
    outer loop
      vertex 8.9893 5.61714 9
      vertex 9.35924 4.97639 0
      vertex 9.35924 4.97639 9
    endloop
  endfacet
  facet normal -0.898793 -0.438374 0
    outer loop
      vertex 9.68358 4.3114 0
      vertex 9.35924 4.97639 9
      vertex 9.35924 4.97639 0
    endloop
  endfacet
  facet normal -0.898793 -0.438374 0
    outer loop
      vertex 9.35924 4.97639 9
      vertex 9.68358 4.3114 0
      vertex 9.68358 4.3114 9
    endloop
  endfacet
  facet normal -0.927183 -0.374609 0
    outer loop
      vertex 9.96074 3.62541 0
      vertex 9.68358 4.3114 9
      vertex 9.68358 4.3114 0
    endloop
  endfacet
  facet normal -0.927183 -0.374609 0
    outer loop
      vertex 9.68358 4.3114 9
      vertex 9.96074 3.62541 0
      vertex 9.96074 3.62541 9
    endloop
  endfacet
  facet normal -0.951046 -0.30905 0
    outer loop
      vertex 10.1894 2.92175 0
      vertex 9.96074 3.62541 9
      vertex 9.96074 3.62541 0
    endloop
  endfacet
  facet normal -0.951046 -0.30905 0
    outer loop
      vertex 9.96074 3.62541 9
      vertex 10.1894 2.92175 0
      vertex 10.1894 2.92175 9
    endloop
  endfacet
  facet normal -0.970293 -0.241935 0
    outer loop
      vertex 10.3684 2.20386 0
      vertex 10.1894 2.92175 9
      vertex 10.1894 2.92175 0
    endloop
  endfacet
  facet normal -0.970293 -0.241935 0
    outer loop
      vertex 10.1894 2.92175 9
      vertex 10.3684 2.20386 0
      vertex 10.3684 2.20386 9
    endloop
  endfacet
  facet normal -0.984826 -0.173545 0
    outer loop
      vertex 10.4968 1.47522 0
      vertex 10.3684 2.20386 9
      vertex 10.3684 2.20386 0
    endloop
  endfacet
  facet normal -0.984826 -0.173545 0
    outer loop
      vertex 10.3684 2.20386 9
      vertex 10.4968 1.47522 0
      vertex 10.4968 1.47522 9
    endloop
  endfacet
  facet normal -0.994513 -0.104613 0
    outer loop
      vertex 10.5742 0.73941 0
      vertex 10.4968 1.47522 9
      vertex 10.4968 1.47522 0
    endloop
  endfacet
  facet normal -0.994513 -0.104613 0
    outer loop
      vertex 10.4968 1.47522 9
      vertex 10.5742 0.73941 0
      vertex 10.5742 0.73941 9
    endloop
  endfacet
  facet normal -0.999392 -0.0348715 0
    outer loop
      vertex 10.6 0 0
      vertex 10.5742 0.73941 9
      vertex 10.5742 0.73941 0
    endloop
  endfacet
  facet normal -0.999392 -0.0348715 0
    outer loop
      vertex 10.5742 0.73941 9
      vertex 10.6 0 0
      vertex 10.6 0 9
    endloop
  endfacet
  facet normal 0 -1 0
    outer loop
      vertex 17.3149 0 6.04278
      vertex 21.2 0 9
      vertex 10.6 0 9
    endloop
  endfacet
  facet normal 0 -1 0
    outer loop
      vertex 21.2 0 9
      vertex 17.3149 0 6.04278
      vertex 17.7011 0 6.13797
    endloop
  endfacet
  facet normal 0 -1 0
    outer loop
      vertex 10.6 0 9
      vertex 16.9627 0 5.85792
      vertex 17.3149 0 6.04278
    endloop
  endfacet
  facet normal 0 -1 0
    outer loop
      vertex 10.6 0 9
      vertex 16.665 0 5.59415
      vertex 16.9627 0 5.85792
    endloop
  endfacet
  facet normal 0 -1 0
    outer loop
      vertex 10.6 0 9
      vertex 16.439 0 5.26679
      vertex 16.665 0 5.59415
    endloop
  endfacet
  facet normal 0 -1 0
    outer loop
      vertex 10.6 0 9
      vertex 16.2979 0 4.89487
      vertex 16.439 0 5.26679
    endloop
  endfacet
  facet normal 0 -1 0
    outer loop
      vertex 10.6 0 9
      vertex 16.25 0 4.5
      vertex 16.2979 0 4.89487
    endloop
  endfacet
  facet normal 0 -1 0
    outer loop
      vertex 10.6 0 0
      vertex 16.25 0 4.5
      vertex 10.6 0 9
    endloop
  endfacet
  facet normal 0 -1 -0
    outer loop
      vertex 16.25 0 4.5
      vertex 10.6 0 0
      vertex 16.2979 0 4.10513
    endloop
  endfacet
  facet normal 0 -1 -0
    outer loop
      vertex 16.2979 0 4.10513
      vertex 10.6 0 0
      vertex 16.439 0 3.73321
    endloop
  endfacet
  facet normal 0 -1 0
    outer loop
      vertex 17.3149 0 2.95722
      vertex 21.2 0 0
      vertex 17.7011 0 2.86203
    endloop
  endfacet
  facet normal 0 -1 0
    outer loop
      vertex 21.2 0 0
      vertex 17.3149 0 2.95722
      vertex 10.6 0 0
    endloop
  endfacet
  facet normal 0 -1 -0
    outer loop
      vertex 16.9627 0 3.14208
      vertex 10.6 0 0
      vertex 17.3149 0 2.95722
    endloop
  endfacet
  facet normal 0 -1 -0
    outer loop
      vertex 16.665 0 3.40585
      vertex 10.6 0 0
      vertex 16.9627 0 3.14208
    endloop
  endfacet
  facet normal 0 -1 -0
    outer loop
      vertex 16.439 0 3.73321
      vertex 10.6 0 0
      vertex 16.665 0 3.40585
    endloop
  endfacet
  facet normal 0 -1 0
    outer loop
      vertex 18.0989 0 6.13797
      vertex 21.2 0 9
      vertex 17.7011 0 6.13797
    endloop
  endfacet
  facet normal 0 -1 0
    outer loop
      vertex 18.4851 0 6.04278
      vertex 21.2 0 9
      vertex 18.0989 0 6.13797
    endloop
  endfacet
  facet normal 0 -1 0
    outer loop
      vertex 18.8373 0 5.85792
      vertex 21.2 0 9
      vertex 18.4851 0 6.04278
    endloop
  endfacet
  facet normal 0 -1 0
    outer loop
      vertex 19.135 0 5.59415
      vertex 21.2 0 9
      vertex 18.8373 0 5.85792
    endloop
  endfacet
  facet normal 0 -1 0
    outer loop
      vertex 19.361 0 5.26679
      vertex 21.2 0 9
      vertex 19.135 0 5.59415
    endloop
  endfacet
  facet normal 0 -1 0
    outer loop
      vertex 19.5021 0 4.89487
      vertex 21.2 0 9
      vertex 19.361 0 5.26679
    endloop
  endfacet
  facet normal 0 -1 0
    outer loop
      vertex 19.55 0 4.5
      vertex 21.2 0 9
      vertex 19.5021 0 4.89487
    endloop
  endfacet
  facet normal 0 -1 0
    outer loop
      vertex 21.2 0 0
      vertex 19.55 0 4.5
      vertex 19.5021 0 4.10513
    endloop
  endfacet
  facet normal 0 -1 0
    outer loop
      vertex 17.7011 0 2.86203
      vertex 21.2 0 0
      vertex 18.0989 0 2.86203
    endloop
  endfacet
  facet normal 0 -1 0
    outer loop
      vertex 19.55 0 4.5
      vertex 21.2 0 0
      vertex 21.2 0 9
    endloop
  endfacet
  facet normal 0 -1 0
    outer loop
      vertex 19.361 0 3.73321
      vertex 21.2 0 0
      vertex 19.5021 0 4.10513
    endloop
  endfacet
  facet normal 0 -1 0
    outer loop
      vertex 19.135 0 3.40585
      vertex 21.2 0 0
      vertex 19.361 0 3.73321
    endloop
  endfacet
  facet normal 0 -1 0
    outer loop
      vertex 18.8373 0 3.14208
      vertex 21.2 0 0
      vertex 19.135 0 3.40585
    endloop
  endfacet
  facet normal 0 -1 0
    outer loop
      vertex 18.4851 0 2.95722
      vertex 21.2 0 0
      vertex 18.8373 0 3.14208
    endloop
  endfacet
  facet normal 0 -1 0
    outer loop
      vertex 18.0989 0 2.86203
      vertex 21.2 0 0
      vertex 18.4851 0 2.95722
    endloop
  endfacet
  facet normal 1 -0 0
    outer loop
      vertex 21.2 0 9
      vertex 21.2 7 0
      vertex 21.2 7 9
    endloop
  endfacet
  facet normal 1 0 0
    outer loop
      vertex 21.2 7 0
      vertex 21.2 0 9
      vertex 21.2 0 0
    endloop
  endfacet
  facet normal 0 1 0
    outer loop
      vertex 17.7011 7 6.13797
      vertex 21.2 7 9
      vertex 18.0989 7 6.13797
    endloop
  endfacet
  facet normal 0 1 0
    outer loop
      vertex 21.2 7 9
      vertex 18.4851 7 6.04278
      vertex 18.0989 7 6.13797
    endloop
  endfacet
  facet normal 0 1 0
    outer loop
      vertex 21.2 7 9
      vertex 18.8373 7 5.85792
      vertex 18.4851 7 6.04278
    endloop
  endfacet
  facet normal 0 1 0
    outer loop
      vertex 21.2 7 9
      vertex 19.135 7 5.59415
      vertex 18.8373 7 5.85792
    endloop
  endfacet
  facet normal 0 1 0
    outer loop
      vertex 21.2 7 9
      vertex 19.361 7 5.26679
      vertex 19.135 7 5.59415
    endloop
  endfacet
  facet normal 0 1 0
    outer loop
      vertex 21.2 7 9
      vertex 19.5021 7 4.89487
      vertex 19.361 7 5.26679
    endloop
  endfacet
  facet normal 0 1 0
    outer loop
      vertex 21.2 7 9
      vertex 19.55 7 4.5
      vertex 19.5021 7 4.89487
    endloop
  endfacet
  facet normal 0 1 -0
    outer loop
      vertex 21.2 7 0
      vertex 19.55 7 4.5
      vertex 21.2 7 9
    endloop
  endfacet
  facet normal 0 1 0
    outer loop
      vertex 18.0989 7 2.86203
      vertex 21.2 7 0
      vertex 17.7011 7 2.86203
    endloop
  endfacet
  facet normal 0 1 0
    outer loop
      vertex 18.4851 7 2.95722
      vertex 21.2 7 0
      vertex 18.0989 7 2.86203
    endloop
  endfacet
  facet normal 0 1 0
    outer loop
      vertex 18.8373 7 3.14208
      vertex 21.2 7 0
      vertex 18.4851 7 2.95722
    endloop
  endfacet
  facet normal 0 1 0
    outer loop
      vertex 19.135 7 3.40585
      vertex 21.2 7 0
      vertex 18.8373 7 3.14208
    endloop
  endfacet
  facet normal 0 1 0
    outer loop
      vertex 19.361 7 3.73321
      vertex 21.2 7 0
      vertex 19.135 7 3.40585
    endloop
  endfacet
  facet normal 0 1 0
    outer loop
      vertex 19.5021 7 4.10513
      vertex 21.2 7 0
      vertex 19.361 7 3.73321
    endloop
  endfacet
  facet normal 0 1 0
    outer loop
      vertex 19.55 7 4.5
      vertex 21.2 7 0
      vertex 19.5021 7 4.10513
    endloop
  endfacet
  facet normal 0 1 0
    outer loop
      vertex 21.2 7 9
      vertex 17.7011 7 6.13797
      vertex 12.8069 7 9
    endloop
  endfacet
  facet normal 0 1 -0
    outer loop
      vertex 17.3149 7 6.04278
      vertex 12.8069 7 9
      vertex 17.7011 7 6.13797
    endloop
  endfacet
  facet normal 0 1 -0
    outer loop
      vertex 16.9627 7 5.85792
      vertex 12.8069 7 9
      vertex 17.3149 7 6.04278
    endloop
  endfacet
  facet normal 0 1 -0
    outer loop
      vertex 16.665 7 5.59415
      vertex 12.8069 7 9
      vertex 16.9627 7 5.85792
    endloop
  endfacet
  facet normal 0 1 -0
    outer loop
      vertex 16.439 7 5.26679
      vertex 12.8069 7 9
      vertex 16.665 7 5.59415
    endloop
  endfacet
  facet normal 0 1 -0
    outer loop
      vertex 16.2979 7 4.89487
      vertex 12.8069 7 9
      vertex 16.439 7 5.26679
    endloop
  endfacet
  facet normal 0 1 -0
    outer loop
      vertex 16.25 7 4.5
      vertex 12.8069 7 9
      vertex 16.2979 7 4.89487
    endloop
  endfacet
  facet normal 0 1 0
    outer loop
      vertex 12.8069 7 0
      vertex 16.25 7 4.5
      vertex 16.2979 7 4.10513
    endloop
  endfacet
  facet normal 0 1 0
    outer loop
      vertex 12.8069 7 0
      vertex 16.2979 7 4.10513
      vertex 16.439 7 3.73321
    endloop
  endfacet
  facet normal 0 1 0
    outer loop
      vertex 12.8069 7 0
      vertex 17.7011 7 2.86203
      vertex 21.2 7 0
    endloop
  endfacet
  facet normal 0 1 0
    outer loop
      vertex 17.7011 7 2.86203
      vertex 12.8069 7 0
      vertex 17.3149 7 2.95722
    endloop
  endfacet
  facet normal 0 1 0
    outer loop
      vertex 16.25 7 4.5
      vertex 12.8069 7 0
      vertex 12.8069 7 9
    endloop
  endfacet
  facet normal 0 1 0
    outer loop
      vertex 16.665 7 3.40585
      vertex 12.8069 7 0
      vertex 16.439 7 3.73321
    endloop
  endfacet
  facet normal 0 1 0
    outer loop
      vertex 16.9627 7 3.14208
      vertex 12.8069 7 0
      vertex 16.665 7 3.40585
    endloop
  endfacet
  facet normal 0 1 0
    outer loop
      vertex 17.3149 7 2.95722
      vertex 12.8069 7 0
      vertex 16.9627 7 3.14208
    endloop
  endfacet
  facet normal 0.866027 0.499997 0
    outer loop
      vertex 12.8069 7 9
      vertex 12.3815 7.73682 0
      vertex 12.3815 7.73682 9
    endloop
  endfacet
  facet normal 0.866027 0.499997 0
    outer loop
      vertex 12.3815 7.73682 0
      vertex 12.8069 7 9
      vertex 12.8069 7 0
    endloop
  endfacet
  facet normal 0.829013 0.55923 0
    outer loop
      vertex 12.3815 7.73682 9
      vertex 11.8116 8.58165 0
      vertex 11.8116 8.58165 9
    endloop
  endfacet
  facet normal 0.829013 0.55923 0
    outer loop
      vertex 11.8116 8.58165 0
      vertex 12.3815 7.73682 9
      vertex 12.3815 7.73682 0
    endloop
  endfacet
  facet normal 0.788012 0.615659 0
    outer loop
      vertex 11.8116 8.58165 9
      vertex 11.1842 9.38469 0
      vertex 11.1842 9.38469 9
    endloop
  endfacet
  facet normal 0.788012 0.615659 0
    outer loop
      vertex 11.1842 9.38469 0
      vertex 11.8116 8.58165 9
      vertex 11.8116 8.58165 0
    endloop
  endfacet
  facet normal 0.743137 0.669139 0
    outer loop
      vertex 11.1842 9.38469 9
      vertex 10.5023 10.142 0
      vertex 10.5023 10.142 9
    endloop
  endfacet
  facet normal 0.743137 0.669139 0
    outer loop
      vertex 10.5023 10.142 0
      vertex 11.1842 9.38469 9
      vertex 11.1842 9.38469 0
    endloop
  endfacet
  facet normal 0.694684 0.719315 -0
    outer loop
      vertex 10.5023 10.142 0
      vertex 9.7693 10.8499 9
      vertex 10.5023 10.142 9
    endloop
  endfacet
  facet normal 0.694684 0.719315 0
    outer loop
      vertex 9.7693 10.8499 9
      vertex 10.5023 10.142 0
      vertex 9.7693 10.8499 0
    endloop
  endfacet
  facet normal 0.642763 0.766065 -0
    outer loop
      vertex 9.7693 10.8499 0
      vertex 8.98865 11.5049 9
      vertex 9.7693 10.8499 9
    endloop
  endfacet
  facet normal 0.642763 0.766065 0
    outer loop
      vertex 8.98865 11.5049 9
      vertex 9.7693 10.8499 0
      vertex 8.98865 11.5049 0
    endloop
  endfacet
  facet normal 0.587796 0.809009 -0
    outer loop
      vertex 8.98865 11.5049 0
      vertex 8.16422 12.1039 9
      vertex 8.98865 11.5049 9
    endloop
  endfacet
  facet normal 0.587796 0.809009 0
    outer loop
      vertex 8.16422 12.1039 9
      vertex 8.98865 11.5049 0
      vertex 8.16422 12.1039 0
    endloop
  endfacet
  facet normal 0.529968 0.848018 -0
    outer loop
      vertex 8.16422 12.1039 0
      vertex 7.29999 12.644 9
      vertex 8.16422 12.1039 9
    endloop
  endfacet
  facet normal 0.529968 0.848018 0
    outer loop
      vertex 7.29999 12.644 9
      vertex 8.16422 12.1039 0
      vertex 7.29999 12.644 0
    endloop
  endfacet
  facet normal 0.469455 0.882956 -0
    outer loop
      vertex 7.29999 12.644 0
      vertex 6.40021 13.1224 9
      vertex 7.29999 12.644 9
    endloop
  endfacet
  facet normal 0.469455 0.882956 0
    outer loop
      vertex 6.40021 13.1224 9
      vertex 7.29999 12.644 0
      vertex 6.40021 13.1224 0
    endloop
  endfacet
  facet normal 0.406745 0.913542 -0
    outer loop
      vertex 6.40021 13.1224 0
      vertex 5.46925 13.5369 9
      vertex 6.40021 13.1224 9
    endloop
  endfacet
  facet normal 0.406745 0.913542 0
    outer loop
      vertex 5.46925 13.5369 9
      vertex 6.40021 13.1224 0
      vertex 5.46925 13.5369 0
    endloop
  endfacet
  facet normal 0.341984 0.939706 -0
    outer loop
      vertex 5.46925 13.5369 0
      vertex 4.51164 13.8854 9
      vertex 5.46925 13.5369 9
    endloop
  endfacet
  facet normal 0.341984 0.939706 0
    outer loop
      vertex 4.51164 13.8854 9
      vertex 5.46925 13.5369 0
      vertex 4.51164 13.8854 0
    endloop
  endfacet
  facet normal 0.275646 0.961259 -0
    outer loop
      vertex 4.51164 13.8854 0
      vertex 3.53206 14.1663 9
      vertex 4.51164 13.8854 9
    endloop
  endfacet
  facet normal 0.275646 0.961259 0
    outer loop
      vertex 3.53206 14.1663 9
      vertex 4.51164 13.8854 0
      vertex 3.53206 14.1663 0
    endloop
  endfacet
  facet normal 0.207934 0.978143 -0
    outer loop
      vertex 3.53206 14.1663 0
      vertex 2.53526 14.3782 9
      vertex 3.53206 14.1663 9
    endloop
  endfacet
  facet normal 0.207934 0.978143 0
    outer loop
      vertex 2.53526 14.3782 9
      vertex 3.53206 14.1663 0
      vertex 2.53526 14.3782 0
    endloop
  endfacet
  facet normal 0.139147 0.990272 -0
    outer loop
      vertex 2.53526 14.3782 0
      vertex 1.52611 14.52 9
      vertex 2.53526 14.3782 9
    endloop
  endfacet
  facet normal 0.139147 0.990272 0
    outer loop
      vertex 1.52611 14.52 9
      vertex 2.53526 14.3782 0
      vertex 1.52611 14.52 0
    endloop
  endfacet
  facet normal 0.0697693 0.997563 -0
    outer loop
      vertex 1.52611 14.52 0
      vertex 0.509521 14.5911 9
      vertex 1.52611 14.52 9
    endloop
  endfacet
  facet normal 0.0697693 0.997563 0
    outer loop
      vertex 0.509521 14.5911 9
      vertex 1.52611 14.52 0
      vertex 0.509521 14.5911 0
    endloop
  endfacet
  facet normal 0 1 -0
    outer loop
      vertex 0.509521 14.5911 0
      vertex -0.509521 14.5911 9
      vertex 0.509521 14.5911 9
    endloop
  endfacet
  facet normal 0 1 0
    outer loop
      vertex -0.509521 14.5911 9
      vertex 0.509521 14.5911 0
      vertex -0.509521 14.5911 0
    endloop
  endfacet
  facet normal -0.0697693 0.997563 0
    outer loop
      vertex -0.509521 14.5911 0
      vertex -1.52611 14.52 9
      vertex -0.509521 14.5911 9
    endloop
  endfacet
  facet normal -0.0697693 0.997563 0
    outer loop
      vertex -1.52611 14.52 9
      vertex -0.509521 14.5911 0
      vertex -1.52611 14.52 0
    endloop
  endfacet
  facet normal -0.139147 0.990272 0
    outer loop
      vertex -1.52611 14.52 0
      vertex -2.53526 14.3782 9
      vertex -1.52611 14.52 9
    endloop
  endfacet
  facet normal -0.139147 0.990272 0
    outer loop
      vertex -2.53526 14.3782 9
      vertex -1.52611 14.52 0
      vertex -2.53526 14.3782 0
    endloop
  endfacet
  facet normal -0.207934 0.978143 0
    outer loop
      vertex -2.53526 14.3782 0
      vertex -3.53206 14.1663 9
      vertex -2.53526 14.3782 9
    endloop
  endfacet
  facet normal -0.207934 0.978143 0
    outer loop
      vertex -3.53206 14.1663 9
      vertex -2.53526 14.3782 0
      vertex -3.53206 14.1663 0
    endloop
  endfacet
  facet normal -0.275646 0.961259 0
    outer loop
      vertex -3.53206 14.1663 0
      vertex -4.51164 13.8854 9
      vertex -3.53206 14.1663 9
    endloop
  endfacet
  facet normal -0.275646 0.961259 0
    outer loop
      vertex -4.51164 13.8854 9
      vertex -3.53206 14.1663 0
      vertex -4.51164 13.8854 0
    endloop
  endfacet
  facet normal -0.341984 0.939706 0
    outer loop
      vertex -4.51164 13.8854 0
      vertex -5.46925 13.5369 9
      vertex -4.51164 13.8854 9
    endloop
  endfacet
  facet normal -0.341984 0.939706 0
    outer loop
      vertex -5.46925 13.5369 9
      vertex -4.51164 13.8854 0
      vertex -5.46925 13.5369 0
    endloop
  endfacet
  facet normal -0.406745 0.913542 0
    outer loop
      vertex -5.46925 13.5369 0
      vertex -6.40021 13.1224 9
      vertex -5.46925 13.5369 9
    endloop
  endfacet
  facet normal -0.406745 0.913542 0
    outer loop
      vertex -6.40021 13.1224 9
      vertex -5.46925 13.5369 0
      vertex -6.40021 13.1224 0
    endloop
  endfacet
  facet normal -0.469455 0.882956 0
    outer loop
      vertex -6.40021 13.1224 0
      vertex -7.29999 12.644 9
      vertex -6.40021 13.1224 9
    endloop
  endfacet
  facet normal -0.469455 0.882956 0
    outer loop
      vertex -7.29999 12.644 9
      vertex -6.40021 13.1224 0
      vertex -7.29999 12.644 0
    endloop
  endfacet
  facet normal -0.529968 0.848018 0
    outer loop
      vertex -7.29999 12.644 0
      vertex -8.16422 12.1039 9
      vertex -7.29999 12.644 9
    endloop
  endfacet
  facet normal -0.529968 0.848018 0
    outer loop
      vertex -8.16422 12.1039 9
      vertex -7.29999 12.644 0
      vertex -8.16422 12.1039 0
    endloop
  endfacet
  facet normal -0.587796 0.809009 0
    outer loop
      vertex -8.16422 12.1039 0
      vertex -8.98865 11.5049 9
      vertex -8.16422 12.1039 9
    endloop
  endfacet
  facet normal -0.587796 0.809009 0
    outer loop
      vertex -8.98865 11.5049 9
      vertex -8.16422 12.1039 0
      vertex -8.98865 11.5049 0
    endloop
  endfacet
  facet normal -0.642763 0.766065 0
    outer loop
      vertex -8.98865 11.5049 0
      vertex -9.7693 10.8499 9
      vertex -8.98865 11.5049 9
    endloop
  endfacet
  facet normal -0.642763 0.766065 0
    outer loop
      vertex -9.7693 10.8499 9
      vertex -8.98865 11.5049 0
      vertex -9.7693 10.8499 0
    endloop
  endfacet
  facet normal -0.694684 0.719315 0
    outer loop
      vertex -9.7693 10.8499 0
      vertex -10.5023 10.142 9
      vertex -9.7693 10.8499 9
    endloop
  endfacet
  facet normal -0.694684 0.719315 0
    outer loop
      vertex -10.5023 10.142 9
      vertex -9.7693 10.8499 0
      vertex -10.5023 10.142 0
    endloop
  endfacet
  facet normal -0.743137 0.669139 0
    outer loop
      vertex -11.1842 9.38469 0
      vertex -10.5023 10.142 9
      vertex -10.5023 10.142 0
    endloop
  endfacet
  facet normal -0.743137 0.669139 0
    outer loop
      vertex -10.5023 10.142 9
      vertex -11.1842 9.38469 0
      vertex -11.1842 9.38469 9
    endloop
  endfacet
  facet normal -0.788012 0.615659 0
    outer loop
      vertex -11.8116 8.58165 0
      vertex -11.1842 9.38469 9
      vertex -11.1842 9.38469 0
    endloop
  endfacet
  facet normal -0.788012 0.615659 0
    outer loop
      vertex -11.1842 9.38469 9
      vertex -11.8116 8.58165 0
      vertex -11.8116 8.58165 9
    endloop
  endfacet
  facet normal -0.829013 0.55923 0
    outer loop
      vertex -12.3815 7.73682 0
      vertex -11.8116 8.58165 9
      vertex -11.8116 8.58165 0
    endloop
  endfacet
  facet normal -0.829013 0.55923 0
    outer loop
      vertex -11.8116 8.58165 9
      vertex -12.3815 7.73682 0
      vertex -12.3815 7.73682 9
    endloop
  endfacet
  facet normal -0.866027 0.499997 0
    outer loop
      vertex -12.8069 7 0
      vertex -12.3815 7.73682 9
      vertex -12.3815 7.73682 0
    endloop
  endfacet
  facet normal -0.866027 0.499997 0
    outer loop
      vertex -12.3815 7.73682 9
      vertex -12.8069 7 0
      vertex -12.8069 7 9
    endloop
  endfacet
  facet normal 0 1 0
    outer loop
      vertex -12.8069 7 9
      vertex -17.7011 7 6.13797
      vertex -21.2 7 9
    endloop
  endfacet
  facet normal 0 1 0
    outer loop
      vertex -12.8069 7 9
      vertex -17.3149 7 6.04278
      vertex -17.7011 7 6.13797
    endloop
  endfacet
  facet normal 0 1 0
    outer loop
      vertex -12.8069 7 9
      vertex -16.9627 7 5.85792
      vertex -17.3149 7 6.04278
    endloop
  endfacet
  facet normal 0 1 0
    outer loop
      vertex -12.8069 7 9
      vertex -16.665 7 5.59415
      vertex -16.9627 7 5.85792
    endloop
  endfacet
  facet normal 0 1 0
    outer loop
      vertex -12.8069 7 9
      vertex -16.439 7 5.26679
      vertex -16.665 7 5.59415
    endloop
  endfacet
  facet normal 0 1 0
    outer loop
      vertex -12.8069 7 9
      vertex -16.2979 7 4.89487
      vertex -16.439 7 5.26679
    endloop
  endfacet
  facet normal 0 1 0
    outer loop
      vertex -12.8069 7 9
      vertex -16.25 7 4.5
      vertex -16.2979 7 4.89487
    endloop
  endfacet
  facet normal 0 1 -0
    outer loop
      vertex -12.8069 7 0
      vertex -16.25 7 4.5
      vertex -12.8069 7 9
    endloop
  endfacet
  facet normal 0 1 0
    outer loop
      vertex -16.25 7 4.5
      vertex -12.8069 7 0
      vertex -16.2979 7 4.10513
    endloop
  endfacet
  facet normal 0 1 0
    outer loop
      vertex -21.2 7 0
      vertex -17.7011 7 2.86203
      vertex -12.8069 7 0
    endloop
  endfacet
  facet normal 0 1 0
    outer loop
      vertex -17.3149 7 2.95722
      vertex -12.8069 7 0
      vertex -17.7011 7 2.86203
    endloop
  endfacet
  facet normal 0 1 0
    outer loop
      vertex -16.9627 7 3.14208
      vertex -12.8069 7 0
      vertex -17.3149 7 2.95722
    endloop
  endfacet
  facet normal 0 1 0
    outer loop
      vertex -16.665 7 3.40585
      vertex -12.8069 7 0
      vertex -16.9627 7 3.14208
    endloop
  endfacet
  facet normal 0 1 0
    outer loop
      vertex -16.439 7 3.73321
      vertex -12.8069 7 0
      vertex -16.665 7 3.40585
    endloop
  endfacet
  facet normal 0 1 0
    outer loop
      vertex -16.2979 7 4.10513
      vertex -12.8069 7 0
      vertex -16.439 7 3.73321
    endloop
  endfacet
  facet normal 0 1 -0
    outer loop
      vertex -18.0989 7 6.13797
      vertex -21.2 7 9
      vertex -17.7011 7 6.13797
    endloop
  endfacet
  facet normal 0 1 -0
    outer loop
      vertex -18.4851 7 6.04278
      vertex -21.2 7 9
      vertex -18.0989 7 6.13797
    endloop
  endfacet
  facet normal 0 1 -0
    outer loop
      vertex -18.8373 7 5.85792
      vertex -21.2 7 9
      vertex -18.4851 7 6.04278
    endloop
  endfacet
  facet normal 0 1 -0
    outer loop
      vertex -19.135 7 5.59415
      vertex -21.2 7 9
      vertex -18.8373 7 5.85792
    endloop
  endfacet
  facet normal 0 1 -0
    outer loop
      vertex -19.361 7 5.26679
      vertex -21.2 7 9
      vertex -19.135 7 5.59415
    endloop
  endfacet
  facet normal 0 1 -0
    outer loop
      vertex -19.5021 7 4.89487
      vertex -21.2 7 9
      vertex -19.361 7 5.26679
    endloop
  endfacet
  facet normal 0 1 -0
    outer loop
      vertex -19.55 7 4.5
      vertex -21.2 7 9
      vertex -19.5021 7 4.89487
    endloop
  endfacet
  facet normal 0 1 0
    outer loop
      vertex -21.2 7 0
      vertex -19.55 7 4.5
      vertex -19.5021 7 4.10513
    endloop
  endfacet
  facet normal 0 1 0
    outer loop
      vertex -17.7011 7 2.86203
      vertex -21.2 7 0
      vertex -18.0989 7 2.86203
    endloop
  endfacet
  facet normal 0 1 0
    outer loop
      vertex -19.55 7 4.5
      vertex -21.2 7 0
      vertex -21.2 7 9
    endloop
  endfacet
  facet normal 0 1 0
    outer loop
      vertex -19.361 7 3.73321
      vertex -21.2 7 0
      vertex -19.5021 7 4.10513
    endloop
  endfacet
  facet normal 0 1 0
    outer loop
      vertex -19.135 7 3.40585
      vertex -21.2 7 0
      vertex -19.361 7 3.73321
    endloop
  endfacet
  facet normal 0 1 0
    outer loop
      vertex -18.8373 7 3.14208
      vertex -21.2 7 0
      vertex -19.135 7 3.40585
    endloop
  endfacet
  facet normal 0 1 0
    outer loop
      vertex -18.4851 7 2.95722
      vertex -21.2 7 0
      vertex -18.8373 7 3.14208
    endloop
  endfacet
  facet normal 0 1 0
    outer loop
      vertex -18.0989 7 2.86203
      vertex -21.2 7 0
      vertex -18.4851 7 2.95722
    endloop
  endfacet
  facet normal -1 0 0
    outer loop
      vertex -21.2 0 0
      vertex -21.2 7 9
      vertex -21.2 7 0
    endloop
  endfacet
  facet normal -1 -0 0
    outer loop
      vertex -21.2 7 9
      vertex -21.2 0 0
      vertex -21.2 0 9
    endloop
  endfacet
  facet normal 0 -1 0
    outer loop
      vertex -17.7011 0 6.13797
      vertex -21.2 0 9
      vertex -18.0989 0 6.13797
    endloop
  endfacet
  facet normal 0 -1 0
    outer loop
      vertex -21.2 0 9
      vertex -18.4851 0 6.04278
      vertex -18.0989 0 6.13797
    endloop
  endfacet
  facet normal 0 -1 0
    outer loop
      vertex -21.2 0 9
      vertex -18.8373 0 5.85792
      vertex -18.4851 0 6.04278
    endloop
  endfacet
  facet normal 0 -1 0
    outer loop
      vertex -21.2 0 9
      vertex -19.135 0 5.59415
      vertex -18.8373 0 5.85792
    endloop
  endfacet
  facet normal 0 -1 0
    outer loop
      vertex -21.2 0 9
      vertex -19.361 0 5.26679
      vertex -19.135 0 5.59415
    endloop
  endfacet
  facet normal 0 -1 0
    outer loop
      vertex -21.2 0 9
      vertex -19.5021 0 4.89487
      vertex -19.361 0 5.26679
    endloop
  endfacet
  facet normal 0 -1 0
    outer loop
      vertex -21.2 0 9
      vertex -19.55 0 4.5
      vertex -19.5021 0 4.89487
    endloop
  endfacet
  facet normal 0 -1 0
    outer loop
      vertex -21.2 0 0
      vertex -19.55 0 4.5
      vertex -21.2 0 9
    endloop
  endfacet
  facet normal 0 -1 -0
    outer loop
      vertex -18.0989 0 2.86203
      vertex -21.2 0 0
      vertex -17.7011 0 2.86203
    endloop
  endfacet
  facet normal 0 -1 -0
    outer loop
      vertex -18.4851 0 2.95722
      vertex -21.2 0 0
      vertex -18.0989 0 2.86203
    endloop
  endfacet
  facet normal 0 -1 -0
    outer loop
      vertex -18.8373 0 3.14208
      vertex -21.2 0 0
      vertex -18.4851 0 2.95722
    endloop
  endfacet
  facet normal 0 -1 -0
    outer loop
      vertex -19.135 0 3.40585
      vertex -21.2 0 0
      vertex -18.8373 0 3.14208
    endloop
  endfacet
  facet normal 0 -1 -0
    outer loop
      vertex -19.361 0 3.73321
      vertex -21.2 0 0
      vertex -19.135 0 3.40585
    endloop
  endfacet
  facet normal 0 -1 -0
    outer loop
      vertex -19.5021 0 4.10513
      vertex -21.2 0 0
      vertex -19.361 0 3.73321
    endloop
  endfacet
  facet normal 0 -1 -0
    outer loop
      vertex -19.55 0 4.5
      vertex -21.2 0 0
      vertex -19.5021 0 4.10513
    endloop
  endfacet
  facet normal 0 -1 0
    outer loop
      vertex -17.3149 0 6.04278
      vertex -21.2 0 9
      vertex -17.7011 0 6.13797
    endloop
  endfacet
  facet normal 0 -1 0
    outer loop
      vertex -21.2 0 9
      vertex -17.3149 0 6.04278
      vertex -10.6 0 9
    endloop
  endfacet
  facet normal 0 -1 0
    outer loop
      vertex -16.9627 0 5.85792
      vertex -10.6 0 9
      vertex -17.3149 0 6.04278
    endloop
  endfacet
  facet normal 0 -1 0
    outer loop
      vertex -16.665 0 5.59415
      vertex -10.6 0 9
      vertex -16.9627 0 5.85792
    endloop
  endfacet
  facet normal 0 -1 0
    outer loop
      vertex -16.439 0 5.26679
      vertex -10.6 0 9
      vertex -16.665 0 5.59415
    endloop
  endfacet
  facet normal 0 -1 0
    outer loop
      vertex -16.2979 0 4.89487
      vertex -10.6 0 9
      vertex -16.439 0 5.26679
    endloop
  endfacet
  facet normal 0 -1 0
    outer loop
      vertex -16.25 0 4.5
      vertex -10.6 0 9
      vertex -16.2979 0 4.89487
    endloop
  endfacet
  facet normal 0 -1 0
    outer loop
      vertex -10.6 0 0
      vertex -16.25 0 4.5
      vertex -16.2979 0 4.10513
    endloop
  endfacet
  facet normal 0 -1 0
    outer loop
      vertex -10.6 0 0
      vertex -16.2979 0 4.10513
      vertex -16.439 0 3.73321
    endloop
  endfacet
  facet normal 0 -1 0
    outer loop
      vertex -10.6 0 0
      vertex -16.439 0 3.73321
      vertex -16.665 0 3.40585
    endloop
  endfacet
  facet normal 0 -1 0
    outer loop
      vertex -21.2 0 0
      vertex -17.3149 0 2.95722
      vertex -17.7011 0 2.86203
    endloop
  endfacet
  facet normal 0 -1 0
    outer loop
      vertex -10.6 0 0
      vertex -17.3149 0 2.95722
      vertex -21.2 0 0
    endloop
  endfacet
  facet normal 0 -1 0
    outer loop
      vertex -16.25 0 4.5
      vertex -10.6 0 0
      vertex -10.6 0 9
    endloop
  endfacet
  facet normal 0 -1 0
    outer loop
      vertex -16.9627 0 3.14208
      vertex -10.6 0 0
      vertex -16.665 0 3.40585
    endloop
  endfacet
  facet normal 0 -1 0
    outer loop
      vertex -17.3149 0 2.95722
      vertex -10.6 0 0
      vertex -16.9627 0 3.14208
    endloop
  endfacet
  facet normal 0.999392 -0.0348715 0
    outer loop
      vertex -10.6 0 9
      vertex -10.5742 0.73941 0
      vertex -10.5742 0.73941 9
    endloop
  endfacet
  facet normal 0.999392 -0.0348715 0
    outer loop
      vertex -10.5742 0.73941 0
      vertex -10.6 0 9
      vertex -10.6 0 0
    endloop
  endfacet
endsolid OpenSCAD_Model
